solid plate_1_logo
facet normal 1 0 0
outer loop
	vertex 3.2005 -132.7262 -84.74445
	vertex 3.2005 -113.6431 -109.0097
	vertex 3.2005 7E-05 9E-05
endloop
endfacet
facet normal 1 0 0
outer loop
	vertex 3.2005 -146.7087 -57.22257
	vertex 3.2005 -132.7262 -84.74445
	vertex 3.2005 7E-05 9E-05
endloop
endfacet
facet normal 1 0 0
outer loop
	vertex 3.2005 -113.6431 -109.0097
	vertex 3.2005 -90.19274 -129.0857
	vertex 3.2005 7E-05 9E-05
endloop
endfacet
facet normal 1 0 0
outer loop
	vertex 3.2005 -155.0533 -27.50166
	vertex 3.2005 -146.7087 -57.22257
	vertex 3.2005 7E-05 9E-05
endloop
endfacet
facet normal 1 0 0
outer loop
	vertex 3.2005 -90.19274 -129.0857
	vertex 3.2005 -63.27638 -144.2011
	vertex 3.2005 7E-05 9E-05
endloop
endfacet
facet normal 1 0 0
outer loop
	vertex 3.2005 -157.4393 3.27613
	vertex 3.2005 -155.0533 -27.50166
	vertex 3.2005 7E-05 9E-05
endloop
endfacet
facet normal 1 0 0
outer loop
	vertex 3.2005 -63.27638 -144.2011
	vertex 3.2005 -33.92834 -153.7749
	vertex 3.2005 7E-05 9E-05
endloop
endfacet
facet normal 1 0 0
outer loop
	vertex 3.2005 -153.775 33.92802
	vertex 3.2005 -157.4393 3.27613
	vertex 3.2005 7E-05 9E-05
endloop
endfacet
facet normal 1 0 0
outer loop
	vertex 3.2005 -33.92834 -153.7749
	vertex 3.2005 -3.27647 -157.4393
	vertex 3.2005 7E-05 9E-05
endloop
endfacet
facet normal 1 0 0
outer loop
	vertex 3.2005 -144.2013 63.27608
	vertex 3.2005 -153.775 33.92802
	vertex 3.2005 7E-05 9E-05
endloop
endfacet
facet normal 1 0 0
outer loop
	vertex 3.2005 -3.27647 -157.4393
	vertex 3.2005 27.50133 -155.0534
	vertex 3.2005 7E-05 9E-05
endloop
endfacet
facet normal 1 0 0
outer loop
	vertex 3.2005 -129.086 90.1925
	vertex 3.2005 -144.2013 63.27608
	vertex 3.2005 7E-05 9E-05
endloop
endfacet
facet normal 1 0 0
outer loop
	vertex 3.2005 27.50133 -155.0534
	vertex 3.2005 57.22227 -146.7089
	vertex 3.2005 7E-05 9E-05
endloop
endfacet
facet normal 1 0 0
outer loop
	vertex 3.2005 -109.01 113.6429
	vertex 3.2005 -129.086 90.1925
	vertex 3.2005 7E-05 9E-05
endloop
endfacet
facet normal 1 0 0
outer loop
	vertex 3.2005 57.22227 -146.7089
	vertex 3.2005 84.7442 -132.7264
	vertex 3.2005 7E-05 9E-05
endloop
endfacet
facet normal 1 0 0
outer loop
	vertex 3.2005 -84.74489 132.726
	vertex 3.2005 -109.01 113.6429
	vertex 3.2005 7E-05 9E-05
endloop
endfacet
facet normal 1 0 0
outer loop
	vertex 3.2005 84.7442 -132.7264
	vertex 3.2005 109.0095 -113.6434
	vertex 3.2005 7E-05 9E-05
endloop
endfacet
facet normal 1 0 0
outer loop
	vertex 3.2005 -57.22305 146.7087
	vertex 3.2005 -84.74489 132.726
	vertex 3.2005 7E-05 9E-05
endloop
endfacet
facet normal 1 0 0
outer loop
	vertex 3.2005 109.0095 -113.6434
	vertex 3.2005 129.0856 -90.19314
	vertex 3.2005 7E-05 9E-05
endloop
endfacet
facet normal 1 0 0
outer loop
	vertex 3.2005 -27.50216 155.0534
	vertex 3.2005 -57.22305 146.7087
	vertex 3.2005 7E-05 9E-05
endloop
endfacet
facet normal 1 0 0
outer loop
	vertex 3.2005 129.0856 -90.19314
	vertex 3.2005 144.2011 -63.27682
	vertex 3.2005 7E-05 9E-05
endloop
endfacet
facet normal 1 0 0
outer loop
	vertex 3.2005 3.27562 157.4395
	vertex 3.2005 -27.50216 155.0534
	vertex 3.2005 7E-05 9E-05
endloop
endfacet
facet normal 1 0 0
outer loop
	vertex 3.2005 144.2011 -63.27682
	vertex 3.2005 153.775 -33.92882
	vertex 3.2005 7E-05 9E-05
endloop
endfacet
facet normal 1 0 0
outer loop
	vertex 3.2005 33.92752 153.7753
	vertex 3.2005 3.27562 157.4395
	vertex 3.2005 7E-05 9E-05
endloop
endfacet
facet normal 1 0 0
outer loop
	vertex 3.2005 153.775 -33.92882
	vertex 3.2005 157.4394 -3.27695
	vertex 3.2005 7E-05 9E-05
endloop
endfacet
facet normal 1 0 0
outer loop
	vertex 3.2005 63.27562 144.2017
	vertex 3.2005 33.92752 153.7753
	vertex 3.2005 7E-05 9E-05
endloop
endfacet
facet normal 1 0 0
outer loop
	vertex 3.2005 157.4394 -3.27695
	vertex 3.2005 155.0536 27.50092
	vertex 3.2005 7E-05 9E-05
endloop
endfacet
facet normal 1 0 0
outer loop
	vertex 3.2005 90.19209 129.0865
	vertex 3.2005 63.27562 144.2017
	vertex 3.2005 7E-05 9E-05
endloop
endfacet
facet normal 1 0 0
outer loop
	vertex 3.2005 155.0536 27.50092
	vertex 3.2005 146.7092 57.22196
	vertex 3.2005 7E-05 9E-05
endloop
endfacet
facet normal 1 0 0
outer loop
	vertex 3.2005 113.6437 109.0094
	vertex 3.2005 90.19209 129.0865
	vertex 3.2005 7E-05 9E-05
endloop
endfacet
facet normal 1 0 0
outer loop
	vertex 3.2005 146.7092 57.22196
	vertex 3.2005 132.7267 84.74399
	vertex 3.2005 7E-05 9E-05
endloop
endfacet
facet normal 1 0 0
outer loop
	vertex 3.2005 132.7267 84.74399
	vertex 3.2005 113.6437 109.0094
	vertex 3.2005 7E-05 9E-05
endloop
endfacet
facet normal -1 0 0
outer loop
	vertex -3.2005 -113.6434 -109.0093
	vertex -3.2005 -132.7265 -84.74397
	vertex -3.2005 7E-05 9E-05
endloop
endfacet
facet normal -1 0 0
outer loop
	vertex -3.2005 -132.7265 -84.74397
	vertex -3.2005 -146.7089 -57.22197
	vertex -3.2005 7E-05 9E-05
endloop
endfacet
facet normal -1 0 0
outer loop
	vertex -3.2005 -90.19308 -129.0854
	vertex -3.2005 -113.6434 -109.0093
	vertex -3.2005 7E-05 9E-05
endloop
endfacet
facet normal -1 0 0
outer loop
	vertex -3.2005 -146.7089 -57.22197
	vertex -3.2005 -155.0534 -27.50094
	vertex -3.2005 7E-05 9E-05
endloop
endfacet
facet normal -1 0 0
outer loop
	vertex -3.2005 -63.2767 -144.201
	vertex -3.2005 -90.19308 -129.0854
	vertex -3.2005 7E-05 9E-05
endloop
endfacet
facet normal -1 0 0
outer loop
	vertex -3.2005 -155.0534 -27.50094
	vertex -3.2005 -157.4393 3.27693
	vertex -3.2005 7E-05 9E-05
endloop
endfacet
facet normal -1 0 0
outer loop
	vertex -3.2005 -33.92861 -153.7749
	vertex -3.2005 -63.2767 -144.201
	vertex -3.2005 7E-05 9E-05
endloop
endfacet
facet normal -1 0 0
outer loop
	vertex -3.2005 -157.4393 3.27693
	vertex -3.2005 -153.7749 33.92887
	vertex -3.2005 7E-05 9E-05
endloop
endfacet
facet normal -1 0 0
outer loop
	vertex -3.2005 -3.27666 -157.4393
	vertex -3.2005 -33.92861 -153.7749
	vertex -3.2005 7E-05 9E-05
endloop
endfacet
facet normal -1 0 0
outer loop
	vertex -3.2005 -153.7749 33.92887
	vertex -3.2005 -144.2009 63.27695
	vertex -3.2005 7E-05 9E-05
endloop
endfacet
facet normal -1 0 0
outer loop
	vertex -3.2005 27.50121 -155.0534
	vertex -3.2005 -3.27666 -157.4393
	vertex -3.2005 7E-05 9E-05
endloop
endfacet
facet normal -1 0 0
outer loop
	vertex -3.2005 -144.2009 63.27695
	vertex -3.2005 -129.0854 90.19334
	vertex -3.2005 7E-05 9E-05
endloop
endfacet
facet normal -1 0 0
outer loop
	vertex -3.2005 57.22223 -146.7089
	vertex -3.2005 27.50121 -155.0534
	vertex -3.2005 7E-05 9E-05
endloop
endfacet
facet normal -1 0 0
outer loop
	vertex -3.2005 -129.0854 90.19334
	vertex -3.2005 -109.0092 113.6436
	vertex -3.2005 7E-05 9E-05
endloop
endfacet
facet normal -1 0 0
outer loop
	vertex -3.2005 84.74422 -132.7264
	vertex -3.2005 57.22223 -146.7089
	vertex -3.2005 7E-05 9E-05
endloop
endfacet
facet normal -1 0 0
outer loop
	vertex -3.2005 -109.0092 113.6436
	vertex -3.2005 -84.7439 132.7267
	vertex -3.2005 7E-05 9E-05
endloop
endfacet
facet normal -1 0 0
outer loop
	vertex -3.2005 109.0096 -113.6433
	vertex -3.2005 84.74422 -132.7264
	vertex -3.2005 7E-05 9E-05
endloop
endfacet
facet normal -1 0 0
outer loop
	vertex -3.2005 -84.7439 132.7267
	vertex -3.2005 -57.22189 146.7091
	vertex -3.2005 7E-05 9E-05
endloop
endfacet
facet normal -1 0 0
outer loop
	vertex -3.2005 129.0857 -90.19299
	vertex -3.2005 109.0096 -113.6433
	vertex -3.2005 7E-05 9E-05
endloop
endfacet
facet normal -1 0 0
outer loop
	vertex -3.2005 -57.22189 146.7091
	vertex -3.2005 -27.50086 155.0536
	vertex -3.2005 7E-05 9E-05
endloop
endfacet
facet normal -1 0 0
outer loop
	vertex -3.2005 144.2012 -63.27659
	vertex -3.2005 129.0857 -90.19299
	vertex -3.2005 7E-05 9E-05
endloop
endfacet
facet normal -1 0 0
outer loop
	vertex -3.2005 -27.50086 155.0536
	vertex -3.2005 3.27702 157.4395
	vertex -3.2005 7E-05 9E-05
endloop
endfacet
facet normal -1 0 0
outer loop
	vertex -3.2005 153.775 -33.92852
	vertex -3.2005 144.2012 -63.27659
	vertex -3.2005 7E-05 9E-05
endloop
endfacet
facet normal -1 0 0
outer loop
	vertex -3.2005 3.27702 157.4395
	vertex -3.2005 33.92896 153.775
	vertex -3.2005 7E-05 9E-05
endloop
endfacet
facet normal -1 0 0
outer loop
	vertex -3.2005 157.4394 -3.27658
	vertex -3.2005 153.775 -33.92852
	vertex -3.2005 7E-05 9E-05
endloop
endfacet
facet normal -1 0 0
outer loop
	vertex -3.2005 33.92896 153.775
	vertex -3.2005 63.27703 144.2011
	vertex -3.2005 7E-05 9E-05
endloop
endfacet
facet normal -1 0 0
outer loop
	vertex -3.2005 155.0535 27.50126
	vertex -3.2005 157.4394 -3.27658
	vertex -3.2005 7E-05 9E-05
endloop
endfacet
facet normal -1 0 0
outer loop
	vertex -3.2005 63.27703 144.2011
	vertex -3.2005 90.19342 129.0855
	vertex -3.2005 7E-05 9E-05
endloop
endfacet
facet normal -1 0 0
outer loop
	vertex -3.2005 146.709 57.22226
	vertex -3.2005 155.0535 27.50126
	vertex -3.2005 7E-05 9E-05
endloop
endfacet
facet normal -1 0 0
outer loop
	vertex -3.2005 113.6435 109.0096
	vertex -3.2005 7E-05 9E-05
	vertex -3.2005 90.19342 129.0855
endloop
endfacet
facet normal -1 0 0
outer loop
	vertex -3.2005 132.7265 84.74424
	vertex -3.2005 146.709 57.22226
	vertex -3.2005 7E-05 9E-05
endloop
endfacet
facet normal -1 0 0
outer loop
	vertex -3.2005 113.6435 109.0096
	vertex -3.2005 132.7265 84.74424
	vertex -3.2005 7E-05 9E-05
endloop
endfacet
facet normal 0 0.6503416 0.7596418
outer loop
	vertex 3.2005 90.19209 129.0865
	vertex 3.2005 113.6437 109.0094
	vertex -3.2005 90.19342 129.0855
endloop
endfacet
facet normal 0 0.6503416 0.7596418
outer loop
	vertex -3.2005 113.6435 109.0096
	vertex -3.2005 90.19342 129.0855
	vertex 3.2005 113.6437 109.0094
endloop
endfacet
facet normal 0 0.489642 0.8719236
outer loop
	vertex -3.2005 90.19342 129.0855
	vertex -3.2005 63.27703 144.2011
	vertex 3.2005 90.19209 129.0865
endloop
endfacet
facet normal 0 0.489642 0.8719236
outer loop
	vertex 3.2005 63.27562 144.2017
	vertex 3.2005 90.19209 129.0865
	vertex -3.2005 63.27703 144.2011
endloop
endfacet
facet normal 0 0.3101313 0.9506938
outer loop
	vertex -3.2005 63.27703 144.2011
	vertex -3.2005 33.92896 153.775
	vertex 3.2005 63.27562 144.2017
endloop
endfacet
facet normal 0 0.3101313 0.9506938
outer loop
	vertex 3.2005 33.92752 153.7753
	vertex 3.2005 63.27562 144.2017
	vertex -3.2005 33.92896 153.775
endloop
endfacet
facet normal 0 0.1187 0.9929302
outer loop
	vertex -3.2005 33.92896 153.775
	vertex -3.2005 3.27702 157.4395
	vertex 3.2005 33.92752 153.7753
endloop
endfacet
facet normal 0 0.1187 0.9929302
outer loop
	vertex 3.2005 3.27562 157.4395
	vertex 3.2005 33.92752 153.7753
	vertex -3.2005 3.27702 157.4395
endloop
endfacet
facet normal 0 -0.0772899 0.9970087
outer loop
	vertex -3.2005 3.27702 157.4395
	vertex -3.2005 -27.50086 155.0536
	vertex 3.2005 3.27562 157.4395
endloop
endfacet
facet normal 0 -0.0772899 0.9970087
outer loop
	vertex 3.2005 -27.50216 155.0534
	vertex 3.2005 3.27562 157.4395
	vertex -3.2005 -27.50086 155.0536
endloop
endfacet
facet normal 0 -0.2703109 0.9627731
outer loop
	vertex -3.2005 -27.50086 155.0536
	vertex -3.2005 -57.22189 146.7091
	vertex 3.2005 -27.50216 155.0534
endloop
endfacet
facet normal 0 -0.2703109 0.9627731
outer loop
	vertex 3.2005 -57.22305 146.7087
	vertex 3.2005 -27.50216 155.0534
	vertex -3.2005 -57.22189 146.7091
endloop
endfacet
facet normal 0 -0.4529483 0.8915367
outer loop
	vertex -3.2005 -57.22189 146.7091
	vertex -3.2005 -84.7439 132.7267
	vertex 3.2005 -57.22305 146.7087
endloop
endfacet
facet normal 0 -0.4529483 0.8915367
outer loop
	vertex 3.2005 -84.74489 132.726
	vertex 3.2005 -57.22305 146.7087
	vertex -3.2005 -84.7439 132.7267
endloop
endfacet
facet normal 0 -0.6181722 0.7860427
outer loop
	vertex -3.2005 -84.7439 132.7267
	vertex -3.2005 -109.0092 113.6436
	vertex 3.2005 -84.74489 132.726
endloop
endfacet
facet normal 0 -0.6181722 0.7860427
outer loop
	vertex 3.2005 -109.01 113.6429
	vertex 3.2005 -84.74489 132.726
	vertex -3.2005 -109.0092 113.6436
endloop
endfacet
facet normal 0 -0.7596418 0.6503416
outer loop
	vertex -3.2005 -109.0092 113.6436
	vertex -3.2005 -129.0854 90.19334
	vertex 3.2005 -109.01 113.6429
endloop
endfacet
facet normal 0 -0.7596418 0.6503416
outer loop
	vertex 3.2005 -129.086 90.1925
	vertex 3.2005 -109.01 113.6429
	vertex -3.2005 -129.0854 90.19334
endloop
endfacet
facet normal 0 -0.8719236 0.489642
outer loop
	vertex -3.2005 -129.0854 90.19334
	vertex -3.2005 -144.2009 63.27695
	vertex 3.2005 -129.086 90.1925
endloop
endfacet
facet normal 0 -0.8719236 0.489642
outer loop
	vertex 3.2005 -144.2013 63.27608
	vertex 3.2005 -129.086 90.1925
	vertex -3.2005 -144.2009 63.27695
endloop
endfacet
facet normal 0 -0.9506938 0.3101313
outer loop
	vertex -3.2005 -144.2009 63.27695
	vertex -3.2005 -153.7749 33.92887
	vertex 3.2005 -144.2013 63.27608
endloop
endfacet
facet normal 0 -0.9506938 0.3101313
outer loop
	vertex 3.2005 -153.775 33.92802
	vertex 3.2005 -144.2013 63.27608
	vertex -3.2005 -153.7749 33.92887
endloop
endfacet
facet normal 0 -0.9929302 0.1187
outer loop
	vertex -3.2005 -153.7749 33.92887
	vertex -3.2005 -157.4393 3.27693
	vertex 3.2005 -153.775 33.92802
endloop
endfacet
facet normal 0 -0.9929302 0.1187
outer loop
	vertex 3.2005 -157.4393 3.27613
	vertex 3.2005 -153.775 33.92802
	vertex -3.2005 -157.4393 3.27693
endloop
endfacet
facet normal 0 -0.9970087 -0.0772899
outer loop
	vertex -3.2005 -157.4393 3.27693
	vertex -3.2005 -155.0534 -27.50094
	vertex 3.2005 -157.4393 3.27613
endloop
endfacet
facet normal 0 -0.9970087 -0.0772899
outer loop
	vertex 3.2005 -155.0533 -27.50166
	vertex 3.2005 -157.4393 3.27613
	vertex -3.2005 -155.0534 -27.50094
endloop
endfacet
facet normal 0 -0.9627731 -0.2703109
outer loop
	vertex -3.2005 -155.0534 -27.50094
	vertex -3.2005 -146.7089 -57.22197
	vertex 3.2005 -155.0533 -27.50166
endloop
endfacet
facet normal 0 -0.9627731 -0.2703109
outer loop
	vertex 3.2005 -146.7087 -57.22257
	vertex 3.2005 -155.0533 -27.50166
	vertex -3.2005 -146.7089 -57.22197
endloop
endfacet
facet normal 0 -0.8915367 -0.4529483
outer loop
	vertex -3.2005 -146.7089 -57.22197
	vertex -3.2005 -132.7265 -84.74397
	vertex 3.2005 -146.7087 -57.22257
endloop
endfacet
facet normal 0 -0.8915367 -0.4529483
outer loop
	vertex 3.2005 -132.7262 -84.74445
	vertex 3.2005 -146.7087 -57.22257
	vertex -3.2005 -132.7265 -84.74397
endloop
endfacet
facet normal 0 -0.7860427 -0.6181722
outer loop
	vertex -3.2005 -132.7265 -84.74397
	vertex -3.2005 -113.6434 -109.0093
	vertex 3.2005 -132.7262 -84.74445
endloop
endfacet
facet normal 0 -0.7860427 -0.6181722
outer loop
	vertex 3.2005 -113.6431 -109.0097
	vertex 3.2005 -132.7262 -84.74445
	vertex -3.2005 -113.6434 -109.0093
endloop
endfacet
facet normal 0 -0.6503416 -0.7596418
outer loop
	vertex -3.2005 -113.6434 -109.0093
	vertex -3.2005 -90.19308 -129.0854
	vertex 3.2005 -113.6431 -109.0097
endloop
endfacet
facet normal 0 -0.6503416 -0.7596418
outer loop
	vertex 3.2005 -90.19274 -129.0857
	vertex 3.2005 -113.6431 -109.0097
	vertex -3.2005 -90.19308 -129.0854
endloop
endfacet
facet normal 0 -0.4896496 -0.8719193
outer loop
	vertex -3.2005 -90.19308 -129.0854
	vertex -3.2005 -63.2767 -144.201
	vertex 3.2005 -90.19274 -129.0857
endloop
endfacet
facet normal 0 -0.4896496 -0.8719193
outer loop
	vertex 3.2005 -63.27638 -144.2011
	vertex 3.2005 -90.19274 -129.0857
	vertex -3.2005 -63.2767 -144.201
endloop
endfacet
facet normal 0 -0.3101313 -0.9506938
outer loop
	vertex -3.2005 -63.2767 -144.201
	vertex -3.2005 -33.92861 -153.7749
	vertex 3.2005 -63.27638 -144.2011
endloop
endfacet
facet normal 0 -0.3101313 -0.9506938
outer loop
	vertex 3.2005 -33.92834 -153.7749
	vertex 3.2005 -63.27638 -144.2011
	vertex -3.2005 -33.92861 -153.7749
endloop
endfacet
facet normal 0 -0.1187 -0.9929302
outer loop
	vertex -3.2005 -33.92861 -153.7749
	vertex -3.2005 -3.27666 -157.4393
	vertex 3.2005 -33.92834 -153.7749
endloop
endfacet
facet normal 0 -0.1187 -0.9929302
outer loop
	vertex 3.2005 -3.27647 -157.4393
	vertex 3.2005 -33.92834 -153.7749
	vertex -3.2005 -3.27666 -157.4393
endloop
endfacet
facet normal 0 0.0772899 -0.9970087
outer loop
	vertex -3.2005 -3.27666 -157.4393
	vertex -3.2005 27.50121 -155.0534
	vertex 3.2005 -3.27647 -157.4393
endloop
endfacet
facet normal 0 0.0772899 -0.9970087
outer loop
	vertex 3.2005 27.50133 -155.0534
	vertex 3.2005 -3.27647 -157.4393
	vertex -3.2005 27.50121 -155.0534
endloop
endfacet
facet normal 0 0.2703109 -0.9627731
outer loop
	vertex -3.2005 27.50121 -155.0534
	vertex -3.2005 57.22223 -146.7089
	vertex 3.2005 27.50133 -155.0534
endloop
endfacet
facet normal 0 0.2703109 -0.9627731
outer loop
	vertex 3.2005 57.22227 -146.7089
	vertex 3.2005 27.50133 -155.0534
	vertex -3.2005 57.22223 -146.7089
endloop
endfacet
facet normal 0 0.4529404 -0.8915408
outer loop
	vertex -3.2005 57.22223 -146.7089
	vertex -3.2005 84.74422 -132.7264
	vertex 3.2005 57.22227 -146.7089
endloop
endfacet
facet normal 0 0.4529404 -0.8915408
outer loop
	vertex 3.2005 84.7442 -132.7264
	vertex 3.2005 57.22227 -146.7089
	vertex -3.2005 84.74422 -132.7264
endloop
endfacet
facet normal 0 0.6181722 -0.7860427
outer loop
	vertex -3.2005 84.74422 -132.7264
	vertex -3.2005 109.0096 -113.6433
	vertex 3.2005 84.7442 -132.7264
endloop
endfacet
facet normal 0 0.6181722 -0.7860427
outer loop
	vertex 3.2005 109.0095 -113.6434
	vertex 3.2005 84.7442 -132.7264
	vertex -3.2005 109.0096 -113.6433
endloop
endfacet
facet normal 0 0.7596418 -0.6503416
outer loop
	vertex -3.2005 109.0096 -113.6433
	vertex -3.2005 129.0857 -90.19299
	vertex 3.2005 109.0095 -113.6434
endloop
endfacet
facet normal 0 0.7596418 -0.6503416
outer loop
	vertex 3.2005 129.0856 -90.19314
	vertex 3.2005 109.0095 -113.6434
	vertex -3.2005 129.0857 -90.19299
endloop
endfacet
facet normal 0 0.8719193 -0.4896496
outer loop
	vertex -3.2005 129.0857 -90.19299
	vertex -3.2005 144.2012 -63.27659
	vertex 3.2005 129.0856 -90.19314
endloop
endfacet
facet normal 0 0.8719193 -0.4896496
outer loop
	vertex 3.2005 144.2011 -63.27682
	vertex 3.2005 129.0856 -90.19314
	vertex -3.2005 144.2012 -63.27659
endloop
endfacet
facet normal 0 0.9506938 -0.3101313
outer loop
	vertex -3.2005 144.2012 -63.27659
	vertex -3.2005 153.775 -33.92852
	vertex 3.2005 144.2011 -63.27682
endloop
endfacet
facet normal 0 0.9506938 -0.3101313
outer loop
	vertex 3.2005 153.775 -33.92882
	vertex 3.2005 144.2011 -63.27682
	vertex -3.2005 153.775 -33.92852
endloop
endfacet
facet normal 0 0.9929302 -0.1187
outer loop
	vertex -3.2005 153.775 -33.92852
	vertex -3.2005 157.4394 -3.27658
	vertex 3.2005 153.775 -33.92882
endloop
endfacet
facet normal 0 0.9929302 -0.1187
outer loop
	vertex 3.2005 157.4394 -3.27695
	vertex 3.2005 153.775 -33.92882
	vertex -3.2005 157.4394 -3.27658
endloop
endfacet
facet normal 0 0.9970087 0.0772899
outer loop
	vertex -3.2005 157.4394 -3.27658
	vertex -3.2005 155.0535 27.50126
	vertex 3.2005 157.4394 -3.27695
endloop
endfacet
facet normal 0 0.9970087 0.0772899
outer loop
	vertex 3.2005 155.0536 27.50092
	vertex 3.2005 157.4394 -3.27695
	vertex -3.2005 155.0535 27.50126
endloop
endfacet
facet normal 0 0.9627731 0.2703109
outer loop
	vertex -3.2005 155.0535 27.50126
	vertex -3.2005 146.709 57.22226
	vertex 3.2005 155.0536 27.50092
endloop
endfacet
facet normal 0 0.9627731 0.2703109
outer loop
	vertex 3.2005 146.7092 57.22196
	vertex 3.2005 155.0536 27.50092
	vertex -3.2005 146.709 57.22226
endloop
endfacet
facet normal 0 0.8915408 0.4529404
outer loop
	vertex -3.2005 146.709 57.22226
	vertex -3.2005 132.7265 84.74424
	vertex 3.2005 146.7092 57.22196
endloop
endfacet
facet normal 0 0.8915408 0.4529404
outer loop
	vertex 3.2005 132.7267 84.74399
	vertex 3.2005 146.7092 57.22196
	vertex -3.2005 132.7265 84.74424
endloop
endfacet
facet normal 0 0.7860427 0.6181722
outer loop
	vertex -3.2005 132.7265 84.74424
	vertex -3.2005 113.6435 109.0096
	vertex 3.2005 132.7267 84.74399
endloop
endfacet
facet normal 0 0.7860427 0.6181722
outer loop
	vertex 3.2005 113.6437 109.0094
	vertex 3.2005 132.7267 84.74399
	vertex -3.2005 113.6435 109.0096
endloop
endfacet
endsolid plate_1_logo
