solid plate_0_logo
facet normal 1 0 0
outer loop
	vertex 3.2004 94.22105 147.8913
	vertex 3.2004 2.51911 96.9167
	vertex 3.2004 100.8649 145.3863
endloop
endfacet
facet normal 1 0 0
outer loop
	vertex 3.2004 2.51911 96.9167
	vertex 3.2004 94.22105 103.2367
	vertex 3.2004 100.8649 145.3863
endloop
endfacet
facet normal 1 0 0
outer loop
	vertex 3.2004 76.99986 96.91669
	vertex 3.2004 94.22105 103.2367
	vertex 3.2004 2.51911 96.9167
endloop
endfacet
facet normal 1 0 0
outer loop
	vertex 3.2004 100.8649 145.3863
	vertex 3.2004 94.22105 103.2367
	vertex 3.2004 103.1906 144.5093
endloop
endfacet
facet normal 1 0 0
outer loop
	vertex 3.2004 76.99986 96.91669
	vertex 3.2004 77.39719 96.88543
	vertex 3.2004 94.22105 103.2367
endloop
endfacet
facet normal 1 0 0
outer loop
	vertex 3.2004 77.39719 96.88543
	vertex 3.2004 77.78475 96.79239
	vertex 3.2004 94.22105 103.2367
endloop
endfacet
facet normal 1 0 0
outer loop
	vertex 3.2004 78.15299 96.63985
	vertex 3.2004 94.22105 103.2367
	vertex 3.2004 77.78475 96.79239
endloop
endfacet
facet normal 1 0 0
outer loop
	vertex 3.2004 78.15299 96.63985
	vertex 3.2004 78.49284 96.43161
	vertex 3.2004 94.22105 103.2367
endloop
endfacet
facet normal 1 0 0
outer loop
	vertex 3.2004 78.79591 96.17274
	vertex 3.2004 94.22105 103.2367
	vertex 3.2004 78.49284 96.43161
endloop
endfacet
facet normal 1 0 0
outer loop
	vertex 3.2004 78.79591 96.17274
	vertex 3.2004 79.05477 95.86967
	vertex 3.2004 94.22105 103.2367
endloop
endfacet
facet normal 1 0 0
outer loop
	vertex 3.2004 79.05477 95.86967
	vertex 3.2004 79.26301 95.52984
	vertex 3.2004 94.22105 103.2367
endloop
endfacet
facet normal 1 0 0
outer loop
	vertex 3.2004 103.1906 144.5093
	vertex 3.2004 94.22105 103.2367
	vertex 3.2004 116.7509 137.8493
endloop
endfacet
facet normal 1 0 0
outer loop
	vertex 3.2004 79.41553 95.16161
	vertex 3.2004 94.22105 103.2367
	vertex 3.2004 79.26301 95.52984
endloop
endfacet
facet normal 1 0 0
outer loop
	vertex 3.2004 116.7509 137.8493
	vertex 3.2004 94.22105 103.2367
	vertex 3.2004 116.7509 121.4294
endloop
endfacet
facet normal 1 0 0
outer loop
	vertex 3.2004 79.41553 95.16161
	vertex 3.2004 79.50858 94.77406
	vertex 3.2004 94.22105 103.2367
endloop
endfacet
facet normal 1 0 0
outer loop
	vertex 3.2004 116.7509 121.4294
	vertex 3.2004 94.22105 103.2367
	vertex 3.2004 116.7509 103.2367
endloop
endfacet
facet normal 1 0 0
outer loop
	vertex 3.2004 79.50858 94.77406
	vertex 3.2004 79.53986 94.3767
	vertex 3.2004 94.22105 103.2367
endloop
endfacet
facet normal 1 0 0
outer loop
	vertex 3.2004 116.7508 -103.2561
	vertex 3.2004 116.7509 103.2367
	vertex 3.2004 94.22105 103.2367
endloop
endfacet
facet normal 1 0 0
outer loop
	vertex 3.2004 94.22102 -103.2561
	vertex 3.2004 94.22105 103.2367
	vertex 3.2004 79.53986 94.3767
endloop
endfacet
facet normal 1 0 0
outer loop
	vertex 3.2004 94.22102 -103.2561
	vertex 3.2004 116.7508 -103.2561
	vertex 3.2004 94.22105 103.2367
endloop
endfacet
facet normal 1 0 0
outer loop
	vertex 3.2004 79.53983 -94.3961
	vertex 3.2004 94.22102 -103.2561
	vertex 3.2004 79.53986 94.3767
endloop
endfacet
facet normal 1 0 0
outer loop
	vertex 3.2004 116.7508 -103.2561
	vertex 3.2004 94.22102 -103.2561
	vertex 3.2004 116.7508 -121.4488
endloop
endfacet
facet normal 1 0 0
outer loop
	vertex 3.2004 79.53983 -94.3961
	vertex 3.2004 79.50855 -94.79345
	vertex 3.2004 94.22102 -103.2561
endloop
endfacet
facet normal 1 0 0
outer loop
	vertex 3.2004 79.50855 -94.79345
	vertex 3.2004 79.4155 -95.18102
	vertex 3.2004 94.22102 -103.2561
endloop
endfacet
facet normal 1 0 0
outer loop
	vertex 3.2004 79.26298 -95.54926
	vertex 3.2004 94.22102 -103.2561
	vertex 3.2004 79.4155 -95.18102
endloop
endfacet
facet normal 1 0 0
outer loop
	vertex 3.2004 79.26298 -95.54926
	vertex 3.2004 79.05474 -95.88907
	vertex 3.2004 94.22102 -103.2561
endloop
endfacet
facet normal 1 0 0
outer loop
	vertex 3.2004 78.79588 -96.19216
	vertex 3.2004 94.22102 -103.2561
	vertex 3.2004 79.05474 -95.88907
endloop
endfacet
facet normal 1 0 0
outer loop
	vertex 3.2004 78.79588 -96.19216
	vertex 3.2004 78.49281 -96.45099
	vertex 3.2004 94.22102 -103.2561
endloop
endfacet
facet normal 1 0 0
outer loop
	vertex 3.2004 116.7508 -137.8687
	vertex 3.2004 116.7508 -121.4488
	vertex 3.2004 94.22102 -103.2561
endloop
endfacet
facet normal 1 0 0
outer loop
	vertex 3.2004 78.49281 -96.45099
	vertex 3.2004 78.15296 -96.65926
	vertex 3.2004 94.22102 -103.2561
endloop
endfacet
facet normal 1 0 0
outer loop
	vertex 3.2004 116.7508 -137.8687
	vertex 3.2004 94.22102 -103.2561
	vertex 3.2004 103.3226 -144.4715
endloop
endfacet
facet normal 1 0 0
outer loop
	vertex 3.2004 77.78472 -96.81179
	vertex 3.2004 94.22102 -103.2561
	vertex 3.2004 78.15296 -96.65926
endloop
endfacet
facet normal 1 0 0
outer loop
	vertex 3.2004 103.3226 -144.4715
	vertex 3.2004 94.22102 -103.2561
	vertex 3.2004 94.22102 -147.9175
endloop
endfacet
facet normal 1 0 0
outer loop
	vertex 3.2004 77.78472 -96.81179
	vertex 3.2004 77.39716 -96.90484
	vertex 3.2004 94.22102 -103.2561
endloop
endfacet
facet normal 1 0 0
outer loop
	vertex 3.2004 94.22102 -103.2561
	vertex 3.2004 89.32835 -149.7699
	vertex 3.2004 94.22102 -147.9175
endloop
endfacet
facet normal 1 0 0
outer loop
	vertex 3.2004 77.39716 -96.90484
	vertex 3.2004 76.99982 -96.93609
	vertex 3.2004 94.22102 -103.2561
endloop
endfacet
facet normal 1 0 0
outer loop
	vertex 3.2004 89.32835 -149.7699
	vertex 3.2004 94.22102 -103.2561
	vertex 3.2004 74.89437 -153.7162
endloop
endfacet
facet normal 1 0 0
outer loop
	vertex 3.2004 94.22102 -103.2561
	vertex 3.2004 76.99982 -96.93609
	vertex 3.2004 61.03275 -96.93607
endloop
endfacet
facet normal 1 0 0
outer loop
	vertex 3.2004 74.89437 -153.7162
	vertex 3.2004 94.22102 -103.2561
	vertex 3.2004 61.03275 -96.93607
endloop
endfacet
facet normal 1 0 0
outer loop
	vertex 3.2004 61.03275 -96.93607
	vertex 3.2004 60.59187 -156.1982
	vertex 3.2004 74.89437 -153.7162
endloop
endfacet
facet normal 1 0 0
outer loop
	vertex 3.2004 60.59187 -156.1982
	vertex 3.2004 61.03275 -96.93607
	vertex 3.2004 45.23133 -157.4224
endloop
endfacet
facet normal 1 0 0
outer loop
	vertex 3.2004 61.03275 -96.93607
	vertex 3.2004 30.2701 -157.1488
	vertex 3.2004 45.23133 -157.4224
endloop
endfacet
facet normal 1 0 0
outer loop
	vertex 3.2004 61.03275 -96.93607
	vertex 3.2004 15.47785 -96.93607
	vertex 3.2004 30.2701 -157.1488
endloop
endfacet
facet normal 1 0 0
outer loop
	vertex 3.2004 15.47785 -96.93607
	vertex 3.2004 15.44012 -155.4607
	vertex 3.2004 30.2701 -157.1488
endloop
endfacet
facet normal 1 0 0
outer loop
	vertex 3.2004 0.76242 -152.3604
	vertex 3.2004 15.44012 -155.4607
	vertex 3.2004 15.47785 -96.93607
endloop
endfacet
facet normal 1 0 0
outer loop
	vertex 3.2004 -13.51762 -147.889
	vertex 3.2004 0.76242 -152.3604
	vertex 3.2004 15.47785 -96.93607
endloop
endfacet
facet normal 1 0 0
outer loop
	vertex 3.2004 -19.44716 -145.3925
	vertex 3.2004 -13.51762 -147.889
	vertex 3.2004 15.47785 -96.93607
endloop
endfacet
facet normal 1 0 0
outer loop
	vertex 3.2004 -27.3088 -142.0825
	vertex 3.2004 -19.44716 -145.3925
	vertex 3.2004 15.47785 -96.93607
endloop
endfacet
facet normal 1 0 0
outer loop
	vertex 3.2004 -26.64475 -140.4799
	vertex 3.2004 -27.3088 -142.0825
	vertex 3.2004 15.47785 -96.93607
endloop
endfacet
facet normal 1 0 0
outer loop
	vertex 3.2004 -26.263 -138.7877
	vertex 3.2004 -26.64475 -140.4799
	vertex 3.2004 15.47785 -96.93607
endloop
endfacet
facet normal 1 0 0
outer loop
	vertex 3.2004 -26.17469 -137.0552
	vertex 3.2004 -26.263 -138.7877
	vertex 3.2004 15.47785 -96.93607
endloop
endfacet
facet normal 1 0 0
outer loop
	vertex 3.2004 -26.38239 -135.3329
	vertex 3.2004 -26.17469 -137.0552
	vertex 3.2004 15.47785 -96.93607
endloop
endfacet
facet normal 1 0 0
outer loop
	vertex 3.2004 -26.38239 -135.3329
	vertex 3.2004 15.47785 -96.93607
	vertex 3.2004 -19.44715 -96.93607
endloop
endfacet
facet normal 1 0 0
outer loop
	vertex 3.2004 -19.44715 -96.93607
	vertex 3.2004 -26.88004 -133.6712
	vertex 3.2004 -26.38239 -135.3329
endloop
endfacet
facet normal 1 0 0
outer loop
	vertex 3.2004 -27.65314 -132.1182
	vertex 3.2004 -26.88004 -133.6712
	vertex 3.2004 -19.44715 -96.93607
endloop
endfacet
facet normal 1 0 0
outer loop
	vertex 3.2004 -28.67915 -130.7195
	vertex 3.2004 -27.65314 -132.1182
	vertex 3.2004 -19.44715 -96.93607
endloop
endfacet
facet normal 1 0 0
outer loop
	vertex 3.2004 -28.67915 -130.7195
	vertex 3.2004 -19.44715 -96.93607
	vertex 3.2004 -29.92815 -129.5156
endloop
endfacet
facet normal 1 0 0
outer loop
	vertex 3.2004 -31.36374 -128.5418
	vertex 3.2004 -29.92815 -129.5156
	vertex 3.2004 -19.44715 -96.93607
endloop
endfacet
facet normal 1 0 0
outer loop
	vertex 3.2004 -32.94408 -127.8264
	vertex 3.2004 -31.36374 -128.5418
	vertex 3.2004 -19.44715 -96.93607
endloop
endfacet
facet normal 1 0 0
outer loop
	vertex 3.2004 -32.94408 -127.8264
	vertex 3.2004 -19.44715 -96.93607
	vertex 3.2004 -34.62307 -127.3903
endloop
endfacet
facet normal 1 0 0
outer loop
	vertex 3.2004 -36.35179 -127.2461
	vertex 3.2004 -34.62307 -127.3903
	vertex 3.2004 -19.44715 -96.93607
endloop
endfacet
facet normal 1 0 0
outer loop
	vertex 3.2004 -36.35179 -127.2461
	vertex 3.2004 -19.44715 -96.93607
	vertex 3.2004 -46.9871 -96.93607
endloop
endfacet
facet normal 1 0 0
outer loop
	vertex 3.2004 -38.07983 -127.3981
	vertex 3.2004 -36.35179 -127.2461
	vertex 3.2004 -46.9871 -96.93607
endloop
endfacet
facet normal 1 0 0
outer loop
	vertex 3.2004 -38.07983 -127.3981
	vertex 3.2004 -46.9871 -96.93607
	vertex 3.2004 -39.75683 -127.8419
endloop
endfacet
facet normal 1 0 0
outer loop
	vertex 3.2004 -46.9871 -96.93607
	vertex 3.2004 -41.33388 -128.5645
	vertex 3.2004 -39.75683 -127.8419
endloop
endfacet
facet normal 1 0 0
outer loop
	vertex 3.2004 -46.9871 -96.93607
	vertex 3.2004 -42.76502 -129.5449
	vertex 3.2004 -41.33388 -128.5645
endloop
endfacet
facet normal 1 0 0
outer loop
	vertex 3.2004 -44.00853 -130.7544
	vertex 3.2004 -42.76502 -129.5449
	vertex 3.2004 -46.9871 -96.93607
endloop
endfacet
facet normal 1 0 0
outer loop
	vertex 3.2004 -45.02814 -132.1579
	vertex 3.2004 -44.00853 -130.7544
	vertex 3.2004 -46.9871 -96.93607
endloop
endfacet
facet normal 1 0 0
outer loop
	vertex 3.2004 -45.02814 -132.1579
	vertex 3.2004 -46.9871 -96.93607
	vertex 3.2004 -46.98711 -130.7502
endloop
endfacet
facet normal 1 0 0
outer loop
	vertex 3.2004 -46.98711 -130.7502
	vertex 3.2004 -46.9871 -96.93607
	vertex 3.2004 -57.29673 -123.3421
endloop
endfacet
facet normal 1 0 0
outer loop
	vertex 3.2004 -57.29673 -123.3421
	vertex 3.2004 -46.9871 -96.93607
	vertex 3.2004 -59.45957 -121.4488
endloop
endfacet
facet normal 1 0 0
outer loop
	vertex 3.2004 -46.9871 -96.93607
	vertex 3.2004 -68.6641 -113.3913
	vertex 3.2004 -59.45957 -121.4488
endloop
endfacet
facet normal 1 0 0
outer loop
	vertex 3.2004 -46.9871 -96.93607
	vertex 3.2004 -78.62091 -102.8266
	vertex 3.2004 -68.6641 -113.3913
endloop
endfacet
facet normal 1 0 0
outer loop
	vertex 3.2004 -60.31257 -96.93607
	vertex 3.2004 -78.62091 -102.8266
	vertex 3.2004 -46.9871 -96.93607
endloop
endfacet
facet normal 1 0 0
outer loop
	vertex 3.2004 -60.31257 -96.93607
	vertex 3.2004 -60.70992 -96.90482
	vertex 3.2004 -78.62091 -102.8266
endloop
endfacet
facet normal 1 0 0
outer loop
	vertex 3.2004 -60.70992 -96.90482
	vertex 3.2004 -61.09748 -96.81176
	vertex 3.2004 -78.62091 -102.8266
endloop
endfacet
facet normal 1 0 0
outer loop
	vertex 3.2004 -61.46571 -96.65923
	vertex 3.2004 -78.62091 -102.8266
	vertex 3.2004 -61.09748 -96.81176
endloop
endfacet
facet normal 1 0 0
outer loop
	vertex 3.2004 -61.46571 -96.65923
	vertex 3.2004 -61.80554 -96.45097
	vertex 3.2004 -78.62091 -102.8266
endloop
endfacet
facet normal 1 0 0
outer loop
	vertex 3.2004 -61.80554 -96.45097
	vertex 3.2004 -62.10863 -96.19213
	vertex 3.2004 -78.62091 -102.8266
endloop
endfacet
facet normal 1 0 0
outer loop
	vertex 3.2004 2.51911 96.9167
	vertex 3.2004 94.22105 147.8913
	vertex 3.2004 89.0546 149.8393
endloop
endfacet
facet normal 1 0 0
outer loop
	vertex 3.2004 -62.36747 -95.88905
	vertex 3.2004 -78.62091 -102.8266
	vertex 3.2004 -62.10863 -96.19213
endloop
endfacet
facet normal 1 0 0
outer loop
	vertex 3.2004 -62.36747 -95.88905
	vertex 3.2004 -62.57573 -95.54921
	vertex 3.2004 -78.62091 -102.8266
endloop
endfacet
facet normal 1 0 0
outer loop
	vertex 3.2004 -78.62091 -102.8266
	vertex 3.2004 -62.57573 -95.54921
	vertex 3.2004 -62.72825 -95.18097
endloop
endfacet
facet normal 1 0 0
outer loop
	vertex 3.2004 -78.62091 -102.8266
	vertex 3.2004 -62.72825 -95.18097
	vertex 3.2004 -62.8213 -94.79342
endloop
endfacet
facet normal 1 0 0
outer loop
	vertex 3.2004 -62.8213 -94.79342
	vertex 3.2004 -62.85257 -94.39606
	vertex 3.2004 -78.62091 -102.8266
endloop
endfacet
facet normal 1 0 0
outer loop
	vertex 3.2004 2.51911 96.9167
	vertex 3.2004 89.0546 149.8393
	vertex 3.2004 74.47289 153.7902
endloop
endfacet
facet normal 1 0 0
outer loop
	vertex 3.2004 -78.62091 -102.8266
	vertex 3.2004 -62.85257 -94.39606
	vertex 3.2004 -88.28606 -90.46056
endloop
endfacet
facet normal 1 0 0
outer loop
	vertex 3.2004 61.03278 156.0783
	vertex 3.2004 2.51911 96.9167
	vertex 3.2004 74.47289 153.7902
endloop
endfacet
facet normal 1 0 0
outer loop
	vertex 3.2004 -96.36006 -77.69164
	vertex 3.2004 -88.28606 -90.46056
	vertex 3.2004 -62.85257 -94.39606
endloop
endfacet
facet normal 1 0 0
outer loop
	vertex 3.2004 -96.36006 -77.69164
	vertex 3.2004 -62.85257 -94.39606
	vertex 3.2004 -62.85256 -0.00967
endloop
endfacet
facet normal 1 0 0
outer loop
	vertex 3.2004 61.03278 156.0783
	vertex 3.2004 59.57972 156.3257
	vertex 3.2004 2.51911 96.9167
endloop
endfacet
facet normal 1 0 0
outer loop
	vertex 3.2004 -103.1734 -64.20777
	vertex 3.2004 -96.36006 -77.69164
	vertex 3.2004 -62.85256 -0.00967
endloop
endfacet
facet normal 1 0 0
outer loop
	vertex 3.2004 -108.6633 -50.13309
	vertex 3.2004 -103.1734 -64.20777
	vertex 3.2004 -62.85256 -0.00967
endloop
endfacet
facet normal 1 0 0
outer loop
	vertex 3.2004 -112.7792 -35.59713
	vertex 3.2004 -108.6633 -50.13309
	vertex 3.2004 -62.85256 -0.00967
endloop
endfacet
facet normal 1 0 0
outer loop
	vertex 3.2004 2.51911 96.9167
	vertex 3.2004 59.57972 156.3257
	vertex 3.2004 44.51212 157.4224
endloop
endfacet
facet normal 1 0 0
outer loop
	vertex 3.2004 2.51911 96.9167
	vertex 3.2004 44.51212 157.4224
	vertex 3.2004 29.40876 157.0702
endloop
endfacet
facet normal 1 0 0
outer loop
	vertex 3.2004 2.51911 96.9167
	vertex 3.2004 29.40876 157.0702
	vertex 3.2004 15.47788 155.4006
endloop
endfacet
facet normal 1 0 0
outer loop
	vertex 3.2004 15.47788 155.4006
	vertex 3.2004 14.40864 155.2725
	vertex 3.2004 2.51911 96.9167
endloop
endfacet
facet normal 1 0 0
outer loop
	vertex 3.2004 14.40864 155.2725
	vertex 3.2004 -0.35018 152.0456
	vertex 3.2004 2.51911 96.9167
endloop
endfacet
facet normal 1 0 0
outer loop
	vertex 3.2004 -115.4834 -20.73365
	vertex 3.2004 -112.7792 -35.59713
	vertex 3.2004 -62.85256 -0.00967
endloop
endfacet
facet normal 1 0 0
outer loop
	vertex 3.2004 -0.35018 152.0456
	vertex 3.2004 -14.73189 147.4194
	vertex 3.2004 2.51911 96.9167
endloop
endfacet
facet normal 1 0 0
outer loop
	vertex 3.2004 -116.7509 -5.67945
	vertex 3.2004 -115.4834 -20.73365
	vertex 3.2004 -62.85256 -0.00967
endloop
endfacet
facet normal 1 0 0
outer loop
	vertex 3.2004 -19.44653 145.386
	vertex 3.2004 2.51911 96.9167
	vertex 3.2004 -14.73189 147.4194
endloop
endfacet
facet normal 1 0 0
outer loop
	vertex 3.2004 -116.57 9.42694
	vertex 3.2004 -116.7509 -5.67945
	vertex 3.2004 -62.85256 -0.00967
endloop
endfacet
facet normal 1 0 0
outer loop
	vertex 3.2004 -28.60413 141.4364
	vertex 3.2004 2.51911 96.9167
	vertex 3.2004 -19.44653 145.386
endloop
endfacet
facet normal 1 0 0
outer loop
	vertex 3.2004 -114.9424 24.44647
	vertex 3.2004 -116.57 9.42694
	vertex 3.2004 -62.85256 -0.00967
endloop
endfacet
facet normal 1 0 0
outer loop
	vertex 3.2004 -111.8831 39.24093
	vertex 3.2004 -114.9424 24.44647
	vertex 3.2004 -62.85256 -0.00967
endloop
endfacet
facet normal 1 0 0
outer loop
	vertex 3.2004 -107.4202 53.67417
	vertex 3.2004 -111.8831 39.24093
	vertex 3.2004 -62.85256 -0.00967
endloop
endfacet
facet normal 1 0 0
outer loop
	vertex 3.2004 -101.5949 67.61335
	vertex 3.2004 -107.4202 53.67417
	vertex 3.2004 -62.85256 -0.00967
endloop
endfacet
facet normal 1 0 0
outer loop
	vertex 3.2004 -94.46066 80.93019
	vertex 3.2004 -101.5949 67.61335
	vertex 3.2004 -62.85256 -0.00967
endloop
endfacet
facet normal 1 0 0
outer loop
	vertex 3.2004 -41.83923 134.1516
	vertex 3.2004 2.51911 96.9167
	vertex 3.2004 -28.60413 141.4364
endloop
endfacet
facet normal 1 0 0
outer loop
	vertex 3.2004 2.51911 96.9167
	vertex 3.2004 -41.83923 134.1516
	vertex 3.2004 -46.98707 130.6364
endloop
endfacet
facet normal 1 0 0
outer loop
	vertex 3.2004 -46.98707 130.6364
	vertex 3.2004 -54.31539 125.6322
	vertex 3.2004 2.51911 96.9167
endloop
endfacet
facet normal 1 0 0
outer loop
	vertex 3.2004 -54.31539 125.6322
	vertex 3.2004 -59.35501 121.4295
	vertex 3.2004 2.51911 96.9167
endloop
endfacet
facet normal 1 0 0
outer loop
	vertex 3.2004 2.51911 96.9167
	vertex 3.2004 -59.35501 121.4295
	vertex 3.2004 -65.91779 115.9565
endloop
endfacet
facet normal 1 0 0
outer loop
	vertex 3.2004 -86.08321 93.50214
	vertex 3.2004 -94.46066 80.93019
	vertex 3.2004 -62.85256 -0.00967
endloop
endfacet
facet normal 1 0 0
outer loop
	vertex 3.2004 -76.53964 105.2135
	vertex 3.2004 2.51911 96.9167
	vertex 3.2004 -65.91779 115.9565
endloop
endfacet
facet normal 1 0 0
outer loop
	vertex 3.2004 -86.08321 93.50214
	vertex 3.2004 -62.85256 -0.00967
	vertex 3.2004 -62.85255 94.37672
endloop
endfacet
facet normal 1 0 0
outer loop
	vertex 3.2004 -76.53964 105.2135
	vertex 3.2004 -78.15054 103.2367
	vertex 3.2004 2.51911 96.9167
endloop
endfacet
facet normal 1 0 0
outer loop
	vertex 3.2004 -62.85255 94.37672
	vertex 3.2004 -62.82128 94.77407
	vertex 3.2004 -86.08321 93.50214
endloop
endfacet
facet normal 1 0 0
outer loop
	vertex 3.2004 -62.82128 94.77407
	vertex 3.2004 -78.15054 103.2367
	vertex 3.2004 -86.08321 93.50214
endloop
endfacet
facet normal 1 0 0
outer loop
	vertex 3.2004 -78.15054 103.2367
	vertex 3.2004 -60.31255 96.91672
	vertex 3.2004 2.51911 96.9167
endloop
endfacet
facet normal 1 0 0
outer loop
	vertex 3.2004 -62.82128 94.77407
	vertex 3.2004 -62.72823 95.16162
	vertex 3.2004 -78.15054 103.2367
endloop
endfacet
facet normal 1 0 0
outer loop
	vertex 3.2004 -62.57571 95.52985
	vertex 3.2004 -78.15054 103.2367
	vertex 3.2004 -62.72823 95.16162
endloop
endfacet
facet normal 1 0 0
outer loop
	vertex 3.2004 -62.57571 95.52985
	vertex 3.2004 -62.36745 95.8697
	vertex 3.2004 -78.15054 103.2367
endloop
endfacet
facet normal 1 0 0
outer loop
	vertex 3.2004 -62.36745 95.8697
	vertex 3.2004 -62.1086 96.17277
	vertex 3.2004 -78.15054 103.2367
endloop
endfacet
facet normal 1 0 0
outer loop
	vertex 3.2004 -61.80552 96.43163
	vertex 3.2004 -78.15054 103.2367
	vertex 3.2004 -62.1086 96.17277
endloop
endfacet
facet normal 1 0 0
outer loop
	vertex 3.2004 -61.80552 96.43163
	vertex 3.2004 -61.46569 96.63988
	vertex 3.2004 -78.15054 103.2367
endloop
endfacet
facet normal 1 0 0
outer loop
	vertex 3.2004 -78.15054 103.2367
	vertex 3.2004 -60.70989 96.88544
	vertex 3.2004 -60.31255 96.91672
endloop
endfacet
facet normal 1 0 0
outer loop
	vertex 3.2004 -61.46569 96.63988
	vertex 3.2004 -61.09745 96.7924
	vertex 3.2004 -78.15054 103.2367
endloop
endfacet
facet normal 1 0 0
outer loop
	vertex 3.2004 -60.70989 96.88544
	vertex 3.2004 -78.15054 103.2367
	vertex 3.2004 -61.09745 96.7924
endloop
endfacet
facet normal 0 1 0
outer loop
	vertex 3.2004 -62.85255 94.37672
	vertex 3.2004 -62.85256 -0.00967
	vertex -3.2004 -62.85255 94.37672
endloop
endfacet
facet normal 0 1 0
outer loop
	vertex 3.2004 -62.85256 -0.00967
	vertex 3.2004 -62.85257 -94.39606
	vertex -3.2004 -62.85255 94.37672
endloop
endfacet
facet normal 0 1 0
outer loop
	vertex -3.2004 -62.85256 -0.00967
	vertex -3.2004 -62.85255 94.37672
	vertex 3.2004 -62.85257 -94.39606
endloop
endfacet
facet normal 0 1 0
outer loop
	vertex -3.2004 -62.85257 -94.39606
	vertex -3.2004 -62.85256 -0.00967
	vertex 3.2004 -62.85257 -94.39606
endloop
endfacet
facet normal 0 0.07847966 -0.9969157
outer loop
	vertex -3.2004 -60.31255 96.91672
	vertex 3.2004 -60.31255 96.91672
	vertex 3.2004 -60.70989 96.88544
endloop
endfacet
facet normal 0 0.07847966 -0.9969157
outer loop
	vertex -3.2004 -60.70989 96.88544
	vertex -3.2004 -60.31255 96.91672
	vertex 3.2004 -60.70989 96.88544
endloop
endfacet
facet normal 0 0.2334308 -0.9723734
outer loop
	vertex -3.2004 -60.70989 96.88544
	vertex 3.2004 -60.70989 96.88544
	vertex 3.2004 -61.09745 96.7924
endloop
endfacet
facet normal 0 0.2334308 -0.9723734
outer loop
	vertex -3.2004 -61.09745 96.7924
	vertex -3.2004 -60.70989 96.88544
	vertex 3.2004 -61.09745 96.7924
endloop
endfacet
facet normal 0 0.3826597 -0.9238893
outer loop
	vertex -3.2004 -61.09745 96.7924
	vertex 3.2004 -61.09745 96.7924
	vertex 3.2004 -61.46569 96.63988
endloop
endfacet
facet normal 0 0.3826597 -0.9238893
outer loop
	vertex -3.2004 -61.46569 96.63988
	vertex -3.2004 -61.09745 96.7924
	vertex 3.2004 -61.46569 96.63988
endloop
endfacet
facet normal 0 0.5224925 -0.852644
outer loop
	vertex -3.2004 -61.46569 96.63988
	vertex 3.2004 -61.46569 96.63988
	vertex 3.2004 -61.80552 96.43163
endloop
endfacet
facet normal 0 0.5224925 -0.852644
outer loop
	vertex -3.2004 -61.80552 96.43163
	vertex -3.2004 -61.46569 96.63988
	vertex 3.2004 -61.80552 96.43163
endloop
endfacet
facet normal 0 0.6494629 -0.7603933
outer loop
	vertex -3.2004 -61.80552 96.43163
	vertex 3.2004 -61.80552 96.43163
	vertex 3.2004 -62.1086 96.17277
endloop
endfacet
facet normal 0 0.6494629 -0.7603933
outer loop
	vertex -3.2004 -62.1086 96.17277
	vertex -3.2004 -61.80552 96.43163
	vertex 3.2004 -62.1086 96.17277
endloop
endfacet
facet normal 0 0.7604025 -0.6494521
outer loop
	vertex -3.2004 -62.1086 96.17277
	vertex 3.2004 -62.1086 96.17277
	vertex 3.2004 -62.36745 95.8697
endloop
endfacet
facet normal 0 0.7604025 -0.6494521
outer loop
	vertex -3.2004 -62.36745 95.8697
	vertex -3.2004 -62.1086 96.17277
	vertex 3.2004 -62.36745 95.8697
endloop
endfacet
facet normal 0 0.8526394 -0.5224996
outer loop
	vertex -3.2004 -62.36745 95.8697
	vertex 3.2004 -62.36745 95.8697
	vertex 3.2004 -62.57571 95.52985
endloop
endfacet
facet normal 0 0.8526394 -0.5224996
outer loop
	vertex -3.2004 -62.57571 95.52985
	vertex -3.2004 -62.36745 95.8697
	vertex 3.2004 -62.57571 95.52985
endloop
endfacet
facet normal 0 0.9238844 -0.3826718
outer loop
	vertex -3.2004 -62.57571 95.52985
	vertex 3.2004 -62.57571 95.52985
	vertex 3.2004 -62.72823 95.16162
endloop
endfacet
facet normal 0 0.9238844 -0.3826718
outer loop
	vertex -3.2004 -62.72823 95.16162
	vertex -3.2004 -62.57571 95.52985
	vertex 3.2004 -62.72823 95.16162
endloop
endfacet
facet normal 0 0.9723638 -0.2334709
outer loop
	vertex -3.2004 -62.72823 95.16162
	vertex 3.2004 -62.72823 95.16162
	vertex 3.2004 -62.82128 94.77407
endloop
endfacet
facet normal 0 0.9723638 -0.2334709
outer loop
	vertex -3.2004 -62.82128 94.77407
	vertex -3.2004 -62.72823 95.16162
	vertex 3.2004 -62.82128 94.77407
endloop
endfacet
facet normal 0 0.9969181 -0.07844985
outer loop
	vertex -3.2004 -62.82128 94.77407
	vertex 3.2004 -62.82128 94.77407
	vertex 3.2004 -62.85255 94.37672
endloop
endfacet
facet normal 0 0.9969181 -0.07844985
outer loop
	vertex -3.2004 -62.85255 94.37672
	vertex -3.2004 -62.82128 94.77407
	vertex 3.2004 -62.85255 94.37672
endloop
endfacet
facet normal 0 -0.07840016 0.996922
outer loop
	vertex -3.2004 76.99982 -96.93609
	vertex 3.2004 76.99982 -96.93609
	vertex 3.2004 77.39716 -96.90484
endloop
endfacet
facet normal 0 -0.07840016 0.996922
outer loop
	vertex -3.2004 77.39716 -96.90484
	vertex -3.2004 76.99982 -96.93609
	vertex 3.2004 77.39716 -96.90484
endloop
endfacet
facet normal 0 -0.2334497 0.9723689
outer loop
	vertex -3.2004 77.39716 -96.90484
	vertex 3.2004 77.39716 -96.90484
	vertex 3.2004 77.78472 -96.81179
endloop
endfacet
facet normal 0 -0.2334497 0.9723689
outer loop
	vertex -3.2004 77.78472 -96.81179
	vertex -3.2004 77.39716 -96.90484
	vertex 3.2004 77.78472 -96.81179
endloop
endfacet
facet normal 0 -0.3826803 0.9238808
outer loop
	vertex -3.2004 77.78472 -96.81179
	vertex 3.2004 77.78472 -96.81179
	vertex 3.2004 78.15296 -96.65926
endloop
endfacet
facet normal 0 -0.3826803 0.9238808
outer loop
	vertex -3.2004 78.15296 -96.65926
	vertex -3.2004 77.78472 -96.81179
	vertex 3.2004 78.15296 -96.65926
endloop
endfacet
facet normal 0 -0.5225231 0.8526251
outer loop
	vertex -3.2004 78.15296 -96.65926
	vertex 3.2004 78.15296 -96.65926
	vertex 3.2004 78.49281 -96.45099
endloop
endfacet
facet normal 0 -0.5225231 0.8526251
outer loop
	vertex -3.2004 78.49281 -96.45099
	vertex -3.2004 78.15296 -96.65926
	vertex 3.2004 78.49281 -96.45099
endloop
endfacet
facet normal 0 -0.64942 0.7604299
outer loop
	vertex -3.2004 78.49281 -96.45099
	vertex 3.2004 78.49281 -96.45099
	vertex 3.2004 78.79588 -96.19216
endloop
endfacet
facet normal 0 -0.64942 0.7604299
outer loop
	vertex -3.2004 78.79588 -96.19216
	vertex -3.2004 78.49281 -96.45099
	vertex 3.2004 78.79588 -96.19216
endloop
endfacet
facet normal 0 -0.7604159 0.6494364
outer loop
	vertex -3.2004 78.79588 -96.19216
	vertex 3.2004 78.79588 -96.19216
	vertex 3.2004 79.05474 -95.88907
endloop
endfacet
facet normal 0 -0.7604159 0.6494364
outer loop
	vertex -3.2004 79.05474 -95.88907
	vertex -3.2004 78.79588 -96.19216
	vertex 3.2004 79.05474 -95.88907
endloop
endfacet
facet normal 0 -0.8526394 0.5224996
outer loop
	vertex -3.2004 79.05474 -95.88907
	vertex 3.2004 79.05474 -95.88907
	vertex 3.2004 79.26298 -95.54926
endloop
endfacet
facet normal 0 -0.8526394 0.5224996
outer loop
	vertex -3.2004 79.26298 -95.54926
	vertex -3.2004 79.05474 -95.88907
	vertex 3.2004 79.26298 -95.54926
endloop
endfacet
facet normal 0 -0.9238893 0.3826597
outer loop
	vertex -3.2004 79.26298 -95.54926
	vertex 3.2004 79.26298 -95.54926
	vertex 3.2004 79.4155 -95.18102
endloop
endfacet
facet normal 0 -0.9238893 0.3826597
outer loop
	vertex -3.2004 79.4155 -95.18102
	vertex -3.2004 79.26298 -95.54926
	vertex 3.2004 79.4155 -95.18102
endloop
endfacet
facet normal 0 -0.9723665 0.2334592
outer loop
	vertex -3.2004 79.4155 -95.18102
	vertex 3.2004 79.4155 -95.18102
	vertex 3.2004 79.50855 -94.79345
endloop
endfacet
facet normal 0 -0.9723665 0.2334592
outer loop
	vertex -3.2004 79.50855 -94.79345
	vertex -3.2004 79.4155 -95.18102
	vertex 3.2004 79.50855 -94.79345
endloop
endfacet
facet normal 0 -0.9969157 0.07847966
outer loop
	vertex -3.2004 79.50855 -94.79345
	vertex 3.2004 79.50855 -94.79345
	vertex 3.2004 79.53983 -94.3961
endloop
endfacet
facet normal 0 -0.9969157 0.07847966
outer loop
	vertex -3.2004 79.53983 -94.3961
	vertex -3.2004 79.50855 -94.79345
	vertex 3.2004 79.53983 -94.3961
endloop
endfacet
facet normal 0 0.9969181 0.07844985
outer loop
	vertex -3.2004 -62.85257 -94.39606
	vertex 3.2004 -62.85257 -94.39606
	vertex 3.2004 -62.8213 -94.79342
endloop
endfacet
facet normal 0 0.9969181 0.07844985
outer loop
	vertex -3.2004 -62.8213 -94.79342
	vertex -3.2004 -62.85257 -94.39606
	vertex 3.2004 -62.8213 -94.79342
endloop
endfacet
facet normal 0 0.9723638 0.2334709
outer loop
	vertex -3.2004 -62.8213 -94.79342
	vertex 3.2004 -62.8213 -94.79342
	vertex 3.2004 -62.72825 -95.18097
endloop
endfacet
facet normal 0 0.9723638 0.2334709
outer loop
	vertex -3.2004 -62.72825 -95.18097
	vertex -3.2004 -62.8213 -94.79342
	vertex 3.2004 -62.72825 -95.18097
endloop
endfacet
facet normal 0 0.9238893 0.3826597
outer loop
	vertex -3.2004 -62.72825 -95.18097
	vertex 3.2004 -62.72825 -95.18097
	vertex 3.2004 -62.57573 -95.54921
endloop
endfacet
facet normal 0 0.9238893 0.3826597
outer loop
	vertex -3.2004 -62.57573 -95.54921
	vertex -3.2004 -62.72825 -95.18097
	vertex 3.2004 -62.57573 -95.54921
endloop
endfacet
facet normal 0 0.8526394 0.5224996
outer loop
	vertex -3.2004 -62.57573 -95.54921
	vertex 3.2004 -62.57573 -95.54921
	vertex 3.2004 -62.36747 -95.88905
endloop
endfacet
facet normal 0 0.8526394 0.5224996
outer loop
	vertex -3.2004 -62.36747 -95.88905
	vertex -3.2004 -62.57573 -95.54921
	vertex 3.2004 -62.36747 -95.88905
endloop
endfacet
facet normal 0 0.7604208 0.6494306
outer loop
	vertex -3.2004 -62.36747 -95.88905
	vertex 3.2004 -62.36747 -95.88905
	vertex 3.2004 -62.10863 -96.19213
endloop
endfacet
facet normal 0 0.7604208 0.6494306
outer loop
	vertex -3.2004 -62.10863 -96.19213
	vertex -3.2004 -62.36747 -95.88905
	vertex 3.2004 -62.10863 -96.19213
endloop
endfacet
facet normal 0 0.6494142 0.7604349
outer loop
	vertex -3.2004 -62.10863 -96.19213
	vertex 3.2004 -62.10863 -96.19213
	vertex 3.2004 -61.80554 -96.45097
endloop
endfacet
facet normal 0 0.6494142 0.7604349
outer loop
	vertex -3.2004 -61.80554 -96.45097
	vertex -3.2004 -62.10863 -96.19213
	vertex 3.2004 -61.80554 -96.45097
endloop
endfacet
facet normal 0 0.5225186 0.8526278
outer loop
	vertex -3.2004 -61.80554 -96.45097
	vertex 3.2004 -61.80554 -96.45097
	vertex 3.2004 -61.46571 -96.65923
endloop
endfacet
facet normal 0 0.5225186 0.8526278
outer loop
	vertex -3.2004 -61.46571 -96.65923
	vertex -3.2004 -61.80554 -96.45097
	vertex 3.2004 -61.46571 -96.65923
endloop
endfacet
facet normal 0 0.3826889 0.9238773
outer loop
	vertex -3.2004 -61.46571 -96.65923
	vertex 3.2004 -61.46571 -96.65923
	vertex 3.2004 -61.09748 -96.81176
endloop
endfacet
facet normal 0 0.3826889 0.9238773
outer loop
	vertex -3.2004 -61.09748 -96.81176
	vertex -3.2004 -61.46571 -96.65923
	vertex 3.2004 -61.09748 -96.81176
endloop
endfacet
facet normal 0 0.2334898 0.9723592
outer loop
	vertex -3.2004 -61.09748 -96.81176
	vertex 3.2004 -61.09748 -96.81176
	vertex 3.2004 -60.70992 -96.90482
endloop
endfacet
facet normal 0 0.2334898 0.9723592
outer loop
	vertex -3.2004 -60.70992 -96.90482
	vertex -3.2004 -61.09748 -96.81176
	vertex 3.2004 -60.70992 -96.90482
endloop
endfacet
facet normal 0 0.07840016 0.996922
outer loop
	vertex -3.2004 -60.70992 -96.90482
	vertex 3.2004 -60.70992 -96.90482
	vertex 3.2004 -60.31257 -96.93607
endloop
endfacet
facet normal 0 0.07840016 0.996922
outer loop
	vertex -3.2004 -60.31257 -96.93607
	vertex -3.2004 -60.70992 -96.90482
	vertex 3.2004 -60.31257 -96.93607
endloop
endfacet
facet normal 0 -0.9969157 -0.07847966
outer loop
	vertex -3.2004 79.53986 94.3767
	vertex 3.2004 79.53986 94.3767
	vertex 3.2004 79.50858 94.77406
endloop
endfacet
facet normal 0 -0.9969157 -0.07847966
outer loop
	vertex -3.2004 79.50858 94.77406
	vertex -3.2004 79.53986 94.3767
	vertex 3.2004 79.50858 94.77406
endloop
endfacet
facet normal 0 -0.9723616 -0.2334804
outer loop
	vertex -3.2004 79.50858 94.77406
	vertex 3.2004 79.50858 94.77406
	vertex 3.2004 79.41553 95.16161
endloop
endfacet
facet normal 0 -0.9723616 -0.2334804
outer loop
	vertex -3.2004 79.41553 95.16161
	vertex -3.2004 79.50858 94.77406
	vertex 3.2004 79.41553 95.16161
endloop
endfacet
facet normal 0 -0.9238844 -0.3826718
outer loop
	vertex -3.2004 79.41553 95.16161
	vertex 3.2004 79.41553 95.16161
	vertex 3.2004 79.26301 95.52984
endloop
endfacet
facet normal 0 -0.9238844 -0.3826718
outer loop
	vertex -3.2004 79.26301 95.52984
	vertex -3.2004 79.41553 95.16161
	vertex 3.2004 79.26301 95.52984
endloop
endfacet
facet normal 0 -0.8526512 -0.5224808
outer loop
	vertex -3.2004 79.26301 95.52984
	vertex 3.2004 79.26301 95.52984
	vertex 3.2004 79.05477 95.86967
endloop
endfacet
facet normal 0 -0.8526512 -0.5224808
outer loop
	vertex -3.2004 79.05477 95.86967
	vertex -3.2004 79.26301 95.52984
	vertex 3.2004 79.05477 95.86967
endloop
endfacet
facet normal 0 -0.7603933 -0.6494629
outer loop
	vertex -3.2004 79.05477 95.86967
	vertex 3.2004 79.05477 95.86967
	vertex 3.2004 78.79591 96.17274
endloop
endfacet
facet normal 0 -0.7603933 -0.6494629
outer loop
	vertex -3.2004 78.79591 96.17274
	vertex -3.2004 79.05477 95.86967
	vertex 3.2004 78.79591 96.17274
endloop
endfacet
facet normal 0 -0.6494901 -0.7603701
outer loop
	vertex -3.2004 78.79591 96.17274
	vertex 3.2004 78.79591 96.17274
	vertex 3.2004 78.49284 96.43161
endloop
endfacet
facet normal 0 -0.6494901 -0.7603701
outer loop
	vertex -3.2004 78.49284 96.43161
	vertex -3.2004 78.79591 96.17274
	vertex 3.2004 78.49284 96.43161
endloop
endfacet
facet normal 0 -0.5224499 -0.85267
outer loop
	vertex -3.2004 78.49284 96.43161
	vertex 3.2004 78.49284 96.43161
	vertex 3.2004 78.15299 96.63985
endloop
endfacet
facet normal 0 -0.5224499 -0.85267
outer loop
	vertex -3.2004 78.15299 96.63985
	vertex -3.2004 78.49284 96.43161
	vertex 3.2004 78.15299 96.63985
endloop
endfacet
facet normal 0 -0.3827095 -0.9238687
outer loop
	vertex -3.2004 78.15299 96.63985
	vertex 3.2004 78.15299 96.63985
	vertex 3.2004 77.78475 96.79239
endloop
endfacet
facet normal 0 -0.3827095 -0.9238687
outer loop
	vertex -3.2004 77.78475 96.79239
	vertex -3.2004 78.15299 96.63985
	vertex 3.2004 77.78475 96.79239
endloop
endfacet
facet normal 0 -0.2334308 -0.9723734
outer loop
	vertex -3.2004 77.78475 96.79239
	vertex 3.2004 77.78475 96.79239
	vertex 3.2004 77.39719 96.88543
endloop
endfacet
facet normal 0 -0.2334308 -0.9723734
outer loop
	vertex -3.2004 77.39719 96.88543
	vertex -3.2004 77.78475 96.79239
	vertex 3.2004 77.39719 96.88543
endloop
endfacet
facet normal 0 -0.07842997 -0.9969196
outer loop
	vertex -3.2004 77.39719 96.88543
	vertex 3.2004 77.39719 96.88543
	vertex 3.2004 76.99986 96.91669
endloop
endfacet
facet normal 0 -0.07842997 -0.9969196
outer loop
	vertex -3.2004 76.99986 96.91669
	vertex -3.2004 77.39719 96.88543
	vertex 3.2004 76.99986 96.91669
endloop
endfacet
facet normal 0 -1 0
outer loop
	vertex -3.2004 79.53983 -94.3961
	vertex 3.2004 79.53983 -94.3961
	vertex 3.2004 79.53986 94.3767
endloop
endfacet
facet normal 0 -1 0
outer loop
	vertex -3.2004 79.53983 -94.3961
	vertex 3.2004 79.53986 94.3767
	vertex -3.2004 79.53986 94.3767
endloop
endfacet
facet normal 0 0 -1
outer loop
	vertex 3.2004 2.51911 96.9167
	vertex 3.2004 -60.31255 96.91672
	vertex -3.2004 -60.31255 96.91672
endloop
endfacet
facet normal 0 0 -1
outer loop
	vertex 3.2004 2.51911 96.9167
	vertex -3.2004 -60.31255 96.91672
	vertex -3.2004 2.51911 96.91671
endloop
endfacet
facet normal 0 0 -1
outer loop
	vertex 3.2004 76.99986 96.91669
	vertex 3.2004 2.51911 96.9167
	vertex -3.2004 2.51911 96.91671
endloop
endfacet
facet normal 0 0 -1
outer loop
	vertex 3.2004 76.99986 96.91669
	vertex -3.2004 2.51911 96.91671
	vertex -3.2004 76.99986 96.91669
endloop
endfacet
facet normal 0 0 1
outer loop
	vertex 3.2004 61.03275 -96.93607
	vertex 3.2004 76.99982 -96.93609
	vertex -3.2004 76.99982 -96.93609
endloop
endfacet
facet normal 0 0 1
outer loop
	vertex 3.2004 61.03275 -96.93607
	vertex -3.2004 76.99982 -96.93609
	vertex -3.2004 61.03275 -96.93607
endloop
endfacet
facet normal 0 0 1
outer loop
	vertex 3.2004 15.47785 -96.93607
	vertex 3.2004 61.03275 -96.93607
	vertex -3.2004 61.03275 -96.93607
endloop
endfacet
facet normal 0 0 1
outer loop
	vertex 3.2004 15.47785 -96.93607
	vertex -3.2004 61.03275 -96.93607
	vertex -3.2004 15.47785 -96.93607
endloop
endfacet
facet normal 0 0 1
outer loop
	vertex 3.2004 -19.44715 -96.93607
	vertex 3.2004 15.47785 -96.93607
	vertex -3.2004 15.47785 -96.93607
endloop
endfacet
facet normal 0 0 1
outer loop
	vertex 3.2004 -19.44715 -96.93607
	vertex -3.2004 15.47785 -96.93607
	vertex -3.2004 -19.44715 -96.93607
endloop
endfacet
facet normal 0 0 1
outer loop
	vertex 3.2004 -46.9871 -96.93607
	vertex 3.2004 -19.44715 -96.93607
	vertex -3.2004 -19.44715 -96.93607
endloop
endfacet
facet normal 0 0 1
outer loop
	vertex 3.2004 -46.9871 -96.93607
	vertex -3.2004 -19.44715 -96.93607
	vertex -3.2004 -46.9871 -96.93607
endloop
endfacet
facet normal 0 0 1
outer loop
	vertex 3.2004 -60.31257 -96.93607
	vertex 3.2004 -46.9871 -96.93607
	vertex -3.2004 -46.9871 -96.93607
endloop
endfacet
facet normal 0 0 1
outer loop
	vertex 3.2004 -60.31257 -96.93607
	vertex -3.2004 -46.9871 -96.93607
	vertex -3.2004 -60.31257 -96.93607
endloop
endfacet
facet normal -1 0 0
outer loop
	vertex -3.2004 78.15299 96.63985
	vertex -3.2004 77.78475 96.79239
	vertex -3.2004 94.22105 103.2367
endloop
endfacet
facet normal -1 0 0
outer loop
	vertex -3.2004 78.15299 96.63985
	vertex -3.2004 94.22105 103.2367
	vertex -3.2004 78.49284 96.43161
endloop
endfacet
facet normal -1 0 0
outer loop
	vertex -3.2004 77.78475 96.79239
	vertex -3.2004 77.39719 96.88543
	vertex -3.2004 94.22105 103.2367
endloop
endfacet
facet normal -1 0 0
outer loop
	vertex -3.2004 78.79591 96.17274
	vertex -3.2004 78.49284 96.43161
	vertex -3.2004 94.22105 103.2367
endloop
endfacet
facet normal -1 0 0
outer loop
	vertex -3.2004 94.22105 103.2367
	vertex -3.2004 77.39719 96.88543
	vertex -3.2004 76.99986 96.91669
endloop
endfacet
facet normal -1 0 0
outer loop
	vertex -3.2004 78.79591 96.17274
	vertex -3.2004 94.22105 103.2367
	vertex -3.2004 79.05477 95.86967
endloop
endfacet
facet normal -1 0 0
outer loop
	vertex -3.2004 94.22105 103.2367
	vertex -3.2004 76.99986 96.91669
	vertex -3.2004 2.51911 96.91671
endloop
endfacet
facet normal -1 0 0
outer loop
	vertex -3.2004 79.26301 95.52984
	vertex -3.2004 79.05477 95.86967
	vertex -3.2004 94.22105 103.2367
endloop
endfacet
facet normal -1 0 0
outer loop
	vertex -3.2004 94.22105 103.2367
	vertex -3.2004 2.51911 96.91671
	vertex -3.2004 100.8649 145.3863
endloop
endfacet
facet normal -1 0 0
outer loop
	vertex -3.2004 79.41553 95.16161
	vertex -3.2004 79.26301 95.52984
	vertex -3.2004 94.22105 103.2367
endloop
endfacet
facet normal -1 0 0
outer loop
	vertex -3.2004 94.22105 103.2367
	vertex -3.2004 100.8649 145.3863
	vertex -3.2004 103.1906 144.5093
endloop
endfacet
facet normal -1 0 0
outer loop
	vertex -3.2004 79.41553 95.16161
	vertex -3.2004 94.22105 103.2367
	vertex -3.2004 79.50858 94.77406
endloop
endfacet
facet normal -1 0 0
outer loop
	vertex -3.2004 94.22105 103.2367
	vertex -3.2004 103.1906 144.5093
	vertex -3.2004 116.7509 137.8493
endloop
endfacet
facet normal -1 0 0
outer loop
	vertex -3.2004 79.53986 94.3767
	vertex -3.2004 79.50858 94.77406
	vertex -3.2004 94.22105 103.2367
endloop
endfacet
facet normal -1 0 0
outer loop
	vertex -3.2004 94.22105 103.2367
	vertex -3.2004 116.7509 137.8493
	vertex -3.2004 116.7509 121.4294
endloop
endfacet
facet normal -1 0 0
outer loop
	vertex -3.2004 79.53983 -94.3961
	vertex -3.2004 79.53986 94.3767
	vertex -3.2004 94.22105 103.2367
endloop
endfacet
facet normal -1 0 0
outer loop
	vertex -3.2004 116.7509 121.4294
	vertex -3.2004 116.7509 103.2367
	vertex -3.2004 94.22105 103.2367
endloop
endfacet
facet normal -1 0 0
outer loop
	vertex -3.2004 79.53983 -94.3961
	vertex -3.2004 94.22105 103.2367
	vertex -3.2004 94.22102 -103.2561
endloop
endfacet
facet normal -1 0 0
outer loop
	vertex -3.2004 116.7509 103.2367
	vertex -3.2004 94.22102 -103.2561
	vertex -3.2004 94.22105 103.2367
endloop
endfacet
facet normal -1 0 0
outer loop
	vertex -3.2004 79.50855 -94.79345
	vertex -3.2004 79.53983 -94.3961
	vertex -3.2004 94.22102 -103.2561
endloop
endfacet
facet normal -1 0 0
outer loop
	vertex -3.2004 116.7509 103.2367
	vertex -3.2004 116.7508 -103.2561
	vertex -3.2004 94.22102 -103.2561
endloop
endfacet
facet normal -1 0 0
outer loop
	vertex -3.2004 79.50855 -94.79345
	vertex -3.2004 94.22102 -103.2561
	vertex -3.2004 79.4155 -95.18102
endloop
endfacet
facet normal -1 0 0
outer loop
	vertex -3.2004 79.26298 -95.54926
	vertex -3.2004 79.4155 -95.18102
	vertex -3.2004 94.22102 -103.2561
endloop
endfacet
facet normal -1 0 0
outer loop
	vertex -3.2004 79.26298 -95.54926
	vertex -3.2004 94.22102 -103.2561
	vertex -3.2004 79.05474 -95.88907
endloop
endfacet
facet normal -1 0 0
outer loop
	vertex -3.2004 78.79588 -96.19216
	vertex -3.2004 79.05474 -95.88907
	vertex -3.2004 94.22102 -103.2561
endloop
endfacet
facet normal -1 0 0
outer loop
	vertex -3.2004 116.7508 -103.2561
	vertex -3.2004 116.7508 -121.4488
	vertex -3.2004 94.22102 -103.2561
endloop
endfacet
facet normal -1 0 0
outer loop
	vertex -3.2004 78.49281 -96.45099
	vertex -3.2004 78.79588 -96.19216
	vertex -3.2004 94.22102 -103.2561
endloop
endfacet
facet normal -1 0 0
outer loop
	vertex -3.2004 116.7508 -137.8687
	vertex -3.2004 94.22102 -103.2561
	vertex -3.2004 116.7508 -121.4488
endloop
endfacet
facet normal -1 0 0
outer loop
	vertex -3.2004 78.49281 -96.45099
	vertex -3.2004 94.22102 -103.2561
	vertex -3.2004 78.15296 -96.65926
endloop
endfacet
facet normal -1 0 0
outer loop
	vertex -3.2004 116.7508 -137.8687
	vertex -3.2004 103.3226 -144.4715
	vertex -3.2004 94.22102 -103.2561
endloop
endfacet
facet normal -1 0 0
outer loop
	vertex -3.2004 77.78472 -96.81179
	vertex -3.2004 78.15296 -96.65926
	vertex -3.2004 94.22102 -103.2561
endloop
endfacet
facet normal -1 0 0
outer loop
	vertex -3.2004 94.22102 -147.9175
	vertex -3.2004 94.22102 -103.2561
	vertex -3.2004 103.3226 -144.4715
endloop
endfacet
facet normal -1 0 0
outer loop
	vertex -3.2004 77.39716 -96.90484
	vertex -3.2004 77.78472 -96.81179
	vertex -3.2004 94.22102 -103.2561
endloop
endfacet
facet normal -1 0 0
outer loop
	vertex -3.2004 94.22102 -147.9175
	vertex -3.2004 89.32835 -149.7699
	vertex -3.2004 94.22102 -103.2561
endloop
endfacet
facet normal -1 0 0
outer loop
	vertex -3.2004 77.39716 -96.90484
	vertex -3.2004 94.22102 -103.2561
	vertex -3.2004 76.99982 -96.93609
endloop
endfacet
facet normal -1 0 0
outer loop
	vertex -3.2004 94.22102 -103.2561
	vertex -3.2004 89.32835 -149.7699
	vertex -3.2004 74.89437 -153.7162
endloop
endfacet
facet normal -1 0 0
outer loop
	vertex -3.2004 76.99982 -96.93609
	vertex -3.2004 94.22102 -103.2561
	vertex -3.2004 61.03275 -96.93607
endloop
endfacet
facet normal -1 0 0
outer loop
	vertex -3.2004 94.22102 -103.2561
	vertex -3.2004 74.89437 -153.7162
	vertex -3.2004 61.03275 -96.93607
endloop
endfacet
facet normal -1 0 0
outer loop
	vertex -3.2004 60.59187 -156.1982
	vertex -3.2004 61.03275 -96.93607
	vertex -3.2004 74.89437 -153.7162
endloop
endfacet
facet normal -1 0 0
outer loop
	vertex -3.2004 61.03275 -96.93607
	vertex -3.2004 60.59187 -156.1982
	vertex -3.2004 45.23133 -157.4224
endloop
endfacet
facet normal -1 0 0
outer loop
	vertex -3.2004 61.03275 -96.93607
	vertex -3.2004 45.23133 -157.4224
	vertex -3.2004 30.2701 -157.1488
endloop
endfacet
facet normal -1 0 0
outer loop
	vertex -3.2004 15.47785 -96.93607
	vertex -3.2004 61.03275 -96.93607
	vertex -3.2004 30.2701 -157.1488
endloop
endfacet
facet normal -1 0 0
outer loop
	vertex -3.2004 15.47785 -96.93607
	vertex -3.2004 30.2701 -157.1488
	vertex -3.2004 15.44012 -155.4607
endloop
endfacet
facet normal -1 0 0
outer loop
	vertex -3.2004 0.76242 -152.3604
	vertex -3.2004 15.47785 -96.93607
	vertex -3.2004 15.44012 -155.4607
endloop
endfacet
facet normal -1 0 0
outer loop
	vertex -3.2004 0.76242 -152.3604
	vertex -3.2004 -13.51762 -147.889
	vertex -3.2004 15.47785 -96.93607
endloop
endfacet
facet normal -1 0 0
outer loop
	vertex -3.2004 -13.51762 -147.889
	vertex -3.2004 -19.44716 -145.3925
	vertex -3.2004 15.47785 -96.93607
endloop
endfacet
facet normal -1 0 0
outer loop
	vertex -3.2004 -19.44716 -145.3925
	vertex -3.2004 -27.3088 -142.0825
	vertex -3.2004 15.47785 -96.93607
endloop
endfacet
facet normal -1 0 0
outer loop
	vertex -3.2004 -27.3088 -142.0825
	vertex -3.2004 -26.64475 -140.4799
	vertex -3.2004 15.47785 -96.93607
endloop
endfacet
facet normal -1 0 0
outer loop
	vertex -3.2004 -26.64475 -140.4799
	vertex -3.2004 -26.263 -138.7877
	vertex -3.2004 15.47785 -96.93607
endloop
endfacet
facet normal -1 0 0
outer loop
	vertex -3.2004 -26.263 -138.7877
	vertex -3.2004 -26.17469 -137.0552
	vertex -3.2004 15.47785 -96.93607
endloop
endfacet
facet normal -1 0 0
outer loop
	vertex -3.2004 -26.17469 -137.0552
	vertex -3.2004 -19.44715 -96.93607
	vertex -3.2004 15.47785 -96.93607
endloop
endfacet
facet normal -1 0 0
outer loop
	vertex -3.2004 -26.17469 -137.0552
	vertex -3.2004 -26.38239 -135.3329
	vertex -3.2004 -19.44715 -96.93607
endloop
endfacet
facet normal -1 0 0
outer loop
	vertex -3.2004 -26.38239 -135.3329
	vertex -3.2004 -26.88004 -133.6712
	vertex -3.2004 -19.44715 -96.93607
endloop
endfacet
facet normal -1 0 0
outer loop
	vertex -3.2004 -27.65314 -132.1182
	vertex -3.2004 -19.44715 -96.93607
	vertex -3.2004 -26.88004 -133.6712
endloop
endfacet
facet normal -1 0 0
outer loop
	vertex -3.2004 -28.67915 -130.7195
	vertex -3.2004 -19.44715 -96.93607
	vertex -3.2004 -27.65314 -132.1182
endloop
endfacet
facet normal -1 0 0
outer loop
	vertex -3.2004 -28.67915 -130.7195
	vertex -3.2004 -29.92815 -129.5156
	vertex -3.2004 -19.44715 -96.93607
endloop
endfacet
facet normal -1 0 0
outer loop
	vertex -3.2004 -29.92815 -129.5156
	vertex -3.2004 -31.36374 -128.5418
	vertex -3.2004 -19.44715 -96.93607
endloop
endfacet
facet normal -1 0 0
outer loop
	vertex -3.2004 -32.94408 -127.8264
	vertex -3.2004 -19.44715 -96.93607
	vertex -3.2004 -31.36374 -128.5418
endloop
endfacet
facet normal -1 0 0
outer loop
	vertex -3.2004 -32.94408 -127.8264
	vertex -3.2004 -34.62307 -127.3903
	vertex -3.2004 -19.44715 -96.93607
endloop
endfacet
facet normal -1 0 0
outer loop
	vertex -3.2004 -34.62307 -127.3903
	vertex -3.2004 -46.9871 -96.93607
	vertex -3.2004 -19.44715 -96.93607
endloop
endfacet
facet normal -1 0 0
outer loop
	vertex -3.2004 -34.62307 -127.3903
	vertex -3.2004 -36.35179 -127.2461
	vertex -3.2004 -46.9871 -96.93607
endloop
endfacet
facet normal -1 0 0
outer loop
	vertex -3.2004 -36.35179 -127.2461
	vertex -3.2004 -38.07983 -127.3981
	vertex -3.2004 -46.9871 -96.93607
endloop
endfacet
facet normal -1 0 0
outer loop
	vertex -3.2004 -39.75683 -127.8419
	vertex -3.2004 -46.9871 -96.93607
	vertex -3.2004 -38.07983 -127.3981
endloop
endfacet
facet normal -1 0 0
outer loop
	vertex -3.2004 -39.75683 -127.8419
	vertex -3.2004 -41.33388 -128.5645
	vertex -3.2004 -46.9871 -96.93607
endloop
endfacet
facet normal -1 0 0
outer loop
	vertex -3.2004 -46.9871 -96.93607
	vertex -3.2004 -41.33388 -128.5645
	vertex -3.2004 -42.76502 -129.5449
endloop
endfacet
facet normal -1 0 0
outer loop
	vertex -3.2004 -46.9871 -96.93607
	vertex -3.2004 -42.76502 -129.5449
	vertex -3.2004 -44.00853 -130.7544
endloop
endfacet
facet normal -1 0 0
outer loop
	vertex -3.2004 -45.02814 -132.1579
	vertex -3.2004 -46.9871 -96.93607
	vertex -3.2004 -44.00853 -130.7544
endloop
endfacet
facet normal -1 0 0
outer loop
	vertex -3.2004 -45.02814 -132.1579
	vertex -3.2004 -46.98711 -130.7502
	vertex -3.2004 -46.9871 -96.93607
endloop
endfacet
facet normal -1 0 0
outer loop
	vertex -3.2004 -46.98711 -130.7502
	vertex -3.2004 -57.29673 -123.3421
	vertex -3.2004 -46.9871 -96.93607
endloop
endfacet
facet normal -1 0 0
outer loop
	vertex -3.2004 -57.29673 -123.3421
	vertex -3.2004 -59.45957 -121.4488
	vertex -3.2004 -46.9871 -96.93607
endloop
endfacet
facet normal -1 0 0
outer loop
	vertex -3.2004 -46.9871 -96.93607
	vertex -3.2004 -59.45957 -121.4488
	vertex -3.2004 -68.6641 -113.3913
endloop
endfacet
facet normal -1 0 0
outer loop
	vertex -3.2004 -46.9871 -96.93607
	vertex -3.2004 -68.6641 -113.3913
	vertex -3.2004 -78.62091 -102.8266
endloop
endfacet
facet normal -1 0 0
outer loop
	vertex -3.2004 -60.31257 -96.93607
	vertex -3.2004 -46.9871 -96.93607
	vertex -3.2004 -78.62091 -102.8266
endloop
endfacet
facet normal -1 0 0
outer loop
	vertex -3.2004 -60.70992 -96.90482
	vertex -3.2004 -60.31257 -96.93607
	vertex -3.2004 -78.62091 -102.8266
endloop
endfacet
facet normal -1 0 0
outer loop
	vertex -3.2004 -60.70992 -96.90482
	vertex -3.2004 -78.62091 -102.8266
	vertex -3.2004 -61.09748 -96.81176
endloop
endfacet
facet normal -1 0 0
outer loop
	vertex -3.2004 -61.46571 -96.65923
	vertex -3.2004 -61.09748 -96.81176
	vertex -3.2004 -78.62091 -102.8266
endloop
endfacet
facet normal -1 0 0
outer loop
	vertex -3.2004 -61.80554 -96.45097
	vertex -3.2004 -61.46571 -96.65923
	vertex -3.2004 -78.62091 -102.8266
endloop
endfacet
facet normal -1 0 0
outer loop
	vertex -3.2004 -61.80554 -96.45097
	vertex -3.2004 -78.62091 -102.8266
	vertex -3.2004 -62.10863 -96.19213
endloop
endfacet
facet normal -1 0 0
outer loop
	vertex -3.2004 -62.10863 -96.19213
	vertex -3.2004 -78.62091 -102.8266
	vertex -3.2004 -62.36747 -95.88905
endloop
endfacet
facet normal -1 0 0
outer loop
	vertex -3.2004 -62.57573 -95.54921
	vertex -3.2004 -62.36747 -95.88905
	vertex -3.2004 -78.62091 -102.8266
endloop
endfacet
facet normal -1 0 0
outer loop
	vertex -3.2004 -62.72825 -95.18097
	vertex -3.2004 -62.57573 -95.54921
	vertex -3.2004 -78.62091 -102.8266
endloop
endfacet
facet normal -1 0 0
outer loop
	vertex -3.2004 -62.8213 -94.79342
	vertex -3.2004 -62.72825 -95.18097
	vertex -3.2004 -78.62091 -102.8266
endloop
endfacet
facet normal -1 0 0
outer loop
	vertex -3.2004 -62.8213 -94.79342
	vertex -3.2004 -78.62091 -102.8266
	vertex -3.2004 -62.85257 -94.39606
endloop
endfacet
facet normal -1 0 0
outer loop
	vertex -3.2004 -88.28606 -90.46056
	vertex -3.2004 -62.85257 -94.39606
	vertex -3.2004 -78.62091 -102.8266
endloop
endfacet
facet normal -1 0 0
outer loop
	vertex -3.2004 -96.36006 -77.69164
	vertex -3.2004 -62.85257 -94.39606
	vertex -3.2004 -88.28606 -90.46056
endloop
endfacet
facet normal -1 0 0
outer loop
	vertex -3.2004 -96.36006 -77.69164
	vertex -3.2004 -62.85256 -0.00967
	vertex -3.2004 -62.85257 -94.39606
endloop
endfacet
facet normal -1 0 0
outer loop
	vertex -3.2004 -103.1734 -64.20777
	vertex -3.2004 -62.85256 -0.00967
	vertex -3.2004 -96.36006 -77.69164
endloop
endfacet
facet normal -1 0 0
outer loop
	vertex -3.2004 -108.6633 -50.13309
	vertex -3.2004 -62.85256 -0.00967
	vertex -3.2004 -103.1734 -64.20777
endloop
endfacet
facet normal -1 0 0
outer loop
	vertex -3.2004 -112.7792 -35.59713
	vertex -3.2004 -62.85256 -0.00967
	vertex -3.2004 -108.6633 -50.13309
endloop
endfacet
facet normal -1 0 0
outer loop
	vertex -3.2004 -115.4834 -20.73365
	vertex -3.2004 -62.85256 -0.00967
	vertex -3.2004 -112.7792 -35.59713
endloop
endfacet
facet normal -1 0 0
outer loop
	vertex -3.2004 -116.7509 -5.67945
	vertex -3.2004 -62.85256 -0.00967
	vertex -3.2004 -115.4834 -20.73365
endloop
endfacet
facet normal -1 0 0
outer loop
	vertex -3.2004 -116.57 9.42694
	vertex -3.2004 -62.85256 -0.00967
	vertex -3.2004 -116.7509 -5.67945
endloop
endfacet
facet normal -1 0 0
outer loop
	vertex -3.2004 -114.9424 24.44647
	vertex -3.2004 -62.85256 -0.00967
	vertex -3.2004 -116.57 9.42694
endloop
endfacet
facet normal -1 0 0
outer loop
	vertex -3.2004 -111.8831 39.24093
	vertex -3.2004 -62.85256 -0.00967
	vertex -3.2004 -114.9424 24.44647
endloop
endfacet
facet normal -1 0 0
outer loop
	vertex -3.2004 -107.4202 53.67417
	vertex -3.2004 -62.85256 -0.00967
	vertex -3.2004 -111.8831 39.24093
endloop
endfacet
facet normal -1 0 0
outer loop
	vertex -3.2004 -101.5949 67.61335
	vertex -3.2004 -62.85256 -0.00967
	vertex -3.2004 -107.4202 53.67417
endloop
endfacet
facet normal -1 0 0
outer loop
	vertex -3.2004 -94.46066 80.93019
	vertex -3.2004 -62.85256 -0.00967
	vertex -3.2004 -101.5949 67.61335
endloop
endfacet
facet normal -1 0 0
outer loop
	vertex -3.2004 -86.08321 93.50214
	vertex -3.2004 -62.85256 -0.00967
	vertex -3.2004 -94.46066 80.93019
endloop
endfacet
facet normal -1 0 0
outer loop
	vertex -3.2004 -86.08321 93.50214
	vertex -3.2004 -62.85255 94.37672
	vertex -3.2004 -62.85256 -0.00967
endloop
endfacet
facet normal -1 0 0
outer loop
	vertex -3.2004 -62.82128 94.77407
	vertex -3.2004 -62.85255 94.37672
	vertex -3.2004 -86.08321 93.50214
endloop
endfacet
facet normal -1 0 0
outer loop
	vertex -3.2004 -62.82128 94.77407
	vertex -3.2004 -86.08321 93.50214
	vertex -3.2004 -62.72823 95.16162
endloop
endfacet
facet normal -1 0 0
outer loop
	vertex -3.2004 -62.72823 95.16162
	vertex -3.2004 -86.08321 93.50214
	vertex -3.2004 -78.15054 103.2367
endloop
endfacet
facet normal -1 0 0
outer loop
	vertex -3.2004 -62.57571 95.52985
	vertex -3.2004 -62.72823 95.16162
	vertex -3.2004 -78.15054 103.2367
endloop
endfacet
facet normal -1 0 0
outer loop
	vertex -3.2004 -62.57571 95.52985
	vertex -3.2004 -78.15054 103.2367
	vertex -3.2004 -62.36745 95.8697
endloop
endfacet
facet normal -1 0 0
outer loop
	vertex -3.2004 -62.1086 96.17277
	vertex -3.2004 -62.36745 95.8697
	vertex -3.2004 -78.15054 103.2367
endloop
endfacet
facet normal -1 0 0
outer loop
	vertex -3.2004 -61.80552 96.43163
	vertex -3.2004 -62.1086 96.17277
	vertex -3.2004 -78.15054 103.2367
endloop
endfacet
facet normal -1 0 0
outer loop
	vertex -3.2004 -61.80552 96.43163
	vertex -3.2004 -78.15054 103.2367
	vertex -3.2004 -61.46569 96.63988
endloop
endfacet
facet normal -1 0 0
outer loop
	vertex -3.2004 -61.46569 96.63988
	vertex -3.2004 -78.15054 103.2367
	vertex -3.2004 -61.09745 96.7924
endloop
endfacet
facet normal -1 0 0
outer loop
	vertex -3.2004 -60.70989 96.88544
	vertex -3.2004 -61.09745 96.7924
	vertex -3.2004 -78.15054 103.2367
endloop
endfacet
facet normal -1 0 0
outer loop
	vertex -3.2004 -60.31255 96.91672
	vertex -3.2004 -60.70989 96.88544
	vertex -3.2004 -78.15054 103.2367
endloop
endfacet
facet normal -1 0 0
outer loop
	vertex -3.2004 -60.31255 96.91672
	vertex -3.2004 -78.15054 103.2367
	vertex -3.2004 2.51911 96.91671
endloop
endfacet
facet normal -1 0 0
outer loop
	vertex -3.2004 2.51911 96.91671
	vertex -3.2004 -78.15054 103.2367
	vertex -3.2004 -76.53964 105.2135
endloop
endfacet
facet normal -1 0 0
outer loop
	vertex -3.2004 2.51911 96.91671
	vertex -3.2004 94.22105 147.8913
	vertex -3.2004 100.8649 145.3863
endloop
endfacet
facet normal -1 0 0
outer loop
	vertex -3.2004 2.51911 96.91671
	vertex -3.2004 -76.53964 105.2135
	vertex -3.2004 -65.91779 115.9565
endloop
endfacet
facet normal -1 0 0
outer loop
	vertex -3.2004 2.51911 96.91671
	vertex -3.2004 -65.91779 115.9565
	vertex -3.2004 -59.35501 121.4295
endloop
endfacet
facet normal -1 0 0
outer loop
	vertex -3.2004 -54.31539 125.6322
	vertex -3.2004 2.51911 96.91671
	vertex -3.2004 -59.35501 121.4295
endloop
endfacet
facet normal -1 0 0
outer loop
	vertex -3.2004 -46.98707 130.6364
	vertex -3.2004 2.51911 96.91671
	vertex -3.2004 -54.31539 125.6322
endloop
endfacet
facet normal -1 0 0
outer loop
	vertex -3.2004 2.51911 96.91671
	vertex -3.2004 -46.98707 130.6364
	vertex -3.2004 -41.83923 134.1516
endloop
endfacet
facet normal -1 0 0
outer loop
	vertex -3.2004 -41.83923 134.1516
	vertex -3.2004 -28.60413 141.4364
	vertex -3.2004 2.51911 96.91671
endloop
endfacet
facet normal -1 0 0
outer loop
	vertex -3.2004 -28.60413 141.4364
	vertex -3.2004 -19.44653 145.386
	vertex -3.2004 2.51911 96.91671
endloop
endfacet
facet normal -1 0 0
outer loop
	vertex -3.2004 2.51911 96.91671
	vertex -3.2004 -19.44653 145.386
	vertex -3.2004 -14.73189 147.4194
endloop
endfacet
facet normal -1 0 0
outer loop
	vertex -3.2004 2.51911 96.91671
	vertex -3.2004 -14.73189 147.4194
	vertex -3.2004 -0.35018 152.0456
endloop
endfacet
facet normal -1 0 0
outer loop
	vertex -3.2004 14.40864 155.2725
	vertex -3.2004 2.51911 96.91671
	vertex -3.2004 -0.35018 152.0456
endloop
endfacet
facet normal -1 0 0
outer loop
	vertex -3.2004 2.51911 96.91671
	vertex -3.2004 89.0546 149.8393
	vertex -3.2004 94.22105 147.8913
endloop
endfacet
facet normal -1 0 0
outer loop
	vertex -3.2004 15.47788 155.4006
	vertex -3.2004 2.51911 96.91671
	vertex -3.2004 14.40864 155.2725
endloop
endfacet
facet normal -1 0 0
outer loop
	vertex -3.2004 89.0546 149.8393
	vertex -3.2004 2.51911 96.91671
	vertex -3.2004 74.47289 153.7902
endloop
endfacet
facet normal -1 0 0
outer loop
	vertex -3.2004 29.40876 157.0702
	vertex -3.2004 2.51911 96.91671
	vertex -3.2004 15.47788 155.4006
endloop
endfacet
facet normal -1 0 0
outer loop
	vertex -3.2004 61.03278 156.0783
	vertex -3.2004 74.47289 153.7902
	vertex -3.2004 2.51911 96.91671
endloop
endfacet
facet normal -1 0 0
outer loop
	vertex -3.2004 2.51911 96.91671
	vertex -3.2004 29.40876 157.0702
	vertex -3.2004 44.51212 157.4224
endloop
endfacet
facet normal -1 0 0
outer loop
	vertex -3.2004 61.03278 156.0783
	vertex -3.2004 2.51911 96.91671
	vertex -3.2004 44.51212 157.4224
endloop
endfacet
facet normal -1 0 0
outer loop
	vertex -3.2004 61.03278 156.0783
	vertex -3.2004 44.51212 157.4224
	vertex -3.2004 59.57972 156.3257
endloop
endfacet
facet normal 0 -0.7277366 -0.6858568
outer loop
	vertex 3.2004 -68.6641 -113.3913
	vertex 3.2004 -78.62091 -102.8266
	vertex -3.2004 -78.62091 -102.8266
endloop
endfacet
facet normal 0 -0.7277366 -0.6858568
outer loop
	vertex 3.2004 -68.6641 -113.3913
	vertex -3.2004 -78.62091 -102.8266
	vertex -3.2004 -68.6641 -113.3913
endloop
endfacet
facet normal 0 -0.658671 -0.7524312
outer loop
	vertex 3.2004 -59.45957 -121.4488
	vertex 3.2004 -68.6641 -113.3913
	vertex -3.2004 -68.6641 -113.3913
endloop
endfacet
facet normal 0 -0.658671 -0.7524312
outer loop
	vertex 3.2004 -59.45957 -121.4488
	vertex -3.2004 -68.6641 -113.3913
	vertex -3.2004 -59.45957 -121.4488
endloop
endfacet
facet normal 0 -0.658671 -0.7524312
outer loop
	vertex 3.2004 -57.29673 -123.3421
	vertex 3.2004 -59.45957 -121.4488
	vertex -3.2004 -59.45957 -121.4488
endloop
endfacet
facet normal 0 -0.658671 -0.7524312
outer loop
	vertex 3.2004 -57.29673 -123.3421
	vertex -3.2004 -59.45957 -121.4488
	vertex -3.2004 -57.29673 -123.3421
endloop
endfacet
facet normal 0 -0.5835374 -0.8120863
outer loop
	vertex 3.2004 -46.98711 -130.7502
	vertex 3.2004 -57.29673 -123.3421
	vertex -3.2004 -57.29673 -123.3421
endloop
endfacet
facet normal 0 -0.5835374 -0.8120863
outer loop
	vertex 3.2004 -46.98711 -130.7502
	vertex -3.2004 -57.29673 -123.3421
	vertex -3.2004 -46.98711 -130.7502
endloop
endfacet
facet normal 0 -0.5835374 -0.8120863
outer loop
	vertex 3.2004 -45.02814 -132.1579
	vertex 3.2004 -46.98711 -130.7502
	vertex -3.2004 -46.98711 -130.7502
endloop
endfacet
facet normal 0 -0.5835374 -0.8120863
outer loop
	vertex 3.2004 -45.02814 -132.1579
	vertex -3.2004 -46.98711 -130.7502
	vertex -3.2004 -45.02814 -132.1579
endloop
endfacet
facet normal 0 -0.7878929 -0.6158123
outer loop
	vertex 3.2004 -78.62091 -102.8266
	vertex 3.2004 -88.28606 -90.46056
	vertex -3.2004 -78.62091 -102.8266
endloop
endfacet
facet normal 0 -0.7878929 -0.6158123
outer loop
	vertex -3.2004 -88.28606 -90.46056
	vertex -3.2004 -78.62091 -102.8266
	vertex 3.2004 -88.28606 -90.46056
endloop
endfacet
facet normal 0 -0.8452075 -0.5344383
outer loop
	vertex -3.2004 -88.28606 -90.46056
	vertex 3.2004 -88.28606 -90.46056
	vertex 3.2004 -96.36006 -77.69164
endloop
endfacet
facet normal 0 -0.8452075 -0.5344383
outer loop
	vertex -3.2004 -96.36006 -77.69164
	vertex -3.2004 -88.28606 -90.46056
	vertex 3.2004 -96.36006 -77.69164
endloop
endfacet
facet normal 0 -0.8925292 -0.4509896
outer loop
	vertex -3.2004 -96.36006 -77.69164
	vertex 3.2004 -96.36006 -77.69164
	vertex 3.2004 -103.1734 -64.20777
endloop
endfacet
facet normal 0 -0.8925292 -0.4509896
outer loop
	vertex -3.2004 -103.1734 -64.20777
	vertex -3.2004 -96.36006 -77.69164
	vertex 3.2004 -103.1734 -64.20777
endloop
endfacet
facet normal 0 -0.9316375 -0.363389
outer loop
	vertex -3.2004 -103.1734 -64.20777
	vertex 3.2004 -103.1734 -64.20777
	vertex 3.2004 -108.6633 -50.13309
endloop
endfacet
facet normal 0 -0.9316375 -0.363389
outer loop
	vertex -3.2004 -108.6633 -50.13309
	vertex -3.2004 -103.1734 -64.20777
	vertex 3.2004 -108.6633 -50.13309
endloop
endfacet
facet normal 0 -0.9621699 -0.27245
outer loop
	vertex -3.2004 -108.6633 -50.13309
	vertex 3.2004 -108.6633 -50.13309
	vertex 3.2004 -112.7792 -35.59713
endloop
endfacet
facet normal 0 -0.9621699 -0.27245
outer loop
	vertex -3.2004 -112.7792 -35.59713
	vertex -3.2004 -108.6633 -50.13309
	vertex 3.2004 -112.7792 -35.59713
endloop
endfacet
facet normal 0 -0.983849 -0.1789998
outer loop
	vertex -3.2004 -112.7792 -35.59713
	vertex 3.2004 -112.7792 -35.59713
	vertex 3.2004 -115.4834 -20.73365
endloop
endfacet
facet normal 0 -0.983849 -0.1789998
outer loop
	vertex -3.2004 -115.4834 -20.73365
	vertex -3.2004 -112.7792 -35.59713
	vertex 3.2004 -115.4834 -20.73365
endloop
endfacet
facet normal 0 -0.9964742 -0.08390035
outer loop
	vertex -3.2004 -115.4834 -20.73365
	vertex 3.2004 -115.4834 -20.73365
	vertex 3.2004 -116.7509 -5.67945
endloop
endfacet
facet normal 0 -0.9964742 -0.08390035
outer loop
	vertex -3.2004 -116.7509 -5.67945
	vertex -3.2004 -115.4834 -20.73365
	vertex 3.2004 -116.7509 -5.67945
endloop
endfacet
facet normal 0 -0.9999284 0.01196998
outer loop
	vertex -3.2004 -116.7509 -5.67945
	vertex 3.2004 -116.7509 -5.67945
	vertex 3.2004 -116.57 9.42694
endloop
endfacet
facet normal 0 -0.9999284 0.01196998
outer loop
	vertex -3.2004 -116.57 9.42694
	vertex -3.2004 -116.7509 -5.67945
	vertex 3.2004 -116.57 9.42694
endloop
endfacet
facet normal 0 -0.9941802 0.10773
outer loop
	vertex -3.2004 -116.57 9.42694
	vertex 3.2004 -116.57 9.42694
	vertex 3.2004 -114.9424 24.44647
endloop
endfacet
facet normal 0 -0.9941802 0.10773
outer loop
	vertex -3.2004 -114.9424 24.44647
	vertex -3.2004 -116.57 9.42694
	vertex 3.2004 -114.9424 24.44647
endloop
endfacet
facet normal 0 -0.9792821 0.2025004
outer loop
	vertex -3.2004 -114.9424 24.44647
	vertex 3.2004 -114.9424 24.44647
	vertex 3.2004 -111.8831 39.24093
endloop
endfacet
facet normal 0 -0.9792821 0.2025004
outer loop
	vertex -3.2004 -111.8831 39.24093
	vertex -3.2004 -114.9424 24.44647
	vertex 3.2004 -111.8831 39.24093
endloop
endfacet
facet normal 0 -0.9553705 0.2954102
outer loop
	vertex -3.2004 -111.8831 39.24093
	vertex 3.2004 -111.8831 39.24093
	vertex 3.2004 -107.4202 53.67417
endloop
endfacet
facet normal 0 -0.9553705 0.2954102
outer loop
	vertex -3.2004 -107.4202 53.67417
	vertex -3.2004 -111.8831 39.24093
	vertex 3.2004 -107.4202 53.67417
endloop
endfacet
facet normal 0 -0.9226702 0.38559
outer loop
	vertex -3.2004 -107.4202 53.67417
	vertex 3.2004 -107.4202 53.67417
	vertex 3.2004 -101.5949 67.61335
endloop
endfacet
facet normal 0 -0.9226702 0.38559
outer loop
	vertex -3.2004 -101.5949 67.61335
	vertex -3.2004 -107.4202 53.67417
	vertex 3.2004 -101.5949 67.61335
endloop
endfacet
facet normal 0 -0.8814742 0.4722322
outer loop
	vertex -3.2004 -101.5949 67.61335
	vertex 3.2004 -101.5949 67.61335
	vertex 3.2004 -94.46066 80.93019
endloop
endfacet
facet normal 0 -0.8814742 0.4722322
outer loop
	vertex -3.2004 -94.46066 80.93019
	vertex -3.2004 -101.5949 67.61335
	vertex 3.2004 -94.46066 80.93019
endloop
endfacet
facet normal 0 -0.8321703 0.5545202
outer loop
	vertex -3.2004 -94.46066 80.93019
	vertex 3.2004 -94.46066 80.93019
	vertex 3.2004 -86.08321 93.50214
endloop
endfacet
facet normal 0 -0.8321703 0.5545202
outer loop
	vertex -3.2004 -86.08321 93.50214
	vertex -3.2004 -94.46066 80.93019
	vertex 3.2004 -86.08321 93.50214
endloop
endfacet
facet normal 0 -0.7752029 0.6317123
outer loop
	vertex -3.2004 -86.08321 93.50214
	vertex 3.2004 -86.08321 93.50214
	vertex -3.2004 -78.15054 103.2367
endloop
endfacet
facet normal 0 -0.7752029 0.6317123
outer loop
	vertex -3.2004 -78.15054 103.2367
	vertex 3.2004 -86.08321 93.50214
	vertex 3.2004 -78.15054 103.2367
endloop
endfacet
facet normal 0 -0.7752029 0.6317123
outer loop
	vertex -3.2004 -76.53964 105.2135
	vertex -3.2004 -78.15054 103.2367
	vertex 3.2004 -78.15054 103.2367
endloop
endfacet
facet normal 0 -0.7752029 0.6317123
outer loop
	vertex -3.2004 -76.53964 105.2135
	vertex 3.2004 -78.15054 103.2367
	vertex 3.2004 -76.53964 105.2135
endloop
endfacet
facet normal 0 -0.6404608 0.7679909
outer loop
	vertex -3.2004 -59.35501 121.4295
	vertex -3.2004 -65.91779 115.9565
	vertex 3.2004 -65.91779 115.9565
endloop
endfacet
facet normal 0 -0.6404608 0.7679909
outer loop
	vertex -3.2004 -59.35501 121.4295
	vertex 3.2004 -65.91779 115.9565
	vertex 3.2004 -59.35501 121.4295
endloop
endfacet
facet normal 0 -0.6404608 0.7679909
outer loop
	vertex -3.2004 -54.31539 125.6322
	vertex -3.2004 -59.35501 121.4295
	vertex 3.2004 -59.35501 121.4295
endloop
endfacet
facet normal 0 -0.6404608 0.7679909
outer loop
	vertex -3.2004 -54.31539 125.6322
	vertex 3.2004 -59.35501 121.4295
	vertex 3.2004 -54.31539 125.6322
endloop
endfacet
facet normal 0 -0.5639197 0.8258296
outer loop
	vertex -3.2004 -46.98707 130.6364
	vertex -3.2004 -54.31539 125.6322
	vertex 3.2004 -54.31539 125.6322
endloop
endfacet
facet normal 0 -0.5639197 0.8258296
outer loop
	vertex -3.2004 -46.98707 130.6364
	vertex 3.2004 -54.31539 125.6322
	vertex 3.2004 -46.98707 130.6364
endloop
endfacet
facet normal 0 -0.5639197 0.8258296
outer loop
	vertex -3.2004 -41.83923 134.1516
	vertex -3.2004 -46.98707 130.6364
	vertex 3.2004 -46.98707 130.6364
endloop
endfacet
facet normal 0 -0.5639197 0.8258296
outer loop
	vertex -3.2004 -41.83923 134.1516
	vertex 3.2004 -46.98707 130.6364
	vertex 3.2004 -41.83923 134.1516
endloop
endfacet
facet normal 0 -0.3960291 0.918238
outer loop
	vertex -3.2004 -19.44653 145.386
	vertex -3.2004 -28.60413 141.4364
	vertex 3.2004 -28.60413 141.4364
endloop
endfacet
facet normal 0 -0.3960291 0.918238
outer loop
	vertex -3.2004 -19.44653 145.386
	vertex 3.2004 -28.60413 141.4364
	vertex 3.2004 -19.44653 145.386
endloop
endfacet
facet normal 0 -0.3960291 0.918238
outer loop
	vertex -3.2004 -14.73189 147.4194
	vertex -3.2004 -19.44653 145.386
	vertex 3.2004 -19.44653 145.386
endloop
endfacet
facet normal 0 -0.3960291 0.918238
outer loop
	vertex -3.2004 -14.73189 147.4194
	vertex 3.2004 -19.44653 145.386
	vertex 3.2004 -14.73189 147.4194
endloop
endfacet
facet normal 0 -0.3062202 0.9519607
outer loop
	vertex -3.2004 -14.73189 147.4194
	vertex 3.2004 -14.73189 147.4194
	vertex 3.2004 -0.35018 152.0456
endloop
endfacet
facet normal 0 -0.3062202 0.9519607
outer loop
	vertex -3.2004 -0.35018 152.0456
	vertex -3.2004 -14.73189 147.4194
	vertex 3.2004 -0.35018 152.0456
endloop
endfacet
facet normal 0 -0.2135907 0.9769232
outer loop
	vertex -3.2004 -0.35018 152.0456
	vertex 3.2004 -0.35018 152.0456
	vertex 3.2004 14.40864 155.2725
endloop
endfacet
facet normal 0 -0.2135907 0.9769232
outer loop
	vertex -3.2004 14.40864 155.2725
	vertex -3.2004 -0.35018 152.0456
	vertex 3.2004 14.40864 155.2725
endloop
endfacet
facet normal 0 -0.1189931 0.9928951
outer loop
	vertex -3.2004 14.40864 155.2725
	vertex 3.2004 14.40864 155.2725
	vertex -3.2004 15.47788 155.4006
endloop
endfacet
facet normal 0 -0.1189968 0.9928946
outer loop
	vertex -3.2004 15.47788 155.4006
	vertex 3.2004 14.40864 155.2725
	vertex 3.2004 15.47788 155.4006
endloop
endfacet
facet normal 0 -0.1190005 0.9928942
outer loop
	vertex -3.2004 29.40876 157.0702
	vertex -3.2004 15.47788 155.4006
	vertex 3.2004 15.47788 155.4006
endloop
endfacet
facet normal 0 -0.1190005 0.9928942
outer loop
	vertex -3.2004 29.40876 157.0702
	vertex 3.2004 15.47788 155.4006
	vertex 3.2004 29.40876 157.0702
endloop
endfacet
facet normal 0 -0.02330996 0.9997283
outer loop
	vertex -3.2004 29.40876 157.0702
	vertex 3.2004 29.40876 157.0702
	vertex 3.2004 44.51212 157.4224
endloop
endfacet
facet normal 0 -0.02330996 0.9997283
outer loop
	vertex -3.2004 44.51212 157.4224
	vertex -3.2004 29.40876 157.0702
	vertex 3.2004 44.51212 157.4224
endloop
endfacet
facet normal 0 0.07259014 0.9973618
outer loop
	vertex -3.2004 44.51212 157.4224
	vertex 3.2004 44.51212 157.4224
	vertex 3.2004 59.57972 156.3257
endloop
endfacet
facet normal 0 0.07259014 0.9973618
outer loop
	vertex -3.2004 59.57972 156.3257
	vertex -3.2004 44.51212 157.4224
	vertex 3.2004 59.57972 156.3257
endloop
endfacet
facet normal 0 0.1678293 0.9858161
outer loop
	vertex -3.2004 59.57972 156.3257
	vertex 3.2004 59.57972 156.3257
	vertex -3.2004 61.03278 156.0783
endloop
endfacet
facet normal 0 0.1678293 0.9858161
outer loop
	vertex -3.2004 61.03278 156.0783
	vertex 3.2004 59.57972 156.3257
	vertex 3.2004 61.03278 156.0783
endloop
endfacet
facet normal 0 0.1678293 0.9858161
outer loop
	vertex -3.2004 74.47289 153.7902
	vertex -3.2004 61.03278 156.0783
	vertex 3.2004 61.03278 156.0783
endloop
endfacet
facet normal 0 0.1678293 0.9858161
outer loop
	vertex -3.2004 74.47289 153.7902
	vertex 3.2004 61.03278 156.0783
	vertex 3.2004 74.47289 153.7902
endloop
endfacet
facet normal 0 0.3527996 0.9356989
outer loop
	vertex -3.2004 94.22105 147.8913
	vertex -3.2004 89.0546 149.8393
	vertex 3.2004 89.0546 149.8393
endloop
endfacet
facet normal 0 0.3527996 0.9356989
outer loop
	vertex -3.2004 94.22105 147.8913
	vertex 3.2004 89.0546 149.8393
	vertex 3.2004 94.22105 147.8913
endloop
endfacet
facet normal 0 0.3528025 0.9356978
outer loop
	vertex -3.2004 100.8649 145.3863
	vertex -3.2004 94.22105 147.8913
	vertex 3.2004 94.22105 147.8913
endloop
endfacet
facet normal 0 0.3528054 0.9356967
outer loop
	vertex -3.2004 100.8649 145.3863
	vertex 3.2004 94.22105 147.8913
	vertex 3.2004 100.8649 145.3863
endloop
endfacet
facet normal 0 0.3528083 0.9356956
outer loop
	vertex -3.2004 103.1906 144.5093
	vertex -3.2004 100.8649 145.3863
	vertex 3.2004 100.8649 145.3863
endloop
endfacet
facet normal 0 0.3528083 0.9356956
outer loop
	vertex -3.2004 103.1906 144.5093
	vertex 3.2004 100.8649 145.3863
	vertex 3.2004 103.1906 144.5093
endloop
endfacet
facet normal 0 0.4408422 0.8975846
outer loop
	vertex 3.2004 116.7509 137.8493
	vertex -3.2004 116.7509 137.8493
	vertex -3.2004 103.1906 144.5093
endloop
endfacet
facet normal 0 0.4408422 0.8975846
outer loop
	vertex 3.2004 116.7509 137.8493
	vertex -3.2004 103.1906 144.5093
	vertex 3.2004 103.1906 144.5093
endloop
endfacet
facet normal 0 0.2615195 0.9651982
outer loop
	vertex -3.2004 89.0546 149.8393
	vertex -3.2004 74.47289 153.7902
	vertex 3.2004 89.0546 149.8393
endloop
endfacet
facet normal 0 0.2615195 0.9651982
outer loop
	vertex 3.2004 74.47289 153.7902
	vertex 3.2004 89.0546 149.8393
	vertex -3.2004 74.47289 153.7902
endloop
endfacet
facet normal 0 -0.4822005 0.8760609
outer loop
	vertex -3.2004 -28.60413 141.4364
	vertex -3.2004 -41.83923 134.1516
	vertex 3.2004 -28.60413 141.4364
endloop
endfacet
facet normal 0 -0.4822005 0.8760609
outer loop
	vertex 3.2004 -41.83923 134.1516
	vertex 3.2004 -28.60413 141.4364
	vertex -3.2004 -41.83923 134.1516
endloop
endfacet
facet normal 0 -0.7111005 0.7030905
outer loop
	vertex -3.2004 -65.91779 115.9565
	vertex -3.2004 -76.53964 105.2135
	vertex 3.2004 -65.91779 115.9565
endloop
endfacet
facet normal 0 -0.7111005 0.7030905
outer loop
	vertex 3.2004 -76.53964 105.2135
	vertex 3.2004 -65.91779 115.9565
	vertex -3.2004 -76.53964 105.2135
endloop
endfacet
facet normal 0 1 0
outer loop
	vertex 3.2004 116.7508 -121.4488
	vertex 3.2004 116.7508 -137.8687
	vertex -3.2004 116.7508 -137.8687
endloop
endfacet
facet normal 0 1 0
outer loop
	vertex 3.2004 116.7508 -121.4488
	vertex -3.2004 116.7508 -137.8687
	vertex -3.2004 116.7508 -121.4488
endloop
endfacet
facet normal 0 1 0
outer loop
	vertex 3.2004 116.7508 -103.2561
	vertex 3.2004 116.7508 -121.4488
	vertex -3.2004 116.7508 -121.4488
endloop
endfacet
facet normal 0 1 0
outer loop
	vertex 3.2004 116.7508 -103.2561
	vertex -3.2004 116.7508 -121.4488
	vertex -3.2004 116.7508 -103.2561
endloop
endfacet
facet normal 0 1 0
outer loop
	vertex 3.2004 116.7509 103.2367
	vertex 3.2004 116.7508 -103.2561
	vertex -3.2004 116.7508 -103.2561
endloop
endfacet
facet normal 0 1 0
outer loop
	vertex 3.2004 116.7509 103.2367
	vertex -3.2004 116.7508 -103.2561
	vertex -3.2004 116.7509 103.2367
endloop
endfacet
facet normal 0 1 0
outer loop
	vertex 3.2004 116.7509 121.4294
	vertex 3.2004 116.7509 103.2367
	vertex -3.2004 116.7509 103.2367
endloop
endfacet
facet normal 0 1 0
outer loop
	vertex 3.2004 116.7509 121.4294
	vertex -3.2004 116.7509 103.2367
	vertex -3.2004 116.7509 121.4294
endloop
endfacet
facet normal 0 1 0
outer loop
	vertex 3.2004 116.7509 137.8493
	vertex 3.2004 116.7509 121.4294
	vertex -3.2004 116.7509 121.4294
endloop
endfacet
facet normal 0 1 0
outer loop
	vertex 3.2004 116.7509 137.8493
	vertex -3.2004 116.7509 121.4294
	vertex -3.2004 116.7509 137.8493
endloop
endfacet
facet normal 0 0.3540846 -0.9352134
outer loop
	vertex -3.2004 94.22102 -147.9175
	vertex -3.2004 103.3226 -144.4715
	vertex 3.2004 103.3226 -144.4715
endloop
endfacet
facet normal 0 0.3540876 -0.9352124
outer loop
	vertex -3.2004 94.22102 -147.9175
	vertex 3.2004 103.3226 -144.4715
	vertex 3.2004 94.22102 -147.9175
endloop
endfacet
facet normal 0 0.3540905 -0.9352112
outer loop
	vertex -3.2004 89.32835 -149.7699
	vertex -3.2004 94.22102 -147.9175
	vertex 3.2004 94.22102 -147.9175
endloop
endfacet
facet normal 0 0.3540905 -0.9352112
outer loop
	vertex -3.2004 89.32835 -149.7699
	vertex 3.2004 94.22102 -147.9175
	vertex 3.2004 89.32835 -149.7699
endloop
endfacet
facet normal 0 0.1709808 -0.9852743
outer loop
	vertex -3.2004 60.59187 -156.1982
	vertex -3.2004 74.89437 -153.7162
	vertex 3.2004 74.89437 -153.7162
endloop
endfacet
facet normal 0 0.1709808 -0.9852743
outer loop
	vertex -3.2004 60.59187 -156.1982
	vertex 3.2004 74.89437 -153.7162
	vertex 3.2004 60.59187 -156.1982
endloop
endfacet
facet normal 0 0.07943998 -0.9968396
outer loop
	vertex -3.2004 60.59187 -156.1982
	vertex 3.2004 60.59187 -156.1982
	vertex 3.2004 45.23133 -157.4224
endloop
endfacet
facet normal 0 0.07943998 -0.9968396
outer loop
	vertex -3.2004 45.23133 -157.4224
	vertex -3.2004 60.59187 -156.1982
	vertex 3.2004 45.23133 -157.4224
endloop
endfacet
facet normal 0 -0.01828005 -0.9998329
outer loop
	vertex -3.2004 45.23133 -157.4224
	vertex 3.2004 45.23133 -157.4224
	vertex 3.2004 30.2701 -157.1488
endloop
endfacet
facet normal 0 -0.01828005 -0.9998329
outer loop
	vertex -3.2004 30.2701 -157.1488
	vertex -3.2004 45.23133 -157.4224
	vertex 3.2004 30.2701 -157.1488
endloop
endfacet
facet normal 0 -0.1131004 -0.9935835
outer loop
	vertex -3.2004 30.2701 -157.1488
	vertex 3.2004 30.2701 -157.1488
	vertex -3.2004 15.44012 -155.4607
endloop
endfacet
facet normal 0 -0.1131004 -0.9935835
outer loop
	vertex -3.2004 15.44012 -155.4607
	vertex 3.2004 30.2701 -157.1488
	vertex 3.2004 15.44012 -155.4607
endloop
endfacet
facet normal 0 -0.2066606 -0.9784127
outer loop
	vertex -3.2004 15.44012 -155.4607
	vertex 3.2004 15.44012 -155.4607
	vertex 3.2004 0.76242 -152.3604
endloop
endfacet
facet normal 0 -0.2066606 -0.9784127
outer loop
	vertex -3.2004 0.76242 -152.3604
	vertex -3.2004 15.44012 -155.4607
	vertex 3.2004 0.76242 -152.3604
endloop
endfacet
facet normal 0 -0.2988198 -0.9543095
outer loop
	vertex -3.2004 0.76242 -152.3604
	vertex 3.2004 0.76242 -152.3604
	vertex 3.2004 -13.51762 -147.889
endloop
endfacet
facet normal 0 -0.2988198 -0.9543095
outer loop
	vertex -3.2004 -13.51762 -147.889
	vertex -3.2004 0.76242 -152.3604
	vertex 3.2004 -13.51762 -147.889
endloop
endfacet
facet normal 0 -0.3880409 -0.9216421
outer loop
	vertex -3.2004 -13.51762 -147.889
	vertex 3.2004 -13.51762 -147.889
	vertex -3.2004 -19.44716 -145.3925
endloop
endfacet
facet normal 0 -0.3880409 -0.9216421
outer loop
	vertex -3.2004 -19.44716 -145.3925
	vertex 3.2004 -13.51762 -147.889
	vertex 3.2004 -19.44716 -145.3925
endloop
endfacet
facet normal 0 -0.3880409 -0.9216421
outer loop
	vertex -3.2004 -27.3088 -142.0825
	vertex -3.2004 -19.44716 -145.3925
	vertex 3.2004 -19.44716 -145.3925
endloop
endfacet
facet normal 0 -0.3880409 -0.9216421
outer loop
	vertex -3.2004 -27.3088 -142.0825
	vertex 3.2004 -19.44716 -145.3925
	vertex 3.2004 -27.3088 -142.0825
endloop
endfacet
facet normal 0 0.2637291 -0.9645967
outer loop
	vertex -3.2004 74.89437 -153.7162
	vertex -3.2004 89.32835 -149.7699
	vertex 3.2004 74.89437 -153.7162
endloop
endfacet
facet normal 0 0.2637291 -0.9645967
outer loop
	vertex 3.2004 89.32835 -149.7699
	vertex 3.2004 74.89437 -153.7162
	vertex -3.2004 89.32835 -149.7699
endloop
endfacet
facet normal 0 0.4412517 -0.8973834
outer loop
	vertex -3.2004 103.3226 -144.4715
	vertex -3.2004 116.7508 -137.8687
	vertex 3.2004 103.3226 -144.4715
endloop
endfacet
facet normal 0 0.4412517 -0.8973834
outer loop
	vertex 3.2004 116.7508 -137.8687
	vertex 3.2004 103.3226 -144.4715
	vertex -3.2004 116.7508 -137.8687
endloop
endfacet
facet normal 0 -0.9238311 0.3828005
outer loop
	vertex -3.2004 -27.3088 -142.0825
	vertex 3.2004 -27.3088 -142.0825
	vertex 3.2004 -26.64475 -140.4799
endloop
endfacet
facet normal 0 -0.9238311 0.3828005
outer loop
	vertex -3.2004 -26.64475 -140.4799
	vertex -3.2004 -27.3088 -142.0825
	vertex 3.2004 -26.64475 -140.4799
endloop
endfacet
facet normal 0 -0.9754866 0.2200592
outer loop
	vertex -3.2004 -26.64475 -140.4799
	vertex 3.2004 -26.64475 -140.4799
	vertex 3.2004 -26.263 -138.7877
endloop
endfacet
facet normal 0 -0.9754866 0.2200592
outer loop
	vertex -3.2004 -26.263 -138.7877
	vertex -3.2004 -26.64475 -140.4799
	vertex 3.2004 -26.263 -138.7877
endloop
endfacet
facet normal 0 -0.9987032 0.05091016
outer loop
	vertex -3.2004 -26.263 -138.7877
	vertex 3.2004 -26.263 -138.7877
	vertex 3.2004 -26.17469 -137.0552
endloop
endfacet
facet normal 0 -0.9987032 0.05091016
outer loop
	vertex -3.2004 -26.17469 -137.0552
	vertex -3.2004 -26.263 -138.7877
	vertex 3.2004 -26.17469 -137.0552
endloop
endfacet
facet normal 0 -0.9928066 -0.1197296
outer loop
	vertex -3.2004 -26.17469 -137.0552
	vertex 3.2004 -26.17469 -137.0552
	vertex 3.2004 -26.38239 -135.3329
endloop
endfacet
facet normal 0 -0.9928066 -0.1197296
outer loop
	vertex -3.2004 -26.38239 -135.3329
	vertex -3.2004 -26.17469 -137.0552
	vertex 3.2004 -26.38239 -135.3329
endloop
endfacet
facet normal 0 -0.9579668 -0.286879
outer loop
	vertex -3.2004 -26.38239 -135.3329
	vertex 3.2004 -26.38239 -135.3329
	vertex 3.2004 -26.88004 -133.6712
endloop
endfacet
facet normal 0 -0.9579668 -0.286879
outer loop
	vertex -3.2004 -26.88004 -133.6712
	vertex -3.2004 -26.38239 -135.3329
	vertex 3.2004 -26.88004 -133.6712
endloop
endfacet
facet normal 0 -0.8952019 -0.4456609
outer loop
	vertex -3.2004 -26.88004 -133.6712
	vertex 3.2004 -26.88004 -133.6712
	vertex 3.2004 -27.65314 -132.1182
endloop
endfacet
facet normal 0 -0.8952019 -0.4456609
outer loop
	vertex -3.2004 -27.65314 -132.1182
	vertex -3.2004 -26.88004 -133.6712
	vertex 3.2004 -27.65314 -132.1182
endloop
endfacet
facet normal 0 -0.8063411 -0.5914508
outer loop
	vertex -3.2004 -27.65314 -132.1182
	vertex 3.2004 -27.65314 -132.1182
	vertex 3.2004 -28.67915 -130.7195
endloop
endfacet
facet normal 0 -0.8063411 -0.5914508
outer loop
	vertex -3.2004 -28.67915 -130.7195
	vertex -3.2004 -27.65314 -132.1182
	vertex 3.2004 -28.67915 -130.7195
endloop
endfacet
facet normal 0 -0.693967 -0.7200068
outer loop
	vertex -3.2004 -28.67915 -130.7195
	vertex 3.2004 -28.67915 -130.7195
	vertex 3.2004 -29.92815 -129.5156
endloop
endfacet
facet normal 0 -0.693967 -0.7200068
outer loop
	vertex -3.2004 -29.92815 -129.5156
	vertex -3.2004 -28.67915 -130.7195
	vertex 3.2004 -29.92815 -129.5156
endloop
endfacet
facet normal 0 -0.5613676 -0.8275665
outer loop
	vertex -3.2004 -29.92815 -129.5156
	vertex 3.2004 -29.92815 -129.5156
	vertex 3.2004 -31.36374 -128.5418
endloop
endfacet
facet normal 0 -0.5613676 -0.8275665
outer loop
	vertex -3.2004 -31.36374 -128.5418
	vertex -3.2004 -29.92815 -129.5156
	vertex 3.2004 -31.36374 -128.5418
endloop
endfacet
facet normal 0 -0.412389 -0.9110079
outer loop
	vertex -3.2004 -31.36374 -128.5418
	vertex 3.2004 -31.36374 -128.5418
	vertex 3.2004 -32.94408 -127.8264
endloop
endfacet
facet normal 0 -0.412389 -0.9110079
outer loop
	vertex -3.2004 -32.94408 -127.8264
	vertex -3.2004 -31.36374 -128.5418
	vertex 3.2004 -32.94408 -127.8264
endloop
endfacet
facet normal 0 -0.2514313 -0.9678752
outer loop
	vertex -3.2004 -32.94408 -127.8264
	vertex 3.2004 -32.94408 -127.8264
	vertex 3.2004 -34.62307 -127.3903
endloop
endfacet
facet normal 0 -0.2514313 -0.9678752
outer loop
	vertex -3.2004 -34.62307 -127.3903
	vertex -3.2004 -32.94408 -127.8264
	vertex 3.2004 -34.62307 -127.3903
endloop
endfacet
facet normal 0 -0.08308024 -0.9965429
outer loop
	vertex -3.2004 -34.62307 -127.3903
	vertex 3.2004 -34.62307 -127.3903
	vertex 3.2004 -36.35179 -127.2461
endloop
endfacet
facet normal 0 -0.08308024 -0.9965429
outer loop
	vertex -3.2004 -36.35179 -127.2461
	vertex -3.2004 -34.62307 -127.3903
	vertex 3.2004 -36.35179 -127.2461
endloop
endfacet
facet normal 0 0.08763027 -0.9961531
outer loop
	vertex -3.2004 -36.35179 -127.2461
	vertex 3.2004 -36.35179 -127.2461
	vertex 3.2004 -38.07983 -127.3981
endloop
endfacet
facet normal 0 0.08763027 -0.9961531
outer loop
	vertex -3.2004 -38.07983 -127.3981
	vertex -3.2004 -36.35179 -127.2461
	vertex 3.2004 -38.07983 -127.3981
endloop
endfacet
facet normal 0 0.2558398 -0.9667192
outer loop
	vertex -3.2004 -38.07983 -127.3981
	vertex 3.2004 -38.07983 -127.3981
	vertex 3.2004 -39.75683 -127.8419
endloop
endfacet
facet normal 0 0.2558398 -0.9667192
outer loop
	vertex -3.2004 -39.75683 -127.8419
	vertex -3.2004 -38.07983 -127.3981
	vertex 3.2004 -39.75683 -127.8419
endloop
endfacet
facet normal 0 0.4165511 -0.9091123
outer loop
	vertex -3.2004 -39.75683 -127.8419
	vertex 3.2004 -39.75683 -127.8419
	vertex 3.2004 -41.33388 -128.5645
endloop
endfacet
facet normal 0 0.4165511 -0.9091123
outer loop
	vertex -3.2004 -41.33388 -128.5645
	vertex -3.2004 -39.75683 -127.8419
	vertex 3.2004 -41.33388 -128.5645
endloop
endfacet
facet normal 0 0.5651309 -0.8250013
outer loop
	vertex -3.2004 -41.33388 -128.5645
	vertex 3.2004 -41.33388 -128.5645
	vertex 3.2004 -42.76502 -129.5449
endloop
endfacet
facet normal 0 0.5651309 -0.8250013
outer loop
	vertex -3.2004 -42.76502 -129.5449
	vertex -3.2004 -41.33388 -128.5645
	vertex 3.2004 -42.76502 -129.5449
endloop
endfacet
facet normal 0 0.697249 -0.716829
outer loop
	vertex -3.2004 -42.76502 -129.5449
	vertex 3.2004 -42.76502 -129.5449
	vertex 3.2004 -44.00853 -130.7544
endloop
endfacet
facet normal 0 0.697249 -0.716829
outer loop
	vertex -3.2004 -44.00853 -130.7544
	vertex -3.2004 -42.76502 -129.5449
	vertex 3.2004 -44.00853 -130.7544
endloop
endfacet
facet normal 0 0.8090287 -0.587769
outer loop
	vertex 3.2004 -45.02814 -132.1579
	vertex -3.2004 -44.00853 -130.7544
	vertex 3.2004 -44.00853 -130.7544
endloop
endfacet
facet normal 0 0.8090287 -0.587769
outer loop
	vertex 3.2004 -45.02814 -132.1579
	vertex -3.2004 -45.02814 -132.1579
	vertex -3.2004 -44.00853 -130.7544
endloop
endfacet
endsolid plate_0_logo
