solid plate_2_logo
facet normal -1 0 0
outer loop
	vertex -3.2004 104.3416 128.2383
	vertex -3.2004 -2.04993 8.82838
	vertex -3.2004 98.84062 132.1997
endloop
endfacet
facet normal -1 0 0
outer loop
	vertex -3.2004 98.84062 132.1997
	vertex -3.2004 -2.04993 8.82838
	vertex -3.2004 86.47429 139.3379
endloop
endfacet
facet normal -1 0 0
outer loop
	vertex -3.2004 111.7125 122.9301
	vertex -3.2004 -2.04993 8.82838
	vertex -3.2004 104.3416 128.2383
endloop
endfacet
facet normal -1 0 0
outer loop
	vertex -3.2004 86.47429 139.3379
	vertex -3.2004 -2.04993 8.82838
	vertex -3.2004 84.7424 140.3342
endloop
endfacet
facet normal -1 0 0
outer loop
	vertex -3.2004 123.7281 112.2591
	vertex -3.2004 -2.04993 8.82838
	vertex -3.2004 111.7125 122.9301
endloop
endfacet
facet normal -1 0 0
outer loop
	vertex -3.2004 84.7424 140.3342
	vertex -3.2004 -2.04993 8.82838
	vertex -3.2004 76.9493 143.8138
endloop
endfacet
facet normal -1 0 0
outer loop
	vertex -3.2004 134.5935 100.4191
	vertex -3.2004 -2.04993 8.82838
	vertex -3.2004 123.7281 112.2591
endloop
endfacet
facet normal -1 0 0
outer loop
	vertex -3.2004 76.9493 143.8138
	vertex -3.2004 -2.04993 8.82838
	vertex -3.2004 70.06868 146.8859
endloop
endfacet
facet normal -1 0 0
outer loop
	vertex -3.2004 144.1958 87.53345
	vertex -3.2004 -2.04993 8.82838
	vertex -3.2004 134.5935 100.4191
endloop
endfacet
facet normal -1 0 0
outer loop
	vertex -3.2004 70.06868 146.8859
	vertex -3.2004 -2.04993 8.82838
	vertex -3.2004 67.2592 147.8102
endloop
endfacet
facet normal -1 0 0
outer loop
	vertex -3.2004 144.1958 87.53345
	vertex -3.2004 144.1958 77.575
	vertex -3.2004 -2.04993 8.82838
endloop
endfacet
facet normal -1 0 0
outer loop
	vertex -3.2004 67.2592 147.8102
	vertex -3.2004 -2.04993 8.82838
	vertex -3.2004 64.94704 148.571
endloop
endfacet
facet normal -1 0 0
outer loop
	vertex -3.2004 144.1958 47.62501
	vertex -3.2004 -2.04993 8.82838
	vertex -3.2004 144.1958 77.575
endloop
endfacet
facet normal -1 0 0
outer loop
	vertex -3.2004 -2.04993 8.82838
	vertex -3.2004 57.73421 150.944
	vertex -3.2004 64.94704 148.571
endloop
endfacet
facet normal -1 0 0
outer loop
	vertex -3.2004 144.1958 47.62501
	vertex -3.2004 144.1958 9.525
	vertex -3.2004 -2.04993 8.82838
endloop
endfacet
facet normal -1 0 0
outer loop
	vertex -3.2004 -2.04993 8.82838
	vertex -3.2004 54.80363 151.9081
	vertex -3.2004 57.73421 150.944
endloop
endfacet
facet normal -1 0 0
outer loop
	vertex -3.2004 144.1958 9.525
	vertex -3.2004 144.1958 -9.525
	vertex -3.2004 -2.04993 8.82838
endloop
endfacet
facet normal -1 0 0
outer loop
	vertex -3.2004 -2.04993 8.82838
	vertex -3.2004 45.03419 154.0493
	vertex -3.2004 54.80363 151.9081
endloop
endfacet
facet normal -1 0 0
outer loop
	vertex -3.2004 144.1958 -9.525
	vertex -3.2004 144.1958 -28.575
	vertex -3.2004 -2.04993 8.82838
endloop
endfacet
facet normal -1 0 0
outer loop
	vertex -3.2004 39.10626 155.3485
	vertex -3.2004 45.03419 154.0493
	vertex -3.2004 -2.04993 8.82838
endloop
endfacet
facet normal -1 0 0
outer loop
	vertex -3.2004 144.1958 -28.575
	vertex -3.2004 144.1958 -47.62501
	vertex -3.2004 -2.04993 8.82838
endloop
endfacet
facet normal -1 0 0
outer loop
	vertex -3.2004 39.10626 155.3485
	vertex -3.2004 -2.04993 8.82838
	vertex -3.2004 29.15919 156.4841
endloop
endfacet
facet normal -1 0 0
outer loop
	vertex -3.2004 144.1958 -47.62501
	vertex -3.2004 144.1958 -77.57499
	vertex -3.2004 -2.04993 8.82838
endloop
endfacet
facet normal -1 0 0
outer loop
	vertex -3.2004 29.15919 156.4841
	vertex -3.2004 -2.04993 8.82838
	vertex -3.2004 23.14 157.1713
endloop
endfacet
facet normal -1 0 0
outer loop
	vertex -3.2004 144.1958 -87.53344
	vertex -3.2004 -2.04993 8.82838
	vertex -3.2004 144.1958 -77.57499
endloop
endfacet
facet normal -1 0 0
outer loop
	vertex -3.2004 23.14 157.1713
	vertex -3.2004 -2.04993 8.82838
	vertex -3.2004 19.6342 157.2119
endloop
endfacet
facet normal -1 0 0
outer loop
	vertex -3.2004 134.5935 -100.4191
	vertex -3.2004 -2.04993 8.82838
	vertex -3.2004 144.1958 -87.53344
endloop
endfacet
facet normal -1 0 0
outer loop
	vertex -3.2004 19.6342 157.2119
	vertex -3.2004 -2.04993 8.82838
	vertex -3.2004 7.00265 157.3512
endloop
endfacet
facet normal -1 0 0
outer loop
	vertex -3.2004 123.7281 -112.2591
	vertex -3.2004 -2.04993 8.82838
	vertex -3.2004 134.5935 -100.4191
endloop
endfacet
facet normal -1 0 0
outer loop
	vertex -3.2004 7.00265 157.3512
	vertex -3.2004 -2.04993 8.82838
	vertex -3.2004 -8.93309 155.9049
endloop
endfacet
facet normal -1 0 0
outer loop
	vertex -3.2004 111.7125 -122.9301
	vertex -3.2004 -2.04993 8.82838
	vertex -3.2004 123.7281 -112.2591
endloop
endfacet
facet normal -1 0 0
outer loop
	vertex -3.2004 -8.93309 155.9049
	vertex -3.2004 -2.04993 8.82838
	vertex -3.2004 -18.46579 154.0459
endloop
endfacet
facet normal -1 0 0
outer loop
	vertex -3.2004 104.3416 -128.2383
	vertex -3.2004 -2.04993 8.82838
	vertex -3.2004 111.7125 -122.9301
endloop
endfacet
facet normal -1 0 0
outer loop
	vertex -3.2004 -18.46579 154.0459
	vertex -3.2004 -2.04993 8.82838
	vertex -3.2004 -24.70594 152.829
endloop
endfacet
facet normal -1 0 0
outer loop
	vertex -3.2004 104.3416 -128.2383
	vertex -3.2004 98.84062 -132.1997
	vertex -3.2004 -2.04993 8.82838
endloop
endfacet
facet normal -1 0 0
outer loop
	vertex -3.2004 -24.70594 152.829
	vertex -3.2004 -2.04993 8.82838
	vertex -3.2004 -30.9118 150.9454
endloop
endfacet
facet normal -1 0 0
outer loop
	vertex -3.2004 -2.04993 8.82838
	vertex -3.2004 98.84062 -132.1997
	vertex -3.2004 86.47429 -139.3379
endloop
endfacet
facet normal -1 0 0
outer loop
	vertex -3.2004 -30.9118 150.9454
	vertex -3.2004 -2.04993 8.82838
	vertex -3.2004 -38.73466 148.571
endloop
endfacet
facet normal -1 0 0
outer loop
	vertex -3.2004 84.7424 -140.3341
	vertex -3.2004 -2.04993 8.82838
	vertex -3.2004 86.47429 -139.3379
endloop
endfacet
facet normal -1 0 0
outer loop
	vertex -3.2004 -38.73466 148.571
	vertex -3.2004 -2.04993 8.82838
	vertex -3.2004 -40.08319 148.1617
endloop
endfacet
facet normal -1 0 0
outer loop
	vertex -3.2004 76.9493 -143.8137
	vertex -3.2004 -2.04993 8.82838
	vertex -3.2004 84.7424 -140.3341
endloop
endfacet
facet normal -1 0 0
outer loop
	vertex -3.2004 -40.08319 148.1617
	vertex -3.2004 -2.04993 8.82838
	vertex -3.2004 -53.3908 142.5858
endloop
endfacet
facet normal -1 0 0
outer loop
	vertex -3.2004 67.2592 -147.8102
	vertex -3.2004 -2.04993 8.82838
	vertex -3.2004 76.9493 -143.8137
endloop
endfacet
facet normal -1 0 0
outer loop
	vertex -3.2004 -53.3908 142.5858
	vertex -3.2004 -2.04993 8.82838
	vertex -3.2004 -54.90472 141.9515
endloop
endfacet
facet normal -1 0 0
outer loop
	vertex -3.2004 -2.04993 8.82838
	vertex -3.2004 67.2592 -147.8102
	vertex -3.2004 57.73421 -150.944
endloop
endfacet
facet normal -1 0 0
outer loop
	vertex -3.2004 -69.0162 134.2632
	vertex -3.2004 -54.90472 141.9515
	vertex -3.2004 -2.04993 8.82838
endloop
endfacet
facet normal -1 0 0
outer loop
	vertex -3.2004 54.80363 -151.9081
	vertex -3.2004 -2.04993 8.82838
	vertex -3.2004 57.73421 -150.944
endloop
endfacet
facet normal -1 0 0
outer loop
	vertex -3.2004 -69.0162 134.2632
	vertex -3.2004 -2.04993 8.82838
	vertex -3.2004 -72.4408 131.9155
endloop
endfacet
facet normal -1 0 0
outer loop
	vertex -3.2004 45.03419 -154.0493
	vertex -3.2004 -2.04993 8.82838
	vertex -3.2004 54.80363 -151.9081
endloop
endfacet
facet normal -1 0 0
outer loop
	vertex -3.2004 -72.4408 131.9155
	vertex -3.2004 -2.04993 8.82838
	vertex -3.2004 -77.80481 128.2383
endloop
endfacet
facet normal -1 0 0
outer loop
	vertex -3.2004 39.10626 -155.3485
	vertex -3.2004 -2.04993 8.82838
	vertex -3.2004 45.03419 -154.0493
endloop
endfacet
facet normal -1 0 0
outer loop
	vertex -3.2004 -77.80481 128.2383
	vertex -3.2004 -2.04993 8.82838
	vertex -3.2004 -82.27068 125.1768
endloop
endfacet
facet normal -1 0 0
outer loop
	vertex -3.2004 29.1592 -156.4841
	vertex -3.2004 -2.04993 8.82838
	vertex -3.2004 39.10626 -155.3485
endloop
endfacet
facet normal -1 0 0
outer loop
	vertex -3.2004 -2.04993 8.82838
	vertex -3.2004 -85.55991 122.3891
	vertex -3.2004 -82.27068 125.1768
endloop
endfacet
facet normal -1 0 0
outer loop
	vertex -3.2004 23.14 -157.1713
	vertex -3.2004 -2.04993 8.82838
	vertex -3.2004 29.1592 -156.4841
endloop
endfacet
facet normal -1 0 0
outer loop
	vertex -3.2004 -85.55991 122.3891
	vertex -3.2004 -2.04993 8.82838
	vertex -3.2004 -94.53012 114.7868
endloop
endfacet
facet normal -1 0 0
outer loop
	vertex -3.2004 19.6342 -157.2119
	vertex -3.2004 -2.04993 8.82838
	vertex -3.2004 23.14 -157.1713
endloop
endfacet
facet normal -1 0 0
outer loop
	vertex -3.2004 -94.53012 114.7868
	vertex -3.2004 -2.04993 8.82838
	vertex -3.2004 -105.6669 103.2017
endloop
endfacet
facet normal -1 0 0
outer loop
	vertex -3.2004 -2.04993 8.82838
	vertex -3.2004 19.6342 -157.2119
	vertex -3.2004 7.00266 -157.3512
endloop
endfacet
facet normal -1 0 0
outer loop
	vertex -3.2004 -105.6669 103.2017
	vertex -3.2004 -2.04993 8.82838
	vertex -3.2004 -115.565 90.54185
endloop
endfacet
facet normal -1 0 0
outer loop
	vertex -3.2004 -8.94079 -155.9034
	vertex -3.2004 -2.04993 8.82838
	vertex -3.2004 7.00266 -157.3512
endloop
endfacet
facet normal -1 0 0
outer loop
	vertex -3.2004 -115.565 90.54185
	vertex -3.2004 -2.04993 8.82838
	vertex -3.2004 -117.6242 87.26822
endloop
endfacet
facet normal -1 0 0
outer loop
	vertex -3.2004 -2.04993 8.82838
	vertex -3.2004 -8.94079 -155.9034
	vertex -3.2004 -18.46579 -154.0459
endloop
endfacet
facet normal -1 0 0
outer loop
	vertex -3.2004 -2.04993 8.82838
	vertex -3.2004 -123.9215 77.2571
	vertex -3.2004 -117.6242 87.26822
endloop
endfacet
facet normal -1 0 0
outer loop
	vertex -3.2004 -24.70594 -152.829
	vertex -3.2004 -2.04993 8.82838
	vertex -3.2004 -18.46579 -154.0459
endloop
endfacet
facet normal -1 0 0
outer loop
	vertex -3.2004 -131.247 62.53539
	vertex -3.2004 -123.9215 77.2571
	vertex -3.2004 -2.04993 8.82838
endloop
endfacet
facet normal -1 0 0
outer loop
	vertex -3.2004 -30.91179 -150.9453
	vertex -3.2004 -2.04993 8.82838
	vertex -3.2004 -24.70594 -152.829
endloop
endfacet
facet normal -1 0 0
outer loop
	vertex -3.2004 -131.247 62.53539
	vertex -3.2004 -2.04993 8.82838
	vertex -3.2004 -136.8406 47.5527
endloop
endfacet
facet normal -1 0 0
outer loop
	vertex -3.2004 -40.08319 -148.1617
	vertex -3.2004 -2.04993 8.82838
	vertex -3.2004 -30.91179 -150.9453
endloop
endfacet
facet normal -1 0 0
outer loop
	vertex -3.2004 -140.9246 31.93097
	vertex -3.2004 -136.8406 47.5527
	vertex -3.2004 -2.04993 8.82838
endloop
endfacet
facet normal -1 0 0
outer loop
	vertex -3.2004 -53.3908 -142.5858
	vertex -3.2004 -2.04993 8.82838
	vertex -3.2004 -40.08319 -148.1617
endloop
endfacet
facet normal -1 0 0
outer loop
	vertex -3.2004 -140.9246 31.93097
	vertex -3.2004 -2.04993 8.82838
	vertex -3.2004 -143.3759 16.04905
endloop
endfacet
facet normal -1 0 0
outer loop
	vertex -3.2004 -54.90472 -141.9515
	vertex -3.2004 -2.04993 8.82838
	vertex -3.2004 -53.3908 -142.5858
endloop
endfacet
facet normal -1 0 0
outer loop
	vertex -3.2004 -143.3759 16.04905
	vertex -3.2004 -2.04993 8.82838
	vertex -3.2004 -143.7092 9.525
endloop
endfacet
facet normal -1 0 0
outer loop
	vertex -3.2004 -54.90472 -141.9515
	vertex -3.2004 -69.0162 -134.2632
	vertex -3.2004 -2.04993 8.82838
endloop
endfacet
facet normal -1 0 0
outer loop
	vertex -3.2004 -143.7092 9.525
	vertex -3.2004 -2.04993 8.82838
	vertex -3.2004 -144.1958 1E-05
endloop
endfacet
facet normal -1 0 0
outer loop
	vertex -3.2004 -2.04993 8.82838
	vertex -3.2004 -69.0162 -134.2632
	vertex -3.2004 -72.4408 -131.9154
endloop
endfacet
facet normal -1 0 0
outer loop
	vertex -3.2004 -144.1958 1E-05
	vertex -3.2004 -2.04993 8.82838
	vertex -3.2004 -143.7092 -9.525
endloop
endfacet
facet normal -1 0 0
outer loop
	vertex -3.2004 -2.04993 8.82838
	vertex -3.2004 -72.4408 -131.9154
	vertex -3.2004 -77.80481 -128.2383
endloop
endfacet
facet normal -1 0 0
outer loop
	vertex -3.2004 -143.7092 -9.525
	vertex -3.2004 -2.04993 8.82838
	vertex -3.2004 -143.3759 -16.04904
endloop
endfacet
facet normal -1 0 0
outer loop
	vertex -3.2004 -82.27068 -125.1767
	vertex -3.2004 -2.04993 8.82838
	vertex -3.2004 -77.80481 -128.2383
endloop
endfacet
facet normal -1 0 0
outer loop
	vertex -3.2004 -2.04993 8.82838
	vertex -3.2004 -141.4426 -28.57501
	vertex -3.2004 -143.3759 -16.04904
endloop
endfacet
facet normal -1 0 0
outer loop
	vertex -3.2004 -85.55991 -122.3891
	vertex -3.2004 -2.04993 8.82838
	vertex -3.2004 -82.27068 -125.1767
endloop
endfacet
facet normal -1 0 0
outer loop
	vertex -3.2004 -141.4426 -28.57501
	vertex -3.2004 -2.04993 8.82838
	vertex -3.2004 -140.9246 -31.93096
endloop
endfacet
facet normal -1 0 0
outer loop
	vertex -3.2004 -94.53012 -114.7869
	vertex -3.2004 -2.04993 8.82838
	vertex -3.2004 -85.55991 -122.3891
endloop
endfacet
facet normal -1 0 0
outer loop
	vertex -3.2004 -140.9246 -31.93096
	vertex -3.2004 -2.04993 8.82838
	vertex -3.2004 -136.8406 -47.5527
endloop
endfacet
facet normal -1 0 0
outer loop
	vertex -3.2004 -105.6669 -103.2017
	vertex -3.2004 -2.04993 8.82838
	vertex -3.2004 -94.53012 -114.7869
endloop
endfacet
facet normal -1 0 0
outer loop
	vertex -3.2004 -2.04993 8.82838
	vertex -3.2004 -131.247 -62.53539
	vertex -3.2004 -136.8406 -47.5527
endloop
endfacet
facet normal -1 0 0
outer loop
	vertex -3.2004 -115.565 -90.54183
	vertex -3.2004 -2.04993 8.82838
	vertex -3.2004 -105.6669 -103.2017
endloop
endfacet
facet normal -1 0 0
outer loop
	vertex -3.2004 -2.04993 8.82838
	vertex -3.2004 -123.9215 -77.2571
	vertex -3.2004 -131.247 -62.53539
endloop
endfacet
facet normal -1 0 0
outer loop
	vertex -3.2004 -117.6242 -87.26821
	vertex -3.2004 -2.04993 8.82838
	vertex -3.2004 -115.565 -90.54183
endloop
endfacet
facet normal -1 0 0
outer loop
	vertex -3.2004 -123.9215 -77.2571
	vertex -3.2004 -2.04993 8.82838
	vertex -3.2004 -117.6242 -87.26821
endloop
endfacet
facet normal 1 0 0
outer loop
	vertex 3.2004 -3.10523 10.6375
	vertex 3.2004 -18.46579 -154.0459
	vertex 3.2004 -8.94079 -155.9034
endloop
endfacet
facet normal 1 0 0
outer loop
	vertex 3.2004 -24.70594 -152.829
	vertex 3.2004 -18.46579 -154.0459
	vertex 3.2004 -3.10523 10.6375
endloop
endfacet
facet normal 1 0 0
outer loop
	vertex 3.2004 -30.91179 -150.9453
	vertex 3.2004 -24.70594 -152.829
	vertex 3.2004 -3.10523 10.6375
endloop
endfacet
facet normal 1 0 0
outer loop
	vertex 3.2004 -40.08319 -148.1617
	vertex 3.2004 -30.91179 -150.9453
	vertex 3.2004 -3.10523 10.6375
endloop
endfacet
facet normal 1 0 0
outer loop
	vertex 3.2004 -53.3908 -142.5858
	vertex 3.2004 -40.08319 -148.1617
	vertex 3.2004 -3.10523 10.6375
endloop
endfacet
facet normal 1 0 0
outer loop
	vertex 3.2004 -3.10523 10.6375
	vertex 3.2004 -54.90472 -141.9515
	vertex 3.2004 -53.3908 -142.5858
endloop
endfacet
facet normal 1 0 0
outer loop
	vertex 3.2004 -3.10523 10.6375
	vertex 3.2004 -69.0162 -134.2632
	vertex 3.2004 -54.90472 -141.9515
endloop
endfacet
facet normal 1 0 0
outer loop
	vertex 3.2004 -3.10523 10.6375
	vertex 3.2004 -72.4408 -131.9154
	vertex 3.2004 -69.0162 -134.2632
endloop
endfacet
facet normal 1 0 0
outer loop
	vertex 3.2004 -77.80481 -128.2383
	vertex 3.2004 -72.4408 -131.9154
	vertex 3.2004 -3.10523 10.6375
endloop
endfacet
facet normal 1 0 0
outer loop
	vertex 3.2004 -82.27068 -125.1767
	vertex 3.2004 -77.80481 -128.2383
	vertex 3.2004 -3.10523 10.6375
endloop
endfacet
facet normal 1 0 0
outer loop
	vertex 3.2004 -85.55991 -122.3891
	vertex 3.2004 -82.27068 -125.1767
	vertex 3.2004 -3.10523 10.6375
endloop
endfacet
facet normal 1 0 0
outer loop
	vertex 3.2004 -94.53012 -114.7869
	vertex 3.2004 -85.55991 -122.3891
	vertex 3.2004 -3.10523 10.6375
endloop
endfacet
facet normal 1 0 0
outer loop
	vertex 3.2004 -105.6669 -103.2017
	vertex 3.2004 -94.53012 -114.7869
	vertex 3.2004 -3.10523 10.6375
endloop
endfacet
facet normal 1 0 0
outer loop
	vertex 3.2004 -115.565 -90.54183
	vertex 3.2004 -105.6669 -103.2017
	vertex 3.2004 -3.10523 10.6375
endloop
endfacet
facet normal 1 0 0
outer loop
	vertex 3.2004 -117.6242 -87.26821
	vertex 3.2004 -115.565 -90.54183
	vertex 3.2004 -3.10523 10.6375
endloop
endfacet
facet normal 1 0 0
outer loop
	vertex 3.2004 -117.6242 -87.26821
	vertex 3.2004 -3.10523 10.6375
	vertex 3.2004 -123.9215 -77.2571
endloop
endfacet
facet normal 1 0 0
outer loop
	vertex 3.2004 -123.9215 -77.2571
	vertex 3.2004 -3.10523 10.6375
	vertex 3.2004 -131.247 -62.53539
endloop
endfacet
facet normal 1 0 0
outer loop
	vertex 3.2004 -3.10523 10.6375
	vertex 3.2004 -136.8406 -47.5527
	vertex 3.2004 -131.247 -62.53539
endloop
endfacet
facet normal 1 0 0
outer loop
	vertex 3.2004 -3.10523 10.6375
	vertex 3.2004 -140.9246 -31.93096
	vertex 3.2004 -136.8406 -47.5527
endloop
endfacet
facet normal 1 0 0
outer loop
	vertex 3.2004 -141.4426 -28.57501
	vertex 3.2004 -140.9246 -31.93096
	vertex 3.2004 -3.10523 10.6375
endloop
endfacet
facet normal 1 0 0
outer loop
	vertex 3.2004 -141.4426 -28.57501
	vertex 3.2004 -3.10523 10.6375
	vertex 3.2004 -143.3759 -16.04904
endloop
endfacet
facet normal 1 0 0
outer loop
	vertex 3.2004 -143.3759 -16.04904
	vertex 3.2004 -3.10523 10.6375
	vertex 3.2004 -143.7092 -9.525
endloop
endfacet
facet normal 1 0 0
outer loop
	vertex 3.2004 -143.7092 -9.525
	vertex 3.2004 -3.10523 10.6375
	vertex 3.2004 -144.1958 1E-05
endloop
endfacet
facet normal 1 0 0
outer loop
	vertex 3.2004 -144.1958 1E-05
	vertex 3.2004 -3.10523 10.6375
	vertex 3.2004 -143.7092 9.525
endloop
endfacet
facet normal 1 0 0
outer loop
	vertex 3.2004 -143.3759 16.04905
	vertex 3.2004 -143.7092 9.525
	vertex 3.2004 -3.10523 10.6375
endloop
endfacet
facet normal 1 0 0
outer loop
	vertex 3.2004 -140.9246 31.93097
	vertex 3.2004 -143.3759 16.04905
	vertex 3.2004 -3.10523 10.6375
endloop
endfacet
facet normal 1 0 0
outer loop
	vertex 3.2004 -3.10523 10.6375
	vertex 3.2004 -136.8406 47.5527
	vertex 3.2004 -140.9246 31.93097
endloop
endfacet
facet normal 1 0 0
outer loop
	vertex 3.2004 -131.247 62.53539
	vertex 3.2004 -136.8406 47.5527
	vertex 3.2004 -3.10523 10.6375
endloop
endfacet
facet normal 1 0 0
outer loop
	vertex 3.2004 -131.247 62.53539
	vertex 3.2004 -3.10523 10.6375
	vertex 3.2004 -123.7215 77.575
endloop
endfacet
facet normal 1 0 0
outer loop
	vertex 3.2004 -123.7215 77.575
	vertex 3.2004 -3.10523 10.6375
	vertex 3.2004 -117.6242 87.26822
endloop
endfacet
facet normal 1 0 0
outer loop
	vertex 3.2004 -115.565 90.54185
	vertex 3.2004 -117.6242 87.26822
	vertex 3.2004 -3.10523 10.6375
endloop
endfacet
facet normal 1 0 0
outer loop
	vertex 3.2004 -105.6669 103.2017
	vertex 3.2004 -115.565 90.54185
	vertex 3.2004 -3.10523 10.6375
endloop
endfacet
facet normal 1 0 0
outer loop
	vertex 3.2004 -94.53012 114.7868
	vertex 3.2004 -105.6669 103.2017
	vertex 3.2004 -3.10523 10.6375
endloop
endfacet
facet normal 1 0 0
outer loop
	vertex 3.2004 -85.55991 122.3891
	vertex 3.2004 -94.53012 114.7868
	vertex 3.2004 -3.10523 10.6375
endloop
endfacet
facet normal 1 0 0
outer loop
	vertex 3.2004 -85.55991 122.3891
	vertex 3.2004 -3.10523 10.6375
	vertex 3.2004 -82.27068 125.1768
endloop
endfacet
facet normal 1 0 0
outer loop
	vertex 3.2004 -82.27068 125.1768
	vertex 3.2004 -3.10523 10.6375
	vertex 3.2004 -77.80481 128.2383
endloop
endfacet
facet normal 1 0 0
outer loop
	vertex 3.2004 -72.4408 131.9155
	vertex 3.2004 -77.80481 128.2383
	vertex 3.2004 -3.10523 10.6375
endloop
endfacet
facet normal 1 0 0
outer loop
	vertex 3.2004 -69.0162 134.2632
	vertex 3.2004 -72.4408 131.9155
	vertex 3.2004 -3.10523 10.6375
endloop
endfacet
facet normal 1 0 0
outer loop
	vertex 3.2004 -69.0162 134.2632
	vertex 3.2004 -3.10523 10.6375
	vertex 3.2004 -54.90472 141.9515
endloop
endfacet
facet normal 1 0 0
outer loop
	vertex 3.2004 -54.90472 141.9515
	vertex 3.2004 -3.10523 10.6375
	vertex 3.2004 -53.3908 142.5858
endloop
endfacet
facet normal 1 0 0
outer loop
	vertex 3.2004 -40.08319 148.1617
	vertex 3.2004 -53.3908 142.5858
	vertex 3.2004 -3.10523 10.6375
endloop
endfacet
facet normal 1 0 0
outer loop
	vertex 3.2004 -38.73466 148.571
	vertex 3.2004 -40.08319 148.1617
	vertex 3.2004 -3.10523 10.6375
endloop
endfacet
facet normal 1 0 0
outer loop
	vertex 3.2004 -3.10523 10.6375
	vertex 3.2004 -30.9118 150.9454
	vertex 3.2004 -38.73466 148.571
endloop
endfacet
facet normal 1 0 0
outer loop
	vertex 3.2004 -3.10523 10.6375
	vertex 3.2004 -24.70594 152.829
	vertex 3.2004 -30.9118 150.9454
endloop
endfacet
facet normal 1 0 0
outer loop
	vertex 3.2004 -3.10523 10.6375
	vertex 3.2004 -18.46579 154.0459
	vertex 3.2004 -24.70594 152.829
endloop
endfacet
facet normal 1 0 0
outer loop
	vertex 3.2004 -3.10523 10.6375
	vertex 3.2004 -8.93309 155.9049
	vertex 3.2004 -18.46579 154.0459
endloop
endfacet
facet normal 1 0 0
outer loop
	vertex 3.2004 -3.10523 10.6375
	vertex 3.2004 7.00265 157.3512
	vertex 3.2004 -8.93309 155.9049
endloop
endfacet
facet normal 1 0 0
outer loop
	vertex 3.2004 -3.10523 10.6375
	vertex 3.2004 19.6342 157.2119
	vertex 3.2004 7.00265 157.3512
endloop
endfacet
facet normal 1 0 0
outer loop
	vertex 3.2004 -3.10523 10.6375
	vertex 3.2004 23.14 157.1713
	vertex 3.2004 19.6342 157.2119
endloop
endfacet
facet normal 1 0 0
outer loop
	vertex 3.2004 -3.10523 10.6375
	vertex 3.2004 29.15919 156.4841
	vertex 3.2004 23.14 157.1713
endloop
endfacet
facet normal 1 0 0
outer loop
	vertex 3.2004 -3.10523 10.6375
	vertex 3.2004 39.10626 155.3485
	vertex 3.2004 29.15919 156.4841
endloop
endfacet
facet normal 1 0 0
outer loop
	vertex 3.2004 -3.10523 10.6375
	vertex 3.2004 45.03419 154.0493
	vertex 3.2004 39.10626 155.3485
endloop
endfacet
facet normal 1 0 0
outer loop
	vertex 3.2004 -3.10523 10.6375
	vertex 3.2004 54.80363 151.9081
	vertex 3.2004 45.03419 154.0493
endloop
endfacet
facet normal 1 0 0
outer loop
	vertex 3.2004 -3.10523 10.6375
	vertex 3.2004 57.73421 150.944
	vertex 3.2004 54.80363 151.9081
endloop
endfacet
facet normal 1 0 0
outer loop
	vertex 3.2004 -3.10523 10.6375
	vertex 3.2004 64.94704 148.571
	vertex 3.2004 57.73421 150.944
endloop
endfacet
facet normal 1 0 0
outer loop
	vertex 3.2004 67.2592 147.8102
	vertex 3.2004 64.94704 148.571
	vertex 3.2004 -3.10523 10.6375
endloop
endfacet
facet normal 1 0 0
outer loop
	vertex 3.2004 70.06868 146.8859
	vertex 3.2004 67.2592 147.8102
	vertex 3.2004 -3.10523 10.6375
endloop
endfacet
facet normal 1 0 0
outer loop
	vertex 3.2004 76.9493 143.8138
	vertex 3.2004 70.06868 146.8859
	vertex 3.2004 -3.10523 10.6375
endloop
endfacet
facet normal 1 0 0
outer loop
	vertex 3.2004 84.7424 140.3342
	vertex 3.2004 76.9493 143.8138
	vertex 3.2004 -3.10523 10.6375
endloop
endfacet
facet normal 1 0 0
outer loop
	vertex 3.2004 86.47429 139.3379
	vertex 3.2004 84.7424 140.3342
	vertex 3.2004 -3.10523 10.6375
endloop
endfacet
facet normal 1 0 0
outer loop
	vertex 3.2004 98.84062 132.1997
	vertex 3.2004 86.47429 139.3379
	vertex 3.2004 -3.10523 10.6375
endloop
endfacet
facet normal 1 0 0
outer loop
	vertex 3.2004 104.3416 128.2383
	vertex 3.2004 98.84062 132.1997
	vertex 3.2004 -3.10523 10.6375
endloop
endfacet
facet normal 1 0 0
outer loop
	vertex 3.2004 111.7125 122.9301
	vertex 3.2004 104.3416 128.2383
	vertex 3.2004 -3.10523 10.6375
endloop
endfacet
facet normal 1 0 0
outer loop
	vertex 3.2004 123.7281 112.2591
	vertex 3.2004 111.7125 122.9301
	vertex 3.2004 -3.10523 10.6375
endloop
endfacet
facet normal 1 0 0
outer loop
	vertex 3.2004 134.5935 100.4191
	vertex 3.2004 123.7281 112.2591
	vertex 3.2004 -3.10523 10.6375
endloop
endfacet
facet normal 1 0 0
outer loop
	vertex 3.2004 144.1958 87.53345
	vertex 3.2004 134.5935 100.4191
	vertex 3.2004 -3.10523 10.6375
endloop
endfacet
facet normal 1 0 0
outer loop
	vertex 3.2004 144.1958 87.53345
	vertex 3.2004 -3.10523 10.6375
	vertex 3.2004 144.1958 77.575
endloop
endfacet
facet normal 1 0 0
outer loop
	vertex 3.2004 -3.10523 10.6375
	vertex 3.2004 144.1958 47.62501
	vertex 3.2004 144.1958 77.575
endloop
endfacet
facet normal 1 0 0
outer loop
	vertex 3.2004 -3.10523 10.6375
	vertex 3.2004 144.1958 9.525
	vertex 3.2004 144.1958 47.62501
endloop
endfacet
facet normal 1 0 0
outer loop
	vertex 3.2004 -3.10523 10.6375
	vertex 3.2004 144.1958 -9.525
	vertex 3.2004 144.1958 9.525
endloop
endfacet
facet normal 1 0 0
outer loop
	vertex 3.2004 -3.10523 10.6375
	vertex 3.2004 144.1958 -28.575
	vertex 3.2004 144.1958 -9.525
endloop
endfacet
facet normal 1 0 0
outer loop
	vertex 3.2004 -3.10523 10.6375
	vertex 3.2004 144.1958 -47.62501
	vertex 3.2004 144.1958 -28.575
endloop
endfacet
facet normal 1 0 0
outer loop
	vertex 3.2004 -3.10523 10.6375
	vertex 3.2004 144.1958 -77.57499
	vertex 3.2004 144.1958 -47.62501
endloop
endfacet
facet normal 1 0 0
outer loop
	vertex 3.2004 144.1958 -87.53344
	vertex 3.2004 144.1958 -77.57499
	vertex 3.2004 -3.10523 10.6375
endloop
endfacet
facet normal 1 0 0
outer loop
	vertex 3.2004 134.5935 -100.4191
	vertex 3.2004 144.1958 -87.53344
	vertex 3.2004 -3.10523 10.6375
endloop
endfacet
facet normal 1 0 0
outer loop
	vertex 3.2004 123.7281 -112.2591
	vertex 3.2004 134.5935 -100.4191
	vertex 3.2004 -3.10523 10.6375
endloop
endfacet
facet normal 1 0 0
outer loop
	vertex 3.2004 111.7125 -122.9301
	vertex 3.2004 123.7281 -112.2591
	vertex 3.2004 -3.10523 10.6375
endloop
endfacet
facet normal 1 0 0
outer loop
	vertex 3.2004 104.3416 -128.2383
	vertex 3.2004 111.7125 -122.9301
	vertex 3.2004 -3.10523 10.6375
endloop
endfacet
facet normal 1 0 0
outer loop
	vertex 3.2004 104.3416 -128.2383
	vertex 3.2004 -3.10523 10.6375
	vertex 3.2004 98.84062 -132.1997
endloop
endfacet
facet normal 1 0 0
outer loop
	vertex 3.2004 98.84062 -132.1997
	vertex 3.2004 -3.10523 10.6375
	vertex 3.2004 86.47429 -139.3379
endloop
endfacet
facet normal 1 0 0
outer loop
	vertex 3.2004 84.7424 -140.3341
	vertex 3.2004 86.47429 -139.3379
	vertex 3.2004 -3.10523 10.6375
endloop
endfacet
facet normal 1 0 0
outer loop
	vertex 3.2004 76.9493 -143.8137
	vertex 3.2004 84.7424 -140.3341
	vertex 3.2004 -3.10523 10.6375
endloop
endfacet
facet normal 1 0 0
outer loop
	vertex 3.2004 67.2592 -147.8102
	vertex 3.2004 76.9493 -143.8137
	vertex 3.2004 -3.10523 10.6375
endloop
endfacet
facet normal 1 0 0
outer loop
	vertex 3.2004 -3.10523 10.6375
	vertex 3.2004 57.73421 -150.944
	vertex 3.2004 67.2592 -147.8102
endloop
endfacet
facet normal 1 0 0
outer loop
	vertex 3.2004 54.80363 -151.9081
	vertex 3.2004 57.73421 -150.944
	vertex 3.2004 -3.10523 10.6375
endloop
endfacet
facet normal 1 0 0
outer loop
	vertex 3.2004 45.03419 -154.0493
	vertex 3.2004 54.80363 -151.9081
	vertex 3.2004 -3.10523 10.6375
endloop
endfacet
facet normal 1 0 0
outer loop
	vertex 3.2004 39.10626 -155.3485
	vertex 3.2004 45.03419 -154.0493
	vertex 3.2004 -3.10523 10.6375
endloop
endfacet
facet normal 1 0 0
outer loop
	vertex 3.2004 29.1592 -156.4841
	vertex 3.2004 39.10626 -155.3485
	vertex 3.2004 -3.10523 10.6375
endloop
endfacet
facet normal 1 0 0
outer loop
	vertex 3.2004 23.14 -157.1713
	vertex 3.2004 29.1592 -156.4841
	vertex 3.2004 -3.10523 10.6375
endloop
endfacet
facet normal 1 0 0
outer loop
	vertex 3.2004 19.6342 -157.2119
	vertex 3.2004 23.14 -157.1713
	vertex 3.2004 -3.10523 10.6375
endloop
endfacet
facet normal 1 0 0
outer loop
	vertex 3.2004 -3.10523 10.6375
	vertex 3.2004 7.00266 -157.3512
	vertex 3.2004 19.6342 -157.2119
endloop
endfacet
facet normal 1 0 0
outer loop
	vertex 3.2004 -8.93309 -155.9049
	vertex 3.2004 7.00266 -157.3512
	vertex 3.2004 -3.10523 10.6375
endloop
endfacet
facet normal 0 1 0
outer loop
	vertex -3.2004 144.1958 -87.53344
	vertex 3.2004 144.1958 -77.57499
	vertex 3.2004 144.1958 -87.53344
endloop
endfacet
facet normal 0 1 0
outer loop
	vertex -3.2004 144.1958 -77.57499
	vertex 3.2004 144.1958 -77.57499
	vertex -3.2004 144.1958 -87.53344
endloop
endfacet
facet normal 0 1 0
outer loop
	vertex -3.2004 144.1958 -77.57499
	vertex 3.2004 144.1958 -47.62501
	vertex 3.2004 144.1958 -77.57499
endloop
endfacet
facet normal 0 1 0
outer loop
	vertex -3.2004 144.1958 -47.62501
	vertex 3.2004 144.1958 -47.62501
	vertex -3.2004 144.1958 -77.57499
endloop
endfacet
facet normal 0 1 0
outer loop
	vertex -3.2004 144.1958 -47.62501
	vertex 3.2004 144.1958 -28.575
	vertex 3.2004 144.1958 -47.62501
endloop
endfacet
facet normal 0 1 0
outer loop
	vertex -3.2004 144.1958 -28.575
	vertex 3.2004 144.1958 -28.575
	vertex -3.2004 144.1958 -47.62501
endloop
endfacet
facet normal 0 1 0
outer loop
	vertex -3.2004 144.1958 -28.575
	vertex 3.2004 144.1958 -9.525
	vertex 3.2004 144.1958 -28.575
endloop
endfacet
facet normal 0 1 0
outer loop
	vertex -3.2004 144.1958 -9.525
	vertex 3.2004 144.1958 -9.525
	vertex -3.2004 144.1958 -28.575
endloop
endfacet
facet normal 0 1 0
outer loop
	vertex -3.2004 144.1958 -9.525
	vertex 3.2004 144.1958 9.525
	vertex 3.2004 144.1958 -9.525
endloop
endfacet
facet normal 0 1 0
outer loop
	vertex -3.2004 144.1958 9.525
	vertex 3.2004 144.1958 9.525
	vertex -3.2004 144.1958 -9.525
endloop
endfacet
facet normal 0 1 0
outer loop
	vertex -3.2004 144.1958 9.525
	vertex 3.2004 144.1958 47.62501
	vertex 3.2004 144.1958 9.525
endloop
endfacet
facet normal 0 1 0
outer loop
	vertex -3.2004 144.1958 47.62501
	vertex 3.2004 144.1958 47.62501
	vertex -3.2004 144.1958 9.525
endloop
endfacet
facet normal 0 1 0
outer loop
	vertex -3.2004 144.1958 47.62501
	vertex 3.2004 144.1958 77.575
	vertex 3.2004 144.1958 47.62501
endloop
endfacet
facet normal 0 1 0
outer loop
	vertex -3.2004 144.1958 77.575
	vertex 3.2004 144.1958 77.575
	vertex -3.2004 144.1958 47.62501
endloop
endfacet
facet normal 0 1 0
outer loop
	vertex -3.2004 144.1958 77.575
	vertex 3.2004 144.1958 87.53345
	vertex 3.2004 144.1958 77.575
endloop
endfacet
facet normal 0 1 0
outer loop
	vertex -3.2004 144.1958 87.53345
	vertex 3.2004 144.1958 87.53345
	vertex -3.2004 144.1958 77.575
endloop
endfacet
facet normal 0 0.8018478 -0.5975283
outer loop
	vertex 3.2004 134.5935 -100.4191
	vertex -3.2004 144.1958 -87.53344
	vertex 3.2004 144.1958 -87.53344
endloop
endfacet
facet normal 0 0.8018478 -0.5975283
outer loop
	vertex 3.2004 134.5935 -100.4191
	vertex -3.2004 134.5935 -100.4191
	vertex -3.2004 144.1958 -87.53344
endloop
endfacet
facet normal 0 0.7367763 -0.6761366
outer loop
	vertex 3.2004 123.7281 -112.2591
	vertex -3.2004 134.5935 -100.4191
	vertex 3.2004 134.5935 -100.4191
endloop
endfacet
facet normal 0 0.7367763 -0.6761366
outer loop
	vertex 3.2004 123.7281 -112.2591
	vertex -3.2004 123.7281 -112.2591
	vertex -3.2004 134.5935 -100.4191
endloop
endfacet
facet normal 0 0.6640329 -0.7477033
outer loop
	vertex 3.2004 111.7125 -122.9301
	vertex -3.2004 123.7281 -112.2591
	vertex 3.2004 123.7281 -112.2591
endloop
endfacet
facet normal 0 0.6640329 -0.7477033
outer loop
	vertex 3.2004 111.7125 -122.9301
	vertex -3.2004 111.7125 -122.9301
	vertex -3.2004 123.7281 -112.2591
endloop
endfacet
facet normal 0 0.58438 -0.8114801
outer loop
	vertex -3.2004 104.3416 -128.2383
	vertex -3.2004 111.7125 -122.9301
	vertex 3.2004 111.7125 -122.9301
endloop
endfacet
facet normal 0 0.58438 -0.8114801
outer loop
	vertex 3.2004 104.3416 -128.2383
	vertex -3.2004 104.3416 -128.2383
	vertex 3.2004 111.7125 -122.9301
endloop
endfacet
facet normal 0 0.58438 -0.8114801
outer loop
	vertex 3.2004 104.3416 -128.2383
	vertex -3.2004 98.84062 -132.1997
	vertex -3.2004 104.3416 -128.2383
endloop
endfacet
facet normal 0 0.58438 -0.8114801
outer loop
	vertex 3.2004 98.84062 -132.1997
	vertex -3.2004 98.84062 -132.1997
	vertex 3.2004 104.3416 -128.2383
endloop
endfacet
facet normal 0 0.4994898 -0.8663195
outer loop
	vertex 3.2004 98.84062 -132.1997
	vertex -3.2004 86.47429 -139.3379
	vertex -3.2004 98.84062 -132.1997
endloop
endfacet
facet normal 0 0.4990588 -0.8665679
outer loop
	vertex 3.2004 86.47429 -139.3379
	vertex -3.2004 86.47429 -139.3379
	vertex 3.2004 98.84062 -132.1997
endloop
endfacet
facet normal 0 0.4986278 -0.8668162
outer loop
	vertex 3.2004 86.47429 -139.3379
	vertex -3.2004 84.7424 -140.3341
	vertex -3.2004 86.47429 -139.3379
endloop
endfacet
facet normal 0 0.4986278 -0.8668162
outer loop
	vertex 3.2004 84.7424 -140.3341
	vertex -3.2004 84.7424 -140.3341
	vertex 3.2004 86.47429 -139.3379
endloop
endfacet
facet normal 0 0.3900861 -0.9206786
outer loop
	vertex 3.2004 67.2592 -147.8102
	vertex -3.2004 67.2592 -147.8102
	vertex -3.2004 76.9493 -143.8137
endloop
endfacet
facet normal 0 0.3988923 -0.9168977
outer loop
	vertex 3.2004 67.2592 -147.8102
	vertex -3.2004 76.9493 -143.8137
	vertex 3.2004 76.9493 -143.8137
endloop
endfacet
facet normal 0 0.4076985 -0.9131166
outer loop
	vertex 3.2004 76.9493 -143.8137
	vertex -3.2004 76.9493 -143.8137
	vertex 3.2004 84.7424 -140.3341
endloop
endfacet
facet normal 0 0.4076985 -0.9131166
outer loop
	vertex 3.2004 84.7424 -140.3341
	vertex -3.2004 76.9493 -143.8137
	vertex -3.2004 84.7424 -140.3341
endloop
endfacet
facet normal 0 0.3125204 -0.9499111
outer loop
	vertex 3.2004 67.2592 -147.8102
	vertex -3.2004 57.73421 -150.944
	vertex -3.2004 67.2592 -147.8102
endloop
endfacet
facet normal 0 0.3125204 -0.9499111
outer loop
	vertex 3.2004 57.73421 -150.944
	vertex -3.2004 57.73421 -150.944
	vertex 3.2004 67.2592 -147.8102
endloop
endfacet
facet normal 0 0.3125204 -0.9499111
outer loop
	vertex 3.2004 57.73421 -150.944
	vertex -3.2004 54.80363 -151.9081
	vertex -3.2004 57.73421 -150.944
endloop
endfacet
facet normal 0 0.3125204 -0.9499111
outer loop
	vertex 3.2004 54.80363 -151.9081
	vertex -3.2004 54.80363 -151.9081
	vertex 3.2004 57.73421 -150.944
endloop
endfacet
facet normal 0 0.2140908 -0.9768138
outer loop
	vertex 3.2004 54.80363 -151.9081
	vertex -3.2004 45.03419 -154.0493
	vertex -3.2004 54.80363 -151.9081
endloop
endfacet
facet normal 0 0.2140908 -0.9768138
outer loop
	vertex 3.2004 45.03419 -154.0493
	vertex -3.2004 45.03419 -154.0493
	vertex 3.2004 54.80363 -151.9081
endloop
endfacet
facet normal 0 0.2140908 -0.9768138
outer loop
	vertex 3.2004 45.03419 -154.0493
	vertex -3.2004 39.10626 -155.3485
	vertex -3.2004 45.03419 -154.0493
endloop
endfacet
facet normal 0 0.2140908 -0.9768138
outer loop
	vertex 3.2004 39.10626 -155.3485
	vertex -3.2004 39.10626 -155.3485
	vertex 3.2004 45.03419 -154.0493
endloop
endfacet
facet normal 0 0.1134295 -0.9935459
outer loop
	vertex 3.2004 39.10626 -155.3485
	vertex -3.2004 29.1592 -156.4841
	vertex -3.2004 39.10626 -155.3485
endloop
endfacet
facet normal 0 0.1134295 -0.9935459
outer loop
	vertex 3.2004 29.1592 -156.4841
	vertex -3.2004 29.1592 -156.4841
	vertex 3.2004 39.10626 -155.3485
endloop
endfacet
facet normal 0 0.1134295 -0.9935459
outer loop
	vertex 3.2004 29.1592 -156.4841
	vertex -3.2004 23.14 -157.1713
	vertex -3.2004 29.1592 -156.4841
endloop
endfacet
facet normal 0 0.1134295 -0.9935459
outer loop
	vertex 3.2004 23.14 -157.1713
	vertex -3.2004 23.14 -157.1713
	vertex 3.2004 29.1592 -156.4841
endloop
endfacet
facet normal 0 0.01139669 -0.9999351
outer loop
	vertex 3.2004 23.14 -157.1713
	vertex -3.2004 19.6342 -157.2119
	vertex -3.2004 23.14 -157.1713
endloop
endfacet
facet normal 0 0.01121334 -0.9999371
outer loop
	vertex 3.2004 19.6342 -157.2119
	vertex -3.2004 19.6342 -157.2119
	vertex 3.2004 23.14 -157.1713
endloop
endfacet
facet normal 0 0.01102999 -0.9999392
outer loop
	vertex 3.2004 19.6342 -157.2119
	vertex -3.2004 7.00266 -157.3512
	vertex -3.2004 19.6342 -157.2119
endloop
endfacet
facet normal 0 0.01102999 -0.9999392
outer loop
	vertex 3.2004 7.00266 -157.3512
	vertex -3.2004 7.00266 -157.3512
	vertex 3.2004 19.6342 -157.2119
endloop
endfacet
facet normal 0 -0.09038968 -0.9959065
outer loop
	vertex 3.2004 7.00266 -157.3512
	vertex -3.2004 -8.93309 -155.9049
	vertex -3.2004 7.00266 -157.3512
endloop
endfacet
facet normal 0 -0.09038968 -0.9959065
outer loop
	vertex 3.2004 -8.93309 -155.9049
	vertex -3.2004 -8.93309 -155.9049
	vertex 3.2004 7.00266 -157.3512
endloop
endfacet
facet normal 0 -0.1943908 -0.9809241
outer loop
	vertex 3.2004 -8.93309 -155.9049
	vertex -3.2004 -8.94079 -155.9034
	vertex -3.2004 -8.93309 -155.9049
endloop
endfacet
facet normal 0 -0.1943908 -0.9809241
outer loop
	vertex 3.2004 -8.94079 -155.9034
	vertex -3.2004 -8.94079 -155.9034
	vertex 3.2004 -8.93309 -155.9049
endloop
endfacet
facet normal 0 -0.19141 -0.9815102
outer loop
	vertex 3.2004 -8.94079 -155.9034
	vertex -3.2004 -18.46579 -154.0459
	vertex -3.2004 -8.94079 -155.9034
endloop
endfacet
facet normal 0 -0.19141 -0.9815102
outer loop
	vertex 3.2004 -18.46579 -154.0459
	vertex -3.2004 -18.46579 -154.0459
	vertex 3.2004 -8.94079 -155.9034
endloop
endfacet
facet normal 0 -0.19141 -0.9815102
outer loop
	vertex 3.2004 -18.46579 -154.0459
	vertex -3.2004 -24.70594 -152.829
	vertex -3.2004 -18.46579 -154.0459
endloop
endfacet
facet normal 0 -0.19141 -0.9815102
outer loop
	vertex 3.2004 -24.70594 -152.829
	vertex -3.2004 -24.70594 -152.829
	vertex 3.2004 -18.46579 -154.0459
endloop
endfacet
facet normal 0 -0.2904409 -0.9568928
outer loop
	vertex 3.2004 -24.70594 -152.829
	vertex -3.2004 -30.91179 -150.9453
	vertex -3.2004 -24.70594 -152.829
endloop
endfacet
facet normal 0 -0.2904409 -0.9568928
outer loop
	vertex 3.2004 -30.91179 -150.9453
	vertex -3.2004 -30.91179 -150.9453
	vertex 3.2004 -24.70594 -152.829
endloop
endfacet
facet normal 0 -0.2904409 -0.9568928
outer loop
	vertex 3.2004 -30.91179 -150.9453
	vertex -3.2004 -40.08319 -148.1617
	vertex -3.2004 -30.91179 -150.9453
endloop
endfacet
facet normal 0 -0.2904409 -0.9568928
outer loop
	vertex 3.2004 -40.08319 -148.1617
	vertex -3.2004 -40.08319 -148.1617
	vertex 3.2004 -30.91179 -150.9453
endloop
endfacet
facet normal 0 -0.3864501 -0.9223104
outer loop
	vertex 3.2004 -40.08319 -148.1617
	vertex -3.2004 -53.3908 -142.5858
	vertex -3.2004 -40.08319 -148.1617
endloop
endfacet
facet normal 0 -0.3864501 -0.9223104
outer loop
	vertex 3.2004 -53.3908 -142.5858
	vertex -3.2004 -53.3908 -142.5858
	vertex 3.2004 -40.08319 -148.1617
endloop
endfacet
facet normal 0 -0.3864501 -0.9223104
outer loop
	vertex -3.2004 -54.90472 -141.9515
	vertex -3.2004 -53.3908 -142.5858
	vertex 3.2004 -53.3908 -142.5858
endloop
endfacet
facet normal 0 -0.3864501 -0.9223104
outer loop
	vertex -3.2004 -54.90472 -141.9515
	vertex 3.2004 -53.3908 -142.5858
	vertex 3.2004 -54.90472 -141.9515
endloop
endfacet
facet normal 0 -0.5654292 -0.8247969
outer loop
	vertex 3.2004 -69.0162 -134.2632
	vertex -3.2004 -72.4408 -131.9154
	vertex -3.2004 -69.0162 -134.2632
endloop
endfacet
facet normal 0 -0.5654253 -0.8247996
outer loop
	vertex 3.2004 -72.4408 -131.9154
	vertex -3.2004 -72.4408 -131.9154
	vertex 3.2004 -69.0162 -134.2632
endloop
endfacet
facet normal 0 -0.5654237 -0.8248007
outer loop
	vertex 3.2004 -72.4408 -131.9154
	vertex -3.2004 -77.80481 -128.2383
	vertex -3.2004 -72.4408 -131.9154
endloop
endfacet
facet normal 0 -0.565426 -0.8247991
outer loop
	vertex 3.2004 -77.80481 -128.2383
	vertex -3.2004 -77.80481 -128.2383
	vertex 3.2004 -72.4408 -131.9154
endloop
endfacet
facet normal 0 -0.5654283 -0.8247975
outer loop
	vertex 3.2004 -77.80481 -128.2383
	vertex -3.2004 -82.27068 -125.1767
	vertex -3.2004 -77.80481 -128.2383
endloop
endfacet
facet normal 0 -0.5654283 -0.8247975
outer loop
	vertex 3.2004 -82.27068 -125.1767
	vertex -3.2004 -82.27068 -125.1767
	vertex 3.2004 -77.80481 -128.2383
endloop
endfacet
facet normal 0 -0.64654 -0.7628801
outer loop
	vertex 3.2004 -82.27068 -125.1767
	vertex -3.2004 -85.55991 -122.3891
	vertex -3.2004 -82.27068 -125.1767
endloop
endfacet
facet normal 0 -0.64654 -0.7628801
outer loop
	vertex 3.2004 -85.55991 -122.3891
	vertex -3.2004 -85.55991 -122.3891
	vertex 3.2004 -82.27068 -125.1767
endloop
endfacet
facet normal 0 -0.64654 -0.7628801
outer loop
	vertex 3.2004 -85.55991 -122.3891
	vertex -3.2004 -94.53012 -114.7869
	vertex -3.2004 -85.55991 -122.3891
endloop
endfacet
facet normal 0 -0.64654 -0.7628801
outer loop
	vertex 3.2004 -94.53012 -114.7869
	vertex -3.2004 -94.53012 -114.7869
	vertex 3.2004 -85.55991 -122.3891
endloop
endfacet
facet normal 0 -0.7209191 -0.6930192
outer loop
	vertex 3.2004 -105.6669 -103.2017
	vertex -3.2004 -94.53012 -114.7869
	vertex 3.2004 -94.53012 -114.7869
endloop
endfacet
facet normal 0 -0.7209191 -0.6930192
outer loop
	vertex 3.2004 -105.6669 -103.2017
	vertex -3.2004 -105.6669 -103.2017
	vertex -3.2004 -94.53012 -114.7869
endloop
endfacet
facet normal 0 -0.7877918 -0.6159414
outer loop
	vertex 3.2004 -115.565 -90.54183
	vertex -3.2004 -105.6669 -103.2017
	vertex 3.2004 -105.6669 -103.2017
endloop
endfacet
facet normal 0 -0.7877918 -0.6159414
outer loop
	vertex 3.2004 -115.565 -90.54183
	vertex -3.2004 -115.565 -90.54183
	vertex -3.2004 -105.6669 -103.2017
endloop
endfacet
facet normal 0 -0.846461 -0.5324507
outer loop
	vertex -3.2004 -117.6242 -87.26821
	vertex -3.2004 -115.565 -90.54183
	vertex 3.2004 -115.565 -90.54183
endloop
endfacet
facet normal 0 -0.846461 -0.5324507
outer loop
	vertex 3.2004 -117.6242 -87.26821
	vertex -3.2004 -117.6242 -87.26821
	vertex 3.2004 -115.565 -90.54183
endloop
endfacet
facet normal 0 -0.846461 -0.5324507
outer loop
	vertex 3.2004 -117.6242 -87.26821
	vertex -3.2004 -123.9215 -77.2571
	vertex -3.2004 -117.6242 -87.26821
endloop
endfacet
facet normal 0 -0.846461 -0.5324507
outer loop
	vertex 3.2004 -123.9215 -77.2571
	vertex -3.2004 -123.9215 -77.2571
	vertex 3.2004 -117.6242 -87.26821
endloop
endfacet
facet normal 0 -0.9368394 -0.3497598
outer loop
	vertex 3.2004 -131.247 -62.53539
	vertex -3.2004 -136.8406 -47.5527
	vertex -3.2004 -131.247 -62.53539
endloop
endfacet
facet normal 0 -0.9368394 -0.3497598
outer loop
	vertex 3.2004 -136.8406 -47.5527
	vertex -3.2004 -136.8406 -47.5527
	vertex 3.2004 -131.247 -62.53539
endloop
endfacet
facet normal 0 -0.9882983 -0.1525331
outer loop
	vertex 3.2004 -140.9246 -31.93096
	vertex -3.2004 -141.4426 -28.57501
	vertex -3.2004 -140.9246 -31.93096
endloop
endfacet
facet normal 0 -0.9882979 -0.1525363
outer loop
	vertex 3.2004 -141.4426 -28.57501
	vertex -3.2004 -141.4426 -28.57501
	vertex 3.2004 -140.9246 -31.93096
endloop
endfacet
facet normal 0 -0.9882974 -0.1525396
outer loop
	vertex 3.2004 -141.4426 -28.57501
	vertex -3.2004 -143.3759 -16.04904
	vertex -3.2004 -141.4426 -28.57501
endloop
endfacet
facet normal 0 -0.9882974 -0.1525396
outer loop
	vertex 3.2004 -143.3759 -16.04904
	vertex -3.2004 -143.3759 -16.04904
	vertex 3.2004 -141.4426 -28.57501
endloop
endfacet
facet normal 0 -0.9986976 -0.05101988
outer loop
	vertex 3.2004 -143.3759 -16.04904
	vertex -3.2004 -143.7092 -9.525
	vertex -3.2004 -143.3759 -16.04904
endloop
endfacet
facet normal 0 -0.9986976 -0.05101988
outer loop
	vertex 3.2004 -143.7092 -9.525
	vertex -3.2004 -143.7092 -9.525
	vertex 3.2004 -143.3759 -16.04904
endloop
endfacet
facet normal 0 -0.9986976 -0.05101988
outer loop
	vertex 3.2004 -143.7092 -9.525
	vertex -3.2004 -144.1958 1E-05
	vertex -3.2004 -143.7092 -9.525
endloop
endfacet
facet normal 0 -0.9986976 -0.05101988
outer loop
	vertex 3.2004 -144.1958 1E-05
	vertex -3.2004 -144.1958 1E-05
	vertex 3.2004 -143.7092 -9.525
endloop
endfacet
facet normal 0 -0.9986976 0.05101988
outer loop
	vertex 3.2004 -144.1958 1E-05
	vertex -3.2004 -143.7092 9.525
	vertex -3.2004 -144.1958 1E-05
endloop
endfacet
facet normal 0 -0.9986976 0.05101988
outer loop
	vertex 3.2004 -143.7092 9.525
	vertex -3.2004 -143.7092 9.525
	vertex 3.2004 -144.1958 1E-05
endloop
endfacet
facet normal 0 -0.9986976 0.05101988
outer loop
	vertex 3.2004 -143.7092 9.525
	vertex -3.2004 -143.3759 16.04905
	vertex -3.2004 -143.7092 9.525
endloop
endfacet
facet normal 0 -0.9986976 0.05101988
outer loop
	vertex 3.2004 -143.3759 16.04905
	vertex -3.2004 -143.3759 16.04905
	vertex 3.2004 -143.7092 9.525
endloop
endfacet
facet normal 0 -0.9882974 0.1525396
outer loop
	vertex 3.2004 -140.9246 31.93097
	vertex -3.2004 -143.3759 16.04905
	vertex 3.2004 -143.3759 16.04905
endloop
endfacet
facet normal 0 -0.9882974 0.1525396
outer loop
	vertex 3.2004 -140.9246 31.93097
	vertex -3.2004 -140.9246 31.93097
	vertex -3.2004 -143.3759 16.04905
endloop
endfacet
facet normal 0 -0.9674844 0.2529311
outer loop
	vertex 3.2004 -136.8406 47.5527
	vertex -3.2004 -140.9246 31.93097
	vertex 3.2004 -140.9246 31.93097
endloop
endfacet
facet normal 0 -0.9674844 0.2529311
outer loop
	vertex 3.2004 -136.8406 47.5527
	vertex -3.2004 -136.8406 47.5527
	vertex -3.2004 -140.9246 31.93097
endloop
endfacet
facet normal 0 -0.9368394 0.3497598
outer loop
	vertex 3.2004 -136.8406 47.5527
	vertex -3.2004 -131.247 62.53539
	vertex -3.2004 -136.8406 47.5527
endloop
endfacet
facet normal 0 -0.9368394 0.3497598
outer loop
	vertex 3.2004 -131.247 62.53539
	vertex -3.2004 -131.247 62.53539
	vertex 3.2004 -136.8406 47.5527
endloop
endfacet
facet normal 0 -0.846461 0.5324507
outer loop
	vertex 3.2004 -123.7215 77.575
	vertex -3.2004 -117.6242 87.26822
	vertex -3.2004 -123.9215 77.2571
endloop
endfacet
facet normal 0 -0.846461 0.5324507
outer loop
	vertex 3.2004 -117.6242 87.26822
	vertex -3.2004 -117.6242 87.26822
	vertex 3.2004 -123.7215 77.575
endloop
endfacet
facet normal 0 -0.846461 0.5324507
outer loop
	vertex 3.2004 -117.6242 87.26822
	vertex -3.2004 -115.565 90.54185
	vertex -3.2004 -117.6242 87.26822
endloop
endfacet
facet normal 0 -0.846461 0.5324507
outer loop
	vertex 3.2004 -115.565 90.54185
	vertex -3.2004 -115.565 90.54185
	vertex 3.2004 -117.6242 87.26822
endloop
endfacet
facet normal 0 -0.7877918 0.6159414
outer loop
	vertex 3.2004 -105.6669 103.2017
	vertex -3.2004 -115.565 90.54185
	vertex 3.2004 -115.565 90.54185
endloop
endfacet
facet normal 0 -0.7877918 0.6159414
outer loop
	vertex 3.2004 -105.6669 103.2017
	vertex -3.2004 -105.6669 103.2017
	vertex -3.2004 -115.565 90.54185
endloop
endfacet
facet normal 0 -0.7209191 0.6930192
outer loop
	vertex 3.2004 -94.53012 114.7868
	vertex -3.2004 -105.6669 103.2017
	vertex 3.2004 -105.6669 103.2017
endloop
endfacet
facet normal 0 -0.7209191 0.6930192
outer loop
	vertex 3.2004 -94.53012 114.7868
	vertex -3.2004 -94.53012 114.7868
	vertex -3.2004 -105.6669 103.2017
endloop
endfacet
facet normal 0 -0.64654 0.7628801
outer loop
	vertex -3.2004 -85.55991 122.3891
	vertex -3.2004 -94.53012 114.7868
	vertex 3.2004 -94.53012 114.7868
endloop
endfacet
facet normal 0 -0.64654 0.7628801
outer loop
	vertex 3.2004 -85.55991 122.3891
	vertex -3.2004 -85.55991 122.3891
	vertex 3.2004 -94.53012 114.7868
endloop
endfacet
facet normal 0 -0.64654 0.7628801
outer loop
	vertex 3.2004 -85.55991 122.3891
	vertex -3.2004 -82.27068 125.1768
	vertex -3.2004 -85.55991 122.3891
endloop
endfacet
facet normal 0 -0.64654 0.7628801
outer loop
	vertex 3.2004 -82.27068 125.1768
	vertex -3.2004 -82.27068 125.1768
	vertex 3.2004 -85.55991 122.3891
endloop
endfacet
facet normal 0 -0.5654283 0.8247975
outer loop
	vertex 3.2004 -82.27068 125.1768
	vertex -3.2004 -77.80481 128.2383
	vertex -3.2004 -82.27068 125.1768
endloop
endfacet
facet normal 0 -0.5654283 0.8247975
outer loop
	vertex 3.2004 -77.80481 128.2383
	vertex -3.2004 -77.80481 128.2383
	vertex 3.2004 -82.27068 125.1768
endloop
endfacet
facet normal 0 -0.5654283 0.8247975
outer loop
	vertex 3.2004 -77.80481 128.2383
	vertex -3.2004 -72.4408 131.9155
	vertex -3.2004 -77.80481 128.2383
endloop
endfacet
facet normal 0 -0.5654283 0.8247975
outer loop
	vertex 3.2004 -72.4408 131.9155
	vertex -3.2004 -72.4408 131.9155
	vertex 3.2004 -77.80481 128.2383
endloop
endfacet
facet normal 0 -0.5654283 0.8247975
outer loop
	vertex 3.2004 -72.4408 131.9155
	vertex -3.2004 -69.0162 134.2632
	vertex -3.2004 -72.4408 131.9155
endloop
endfacet
facet normal 0 -0.5654283 0.8247975
outer loop
	vertex 3.2004 -69.0162 134.2632
	vertex -3.2004 -69.0162 134.2632
	vertex 3.2004 -72.4408 131.9155
endloop
endfacet
facet normal 0 -0.3864501 0.9223104
outer loop
	vertex 3.2004 -54.90472 141.9515
	vertex -3.2004 -53.3908 142.5858
	vertex -3.2004 -54.90472 141.9515
endloop
endfacet
facet normal 0 -0.3864501 0.9223104
outer loop
	vertex 3.2004 -53.3908 142.5858
	vertex -3.2004 -53.3908 142.5858
	vertex 3.2004 -54.90472 141.9515
endloop
endfacet
facet normal 0 -0.3864501 0.9223104
outer loop
	vertex 3.2004 -53.3908 142.5858
	vertex -3.2004 -40.08319 148.1617
	vertex -3.2004 -53.3908 142.5858
endloop
endfacet
facet normal 0 -0.3864501 0.9223104
outer loop
	vertex 3.2004 -40.08319 148.1617
	vertex -3.2004 -40.08319 148.1617
	vertex 3.2004 -53.3908 142.5858
endloop
endfacet
facet normal 0 -0.2904329 0.9568954
outer loop
	vertex 3.2004 -40.08319 148.1617
	vertex -3.2004 -38.73466 148.571
	vertex -3.2004 -40.08319 148.1617
endloop
endfacet
facet normal 0 -0.2904369 0.9568941
outer loop
	vertex 3.2004 -38.73466 148.571
	vertex -3.2004 -38.73466 148.571
	vertex 3.2004 -40.08319 148.1617
endloop
endfacet
facet normal 0 -0.2904409 0.9568928
outer loop
	vertex 3.2004 -38.73466 148.571
	vertex -3.2004 -30.9118 150.9454
	vertex -3.2004 -38.73466 148.571
endloop
endfacet
facet normal 0 -0.2904409 0.9568928
outer loop
	vertex 3.2004 -30.9118 150.9454
	vertex -3.2004 -30.9118 150.9454
	vertex 3.2004 -38.73466 148.571
endloop
endfacet
facet normal 0 -0.2904409 0.9568928
outer loop
	vertex 3.2004 -30.9118 150.9454
	vertex -3.2004 -24.70594 152.829
	vertex -3.2004 -30.9118 150.9454
endloop
endfacet
facet normal 0 -0.2904409 0.9568928
outer loop
	vertex 3.2004 -24.70594 152.829
	vertex -3.2004 -24.70594 152.829
	vertex 3.2004 -30.9118 150.9454
endloop
endfacet
facet normal 0 -0.19141 0.9815102
outer loop
	vertex 3.2004 -24.70594 152.829
	vertex -3.2004 -18.46579 154.0459
	vertex -3.2004 -24.70594 152.829
endloop
endfacet
facet normal 0 -0.19141 0.9815102
outer loop
	vertex 3.2004 -18.46579 154.0459
	vertex -3.2004 -18.46579 154.0459
	vertex 3.2004 -24.70594 152.829
endloop
endfacet
facet normal 0 -0.19141 0.9815102
outer loop
	vertex 3.2004 -18.46579 154.0459
	vertex -3.2004 -8.93309 155.9049
	vertex -3.2004 -18.46579 154.0459
endloop
endfacet
facet normal 0 -0.19141 0.9815102
outer loop
	vertex 3.2004 -8.93309 155.9049
	vertex -3.2004 -8.93309 155.9049
	vertex 3.2004 -18.46579 154.0459
endloop
endfacet
facet normal 0 -0.09038968 0.9959065
outer loop
	vertex 3.2004 -8.93309 155.9049
	vertex -3.2004 7.00265 157.3512
	vertex -3.2004 -8.93309 155.9049
endloop
endfacet
facet normal 0 -0.09038968 0.9959065
outer loop
	vertex 3.2004 7.00265 157.3512
	vertex -3.2004 7.00265 157.3512
	vertex 3.2004 -8.93309 155.9049
endloop
endfacet
facet normal 0 0.01121334 0.9999371
outer loop
	vertex 3.2004 7.00265 157.3512
	vertex -3.2004 19.6342 157.2119
	vertex -3.2004 7.00265 157.3512
endloop
endfacet
facet normal 0 0.01139669 0.9999351
outer loop
	vertex 3.2004 19.6342 157.2119
	vertex -3.2004 19.6342 157.2119
	vertex 3.2004 7.00265 157.3512
endloop
endfacet
facet normal 0 0.01158003 0.999933
outer loop
	vertex 3.2004 19.6342 157.2119
	vertex -3.2004 23.14 157.1713
	vertex -3.2004 19.6342 157.2119
endloop
endfacet
facet normal 0 0.01158003 0.999933
outer loop
	vertex 3.2004 23.14 157.1713
	vertex -3.2004 23.14 157.1713
	vertex 3.2004 19.6342 157.2119
endloop
endfacet
facet normal 0 0.1134295 0.9935459
outer loop
	vertex 3.2004 23.14 157.1713
	vertex -3.2004 29.15919 156.4841
	vertex -3.2004 23.14 157.1713
endloop
endfacet
facet normal 0 0.1134295 0.9935459
outer loop
	vertex 3.2004 29.15919 156.4841
	vertex -3.2004 29.15919 156.4841
	vertex 3.2004 23.14 157.1713
endloop
endfacet
facet normal 0 0.1134295 0.9935459
outer loop
	vertex 3.2004 29.15919 156.4841
	vertex -3.2004 39.10626 155.3485
	vertex -3.2004 29.15919 156.4841
endloop
endfacet
facet normal 0 0.1134295 0.9935459
outer loop
	vertex 3.2004 39.10626 155.3485
	vertex -3.2004 39.10626 155.3485
	vertex 3.2004 29.15919 156.4841
endloop
endfacet
facet normal 0 0.2140908 0.9768138
outer loop
	vertex 3.2004 39.10626 155.3485
	vertex -3.2004 45.03419 154.0493
	vertex -3.2004 39.10626 155.3485
endloop
endfacet
facet normal 0 0.2140908 0.9768138
outer loop
	vertex 3.2004 45.03419 154.0493
	vertex -3.2004 45.03419 154.0493
	vertex 3.2004 39.10626 155.3485
endloop
endfacet
facet normal 0 0.2140908 0.9768138
outer loop
	vertex 3.2004 45.03419 154.0493
	vertex -3.2004 54.80363 151.9081
	vertex -3.2004 45.03419 154.0493
endloop
endfacet
facet normal 0 0.2140908 0.9768138
outer loop
	vertex 3.2004 54.80363 151.9081
	vertex -3.2004 54.80363 151.9081
	vertex 3.2004 45.03419 154.0493
endloop
endfacet
facet normal 0 0.3125204 0.9499111
outer loop
	vertex 3.2004 54.80363 151.9081
	vertex -3.2004 57.73421 150.944
	vertex -3.2004 54.80363 151.9081
endloop
endfacet
facet normal 0 0.3125204 0.9499111
outer loop
	vertex 3.2004 57.73421 150.944
	vertex -3.2004 57.73421 150.944
	vertex 3.2004 54.80363 151.9081
endloop
endfacet
facet normal 0 0.3125204 0.9499111
outer loop
	vertex 3.2004 57.73421 150.944
	vertex -3.2004 64.94704 148.571
	vertex -3.2004 57.73421 150.944
endloop
endfacet
facet normal 0 0.3125204 0.9499111
outer loop
	vertex 3.2004 64.94704 148.571
	vertex -3.2004 64.94704 148.571
	vertex 3.2004 57.73421 150.944
endloop
endfacet
facet normal 0 0.3125204 0.9499111
outer loop
	vertex 3.2004 64.94704 148.571
	vertex -3.2004 67.2592 147.8102
	vertex -3.2004 64.94704 148.571
endloop
endfacet
facet normal 0 0.3125204 0.9499111
outer loop
	vertex 3.2004 67.2592 147.8102
	vertex -3.2004 67.2592 147.8102
	vertex 3.2004 64.94704 148.571
endloop
endfacet
facet normal 0 0.3125204 0.9499111
outer loop
	vertex 3.2004 67.2592 147.8102
	vertex -3.2004 70.06868 146.8859
	vertex -3.2004 67.2592 147.8102
endloop
endfacet
facet normal 0 0.3125204 0.9499111
outer loop
	vertex 3.2004 70.06868 146.8859
	vertex -3.2004 70.06868 146.8859
	vertex 3.2004 67.2592 147.8102
endloop
endfacet
facet normal 0 0.407701 0.9131155
outer loop
	vertex 3.2004 70.06868 146.8859
	vertex -3.2004 76.9493 143.8138
	vertex -3.2004 70.06868 146.8859
endloop
endfacet
facet normal 0 0.4076997 0.9131161
outer loop
	vertex 3.2004 76.9493 143.8138
	vertex -3.2004 76.9493 143.8138
	vertex 3.2004 70.06868 146.8859
endloop
endfacet
facet normal 0 0.4076985 0.9131166
outer loop
	vertex 3.2004 76.9493 143.8138
	vertex -3.2004 84.7424 140.3342
	vertex -3.2004 76.9493 143.8138
endloop
endfacet
facet normal 0 0.4076985 0.9131166
outer loop
	vertex 3.2004 84.7424 140.3342
	vertex -3.2004 84.7424 140.3342
	vertex 3.2004 76.9493 143.8138
endloop
endfacet
facet normal 0 0.4990666 0.8665633
outer loop
	vertex 3.2004 84.7424 140.3342
	vertex -3.2004 86.47429 139.3379
	vertex -3.2004 84.7424 140.3342
endloop
endfacet
facet normal 0 0.4994937 0.8663173
outer loop
	vertex 3.2004 86.47429 139.3379
	vertex -3.2004 86.47429 139.3379
	vertex 3.2004 84.7424 140.3342
endloop
endfacet
facet normal 0 0.4999207 0.8660712
outer loop
	vertex 3.2004 86.47429 139.3379
	vertex -3.2004 98.84062 132.1997
	vertex -3.2004 86.47429 139.3379
endloop
endfacet
facet normal 0 0.4999207 0.8660712
outer loop
	vertex 3.2004 98.84062 132.1997
	vertex -3.2004 98.84062 132.1997
	vertex 3.2004 86.47429 139.3379
endloop
endfacet
facet normal 0 0.58438 0.8114801
outer loop
	vertex 3.2004 98.84062 132.1997
	vertex -3.2004 104.3416 128.2383
	vertex -3.2004 98.84062 132.1997
endloop
endfacet
facet normal 0 0.58438 0.8114801
outer loop
	vertex 3.2004 104.3416 128.2383
	vertex -3.2004 104.3416 128.2383
	vertex 3.2004 98.84062 132.1997
endloop
endfacet
facet normal 0 0.58438 0.8114801
outer loop
	vertex 3.2004 104.3416 128.2383
	vertex -3.2004 111.7125 122.9301
	vertex -3.2004 104.3416 128.2383
endloop
endfacet
facet normal 0 0.58438 0.8114801
outer loop
	vertex 3.2004 111.7125 122.9301
	vertex -3.2004 111.7125 122.9301
	vertex 3.2004 104.3416 128.2383
endloop
endfacet
facet normal 0 0.6640385 0.7476983
outer loop
	vertex 3.2004 123.7281 112.2591
	vertex -3.2004 111.7125 122.9301
	vertex 3.2004 111.7125 122.9301
endloop
endfacet
facet normal 0 0.6640385 0.7476983
outer loop
	vertex 3.2004 123.7281 112.2591
	vertex -3.2004 123.7281 112.2591
	vertex -3.2004 111.7125 122.9301
endloop
endfacet
facet normal 0 0.7367763 0.6761366
outer loop
	vertex 3.2004 134.5935 100.4191
	vertex -3.2004 123.7281 112.2591
	vertex 3.2004 123.7281 112.2591
endloop
endfacet
facet normal 0 0.7367763 0.6761366
outer loop
	vertex 3.2004 134.5935 100.4191
	vertex -3.2004 134.5935 100.4191
	vertex -3.2004 123.7281 112.2591
endloop
endfacet
facet normal 0 0.8018478 0.5975283
outer loop
	vertex 3.2004 144.1958 87.53345
	vertex -3.2004 134.5935 100.4191
	vertex 3.2004 134.5935 100.4191
endloop
endfacet
facet normal 0 0.8018478 0.5975283
outer loop
	vertex 3.2004 144.1958 87.53345
	vertex -3.2004 144.1958 87.53345
	vertex -3.2004 134.5935 100.4191
endloop
endfacet
facet normal 0 -0.4784282 0.8781267
outer loop
	vertex 3.2004 -54.90472 141.9515
	vertex -3.2004 -54.90472 141.9515
	vertex -3.2004 -69.0162 134.2632
endloop
endfacet
facet normal 0 -0.4784282 0.8781267
outer loop
	vertex -3.2004 -69.0162 134.2632
	vertex 3.2004 -69.0162 134.2632
	vertex 3.2004 -54.90472 141.9515
endloop
endfacet
facet normal 0.001946663 -0.8946155 0.4468228
outer loop
	vertex 3.2004 -123.7215 77.575
	vertex -3.2004 -123.9215 77.2571
	vertex -3.2004 -131.247 62.53539
endloop
endfacet
facet normal 0 -0.8942891 0.4474896
outer loop
	vertex -3.2004 -131.247 62.53539
	vertex 3.2004 -131.247 62.53539
	vertex 3.2004 -123.7215 77.575
endloop
endfacet
facet normal 0 -0.9674844 -0.2529311
outer loop
	vertex 3.2004 -140.9246 -31.93096
	vertex -3.2004 -140.9246 -31.93096
	vertex -3.2004 -136.8406 -47.5527
endloop
endfacet
facet normal 0 -0.9674844 -0.2529311
outer loop
	vertex -3.2004 -136.8406 -47.5527
	vertex 3.2004 -136.8406 -47.5527
	vertex 3.2004 -140.9246 -31.93096
endloop
endfacet
facet normal 0 -0.8952816 -0.4455008
outer loop
	vertex 3.2004 -131.247 -62.53539
	vertex -3.2004 -131.247 -62.53539
	vertex -3.2004 -123.9215 -77.2571
endloop
endfacet
facet normal 0 -0.8952816 -0.4455008
outer loop
	vertex -3.2004 -123.9215 -77.2571
	vertex 3.2004 -123.9215 -77.2571
	vertex 3.2004 -131.247 -62.53539
endloop
endfacet
facet normal 0 -0.4784282 -0.8781267
outer loop
	vertex -3.2004 -54.90472 -141.9515
	vertex 3.2004 -69.0162 -134.2632
	vertex -3.2004 -69.0162 -134.2632
endloop
endfacet
facet normal 0 -0.4784282 -0.8781267
outer loop
	vertex -3.2004 -54.90472 -141.9515
	vertex 3.2004 -54.90472 -141.9515
	vertex 3.2004 -69.0162 -134.2632
endloop
endfacet
endsolid plate_2_logo
